<svg width="1648" height="245" viewBox="0 0 1648 245" fill="none" xmlns="http://www.w3.org/2000/svg">
<path d="M66 4V37C66 38.1046 66.8954 39 68 39H96C97.1046 39 98 38.1046 98 37V4C98 2.89543 97.1046 2 96 2H68C66.8954 2 66 2.89543 66 4Z" stroke="#FBFBFF" stroke-width="3" stroke-linecap="round"/>
<path d="M73.5 39.5L68.5 53.5H94L90 39.5" stroke="#FBFBFF" stroke-width="3" stroke-linecap="round"/>
<path d="M437 4V37C437 38.1046 437.895 39 439 39H467C468.105 39 469 38.1046 469 37V4C469 2.89543 468.105 2 467 2H439C437.895 2 437 2.89543 437 4Z" stroke="#FBFBFF" stroke-width="3" stroke-linecap="round"/>
<path d="M444.5 39.5L439.5 53.5H465L461 39.5" stroke="#FBFBFF" stroke-width="3" stroke-linecap="round"/>
<path d="M811 4V37C811 38.1046 811.895 39 813 39H841C842.105 39 843 38.1046 843 37V4C843 2.89543 842.105 2 841 2H813C811.895 2 811 2.89543 811 4Z" stroke="#FBFBFF" stroke-width="3" stroke-linecap="round"/>
<path d="M818.5 39.5L813.5 53.5H839L835 39.5" stroke="#FBFBFF" stroke-width="3" stroke-linecap="round"/>
<path d="M1556 5V38C1556 39.1046 1556.9 40 1558 40H1586C1587.1 40 1588 39.1046 1588 38V5C1588 3.89543 1587.1 3 1586 3H1558C1556.9 3 1556 3.89543 1556 5Z" stroke="#FBFBFF" stroke-width="3" stroke-linecap="round"/>
<path d="M1563.5 40.5L1558.5 54.5H1584L1580 40.5" stroke="#FBFBFF" stroke-width="3" stroke-linecap="round"/>
<path d="M1183 4V37C1183 38.1046 1183.9 39 1185 39H1213C1214.1 39 1215 38.1046 1215 37V4C1215 2.89543 1214.1 2 1213 2H1185C1183.9 2 1183 2.89543 1183 4Z" stroke="#FBFBFF" stroke-width="3" stroke-linecap="round"/>
<path d="M1190.5 39.5L1185.5 53.5H1211L1207 39.5" stroke="#FBFBFF" stroke-width="3" stroke-linecap="round"/>
<path d="M1210 2H1224C1236.77 14.769 1245.22 23.222 1256 34M1240.5 70.5L1266.5 44.5C1262.67 40.6717 1259.23 37.2314 1256 34M1245.5 44.5L1232.05 57.9497C1230.74 59.2625 1228.96 60 1227.1 60H1205.5V69.5H1207M1245.5 44.5L1215 14M1245.5 44.5L1256 34M1239.5 73.5V96.5M1239.5 96.5H1237.5V94H1230.5M1239.5 96.5L1222.5 114L1216.5 108L1230.5 94M1230.5 94V76M1224.5 69.5H1207M1207 69.5L1192 84.5L1186 78.5L1204.5 60" stroke="#FBFBFF" stroke-width="3" stroke-linecap="round"/>
<path d="M792 102.5L781.25 121.12L759.75 121.12L749 102.5L759.75 83.8805L781.25 83.8805L792 102.5Z" stroke="white" stroke-width="3"/>
<rect x="7" y="84" width="38" height="38" stroke="white" stroke-width="3"/>
<rect x="378" y="84" width="38" height="38" stroke="white" stroke-width="3"/>
<rect x="63" y="84" width="38" height="38" stroke="white" stroke-width="3"/>
<rect x="117" y="84" width="38" height="38" stroke="white" stroke-width="3"/>
<path d="M17 104L25 110.5L35.5 95" stroke="#FBFBFF" stroke-width="3" stroke-linecap="round"/>
<path d="M388 104L396 110.5L406.5 95" stroke="#FBFBFF" stroke-width="3" stroke-linecap="round"/>
<path d="M80.0909 89L76.4943 99.6189C76.203 100.479 76.5278 101.428 77.2853 101.929L91 111" stroke="#FF0000" stroke-width="3" stroke-linecap="round"/>
<path d="M73 117L82 105" stroke="#FF0000" stroke-width="3" stroke-linecap="round"/>
<rect x="455" y="84" width="19" height="19" stroke="white" stroke-width="3"/>
<rect x="509" y="84" width="19" height="19" stroke="white" stroke-width="3"/>
<rect x="455" y="103" width="19" height="19" stroke="white" stroke-width="3"/>
<rect x="509" y="103" width="19" height="19" stroke="white" stroke-width="3"/>
<rect x="436" y="103" width="19" height="19" stroke="white" stroke-width="3"/>
<rect x="490" y="103" width="19" height="19" stroke="white" stroke-width="3"/>
<rect x="436" y="84" width="19" height="19" stroke="#FF0000" stroke-width="3"/>
<rect x="490" y="84" width="19" height="19" stroke="white" stroke-width="3"/>
<circle cx="827" cy="102" r="19" stroke="white" stroke-width="3"/>
<circle cx="883" cy="102" r="19" stroke="white" stroke-width="3"/>
<path d="M766.5 98C766.333 96.8333 766.8 94.5 770 94.5C771.172 94.5 773.019 95.0931 773.596 97.1132C774.205 99.2475 772.553 101.244 770.807 102.616L766.882 105.7C766.641 105.889 766.5 106.179 766.5 106.486V109C766.5 109.552 766.948 110 767.5 110H773.5" stroke="#FBFBFF" stroke-width="3" stroke-linecap="round"/>
<path d="M822.029 97.5C821.863 96.3333 822.329 94 825.529 94C827.196 94 830.229 95.2 829.029 100" stroke="#FBFBFF" stroke-width="3" stroke-linecap="round"/>
<circle cx="1232.5" cy="67.5" r="8.5" stroke="white" stroke-width="3"/>
<circle cx="1203.5" cy="96.5" r="8.5" stroke="white" stroke-width="3"/>
<circle cx="1203.5" cy="96.5" r="3.5" stroke="white" stroke-width="3"/>
<path d="M1579.62 14.5C1578.18 12.3872 1575.75 11 1573 11C1568.58 11 1565 14.5817 1565 19C1565 23.4183 1568.58 27 1573 27C1575.75 27 1578.18 25.6128 1579.62 23.5" stroke="white" stroke-width="3" stroke-linecap="round"/>
<path fill-rule="evenodd" clip-rule="evenodd" d="M1571.64 94C1566.89 94 1562.92 97.9662 1562.92 103C1562.92 108.034 1566.89 112 1571.64 112C1574.6 112 1577.25 110.475 1578.84 108.085C1580.21 106.022 1582.98 105.472 1585.03 106.858C1587.07 108.243 1587.62 111.039 1586.24 113.102C1583.09 117.843 1577.74 121 1571.64 121C1561.84 121 1554 112.878 1554 103C1554 93.1221 1561.84 85 1571.64 85C1577.74 85 1583.09 88.1566 1586.24 92.8976C1587.62 94.9608 1587.07 97.7566 1585.03 99.1421C1582.98 100.528 1580.21 99.9782 1578.84 97.9149C1577.25 95.5253 1574.6 94 1571.64 94Z" stroke="white" stroke-width="3" stroke-linecap="round"/>
<path d="M1626 85H1613V89.5H1616.5L1626 104L1614.5 117H1612V122H1626V115.5H1622L1629.5 108L1635 118.5H1630.5V122H1646.5V115.5H1641.5L1632.5 101.5L1642.5 89.5H1645.5V85H1632.5V89.5H1635V92L1629.5 97.5L1624.5 88.5H1626V85Z" stroke="#FBFBFF" stroke-width="2" stroke-linecap="round"/>
<path d="M1507.5 92.5L1514.79 85.2071C1515.42 84.5771 1516.5 85.0233 1516.5 85.9142V119H1507.5H1524" stroke="#FBFBFF" stroke-width="3" stroke-linecap="round" stroke-dasharray="4 4"/>
<path d="M35.6092 173.999C38.1172 173.999 40.2842 174.472 42.1102 175.418C43.9582 176.342 45.3662 177.673 46.3342 179.411C47.3242 181.149 47.8192 183.195 47.8192 185.549C47.8192 187.903 47.3242 189.949 46.3342 191.687C45.3662 193.403 43.9582 194.723 42.1102 195.647C40.2842 196.549 38.1172 197 35.6092 197H28.4482V173.999H35.6092ZM35.6092 194.525C38.5792 194.525 40.8452 193.744 42.4072 192.182C43.9692 190.598 44.7502 188.387 44.7502 185.549C44.7502 182.689 43.9582 180.456 42.3742 178.85C40.8122 177.244 38.5572 176.441 35.6092 176.441H31.4512V194.525H35.6092ZM68.2803 187.265C68.2803 187.837 68.2473 188.442 68.1813 189.08H53.7273C53.8373 190.862 54.4423 192.259 55.5423 193.271C56.6643 194.261 58.0173 194.756 59.6013 194.756C60.8993 194.756 61.9773 194.459 62.8353 193.865C63.7153 193.249 64.3313 192.435 64.6833 191.423H67.9173C67.4333 193.161 66.4653 194.58 65.0133 195.68C63.5613 196.758 61.7573 197.297 59.6013 197.297C57.8853 197.297 56.3453 196.912 54.9813 196.142C53.6393 195.372 52.5833 194.283 51.8133 192.875C51.0433 191.445 50.6583 189.795 50.6583 187.925C50.6583 186.055 51.0323 184.416 51.7803 183.008C52.5283 181.6 53.5733 180.522 54.9153 179.774C56.2793 179.004 57.8413 178.619 59.6013 178.619C61.3173 178.619 62.8353 178.993 64.1553 179.741C65.4753 180.489 66.4873 181.523 67.1913 182.843C67.9173 184.141 68.2803 185.615 68.2803 187.265ZM65.1783 186.638C65.1783 185.494 64.9253 184.515 64.4193 183.701C63.9133 182.865 63.2203 182.238 62.3403 181.82C61.4823 181.38 60.5253 181.16 59.4693 181.16C57.9513 181.16 56.6533 181.644 55.5753 182.612C54.5193 183.58 53.9143 184.922 53.7603 186.638H65.1783ZM79.6031 181.391H75.8081V197H72.8051V181.391H70.4621V178.916H72.8051V177.629C72.8051 175.605 73.3221 174.131 74.3561 173.207C75.4121 172.261 77.0951 171.788 79.4051 171.788V174.296C78.0851 174.296 77.1501 174.56 76.6001 175.088C76.0721 175.594 75.8081 176.441 75.8081 177.629V178.916H79.6031V181.391ZM99.6045 187.265C99.6045 187.837 99.5715 188.442 99.5055 189.08H85.0515C85.1615 190.862 85.7665 192.259 86.8665 193.271C87.9885 194.261 89.3415 194.756 90.9255 194.756C92.2235 194.756 93.3015 194.459 94.1595 193.865C95.0395 193.249 95.6555 192.435 96.0075 191.423H99.2415C98.7575 193.161 97.7895 194.58 96.3375 195.68C94.8855 196.758 93.0815 197.297 90.9255 197.297C89.2095 197.297 87.6695 196.912 86.3055 196.142C84.9635 195.372 83.9075 194.283 83.1375 192.875C82.3675 191.445 81.9825 189.795 81.9825 187.925C81.9825 186.055 82.3565 184.416 83.1045 183.008C83.8525 181.6 84.8975 180.522 86.2395 179.774C87.6035 179.004 89.1655 178.619 90.9255 178.619C92.6415 178.619 94.1595 178.993 95.4795 179.741C96.7995 180.489 97.8115 181.523 98.5155 182.843C99.2415 184.141 99.6045 185.615 99.6045 187.265ZM96.5025 186.638C96.5025 185.494 96.2495 184.515 95.7435 183.701C95.2375 182.865 94.5445 182.238 93.6645 181.82C92.8065 181.38 91.8495 181.16 90.7935 181.16C89.2755 181.16 87.9775 181.644 86.8995 182.612C85.8435 183.58 85.2385 184.922 85.0845 186.638H96.5025ZM102.446 187.925C102.446 186.055 102.82 184.427 103.568 183.041C104.316 181.633 105.35 180.544 106.67 179.774C108.012 179.004 109.541 178.619 111.257 178.619C113.479 178.619 115.305 179.158 116.735 180.236C118.187 181.314 119.144 182.81 119.606 184.724H116.372C116.064 183.624 115.459 182.755 114.557 182.117C113.677 181.479 112.577 181.16 111.257 181.16C109.541 181.16 108.155 181.754 107.099 182.942C106.043 184.108 105.515 185.769 105.515 187.925C105.515 190.103 106.043 191.786 107.099 192.974C108.155 194.162 109.541 194.756 111.257 194.756C112.577 194.756 113.677 194.448 114.557 193.832C115.437 193.216 116.042 192.336 116.372 191.192H119.606C119.122 193.04 118.154 194.525 116.702 195.647C115.25 196.747 113.435 197.297 111.257 197.297C109.541 197.297 108.012 196.912 106.67 196.142C105.35 195.372 104.316 194.283 103.568 192.875C102.82 191.467 102.446 189.817 102.446 187.925ZM127.276 181.391V192.05C127.276 192.93 127.463 193.557 127.837 193.931C128.211 194.283 128.86 194.459 129.784 194.459H131.995V197H129.289C127.617 197 126.363 196.615 125.527 195.845C124.691 195.075 124.273 193.81 124.273 192.05V181.391H121.93V178.916H124.273V174.362H127.276V178.916H131.995V181.391H127.276ZM9.8602 212.999C12.3682 212.999 14.5352 213.472 16.3612 214.418C18.2092 215.342 19.6172 216.673 20.5852 218.411C21.5752 220.149 22.0702 222.195 22.0702 224.549C22.0702 226.903 21.5752 228.949 20.5852 230.687C19.6172 232.403 18.2092 233.723 16.3612 234.647C14.5352 235.549 12.3682 236 9.8602 236H2.6992V212.999H9.8602ZM9.8602 233.525C12.8302 233.525 15.0962 232.744 16.6582 231.182C18.2202 229.598 19.0012 227.387 19.0012 224.549C19.0012 221.689 18.2092 219.456 16.6252 217.85C15.0632 216.244 12.8082 215.441 9.8602 215.441H5.7022V233.525H9.8602ZM42.5312 226.265C42.5312 226.837 42.4982 227.442 42.4322 228.08H27.9782C28.0882 229.862 28.6932 231.259 29.7932 232.271C30.9152 233.261 32.2682 233.756 33.8522 233.756C35.1502 233.756 36.2282 233.459 37.0862 232.865C37.9662 232.249 38.5822 231.435 38.9342 230.423H42.1682C41.6842 232.161 40.7162 233.58 39.2642 234.68C37.8122 235.758 36.0082 236.297 33.8522 236.297C32.1362 236.297 30.5962 235.912 29.2322 235.142C27.8902 234.372 26.8342 233.283 26.0642 231.875C25.2942 230.445 24.9092 228.795 24.9092 226.925C24.9092 225.055 25.2832 223.416 26.0312 222.008C26.7792 220.6 27.8242 219.522 29.1662 218.774C30.5302 218.004 32.0922 217.619 33.8522 217.619C35.5682 217.619 37.0862 217.993 38.4062 218.741C39.7262 219.489 40.7382 220.523 41.4422 221.843C42.1682 223.141 42.5312 224.615 42.5312 226.265ZM39.4292 225.638C39.4292 224.494 39.1762 223.515 38.6702 222.701C38.1642 221.865 37.4712 221.238 36.5912 220.82C35.7332 220.38 34.7762 220.16 33.7202 220.16C32.2022 220.16 30.9042 220.644 29.8262 221.612C28.7702 222.58 28.1652 223.922 28.0112 225.638H39.4292ZM50.1581 220.391V231.05C50.1581 231.93 50.3451 232.557 50.7191 232.931C51.0931 233.283 51.7421 233.459 52.6661 233.459H54.8771V236H52.1711C50.4991 236 49.2451 235.615 48.4091 234.845C47.5731 234.075 47.1551 232.81 47.1551 231.05V220.391H44.8121V217.916H47.1551V213.362H50.1581V217.916H54.8771V220.391H50.1581ZM75.0156 226.265C75.0156 226.837 74.9826 227.442 74.9166 228.08H60.4626C60.5726 229.862 61.1776 231.259 62.2776 232.271C63.3996 233.261 64.7526 233.756 66.3366 233.756C67.6346 233.756 68.7126 233.459 69.5706 232.865C70.4506 232.249 71.0666 231.435 71.4186 230.423H74.6526C74.1686 232.161 73.2006 233.58 71.7486 234.68C70.2966 235.758 68.4926 236.297 66.3366 236.297C64.6206 236.297 63.0806 235.912 61.7166 235.142C60.3746 234.372 59.3186 233.283 58.5486 231.875C57.7786 230.445 57.3936 228.795 57.3936 226.925C57.3936 225.055 57.7676 223.416 58.5156 222.008C59.2636 220.6 60.3086 219.522 61.6506 218.774C63.0146 218.004 64.5766 217.619 66.3366 217.619C68.0526 217.619 69.5706 217.993 70.8906 218.741C72.2106 219.489 73.2226 220.523 73.9266 221.843C74.6526 223.141 75.0156 224.615 75.0156 226.265ZM71.9136 225.638C71.9136 224.494 71.6606 223.515 71.1546 222.701C70.6486 221.865 69.9556 221.238 69.0756 220.82C68.2176 220.38 67.2606 220.16 66.2046 220.16C64.6866 220.16 63.3886 220.644 62.3106 221.612C61.2546 222.58 60.6496 223.922 60.4956 225.638H71.9136ZM77.8575 226.925C77.8575 225.055 78.2315 223.427 78.9795 222.041C79.7275 220.633 80.7615 219.544 82.0815 218.774C83.4235 218.004 84.9525 217.619 86.6685 217.619C88.8905 217.619 90.7165 218.158 92.1465 219.236C93.5985 220.314 94.5555 221.81 95.0175 223.724H91.7835C91.4755 222.624 90.8705 221.755 89.9685 221.117C89.0885 220.479 87.9885 220.16 86.6685 220.16C84.9525 220.16 83.5665 220.754 82.5105 221.942C81.4545 223.108 80.9265 224.769 80.9265 226.925C80.9265 229.103 81.4545 230.786 82.5105 231.974C83.5665 233.162 84.9525 233.756 86.6685 233.756C87.9885 233.756 89.0885 233.448 89.9685 232.832C90.8485 232.216 91.4535 231.336 91.7835 230.192H95.0175C94.5335 232.04 93.5655 233.525 92.1135 234.647C90.6615 235.747 88.8465 236.297 86.6685 236.297C84.9525 236.297 83.4235 235.912 82.0815 235.142C80.7615 234.372 79.7275 233.283 78.9795 231.875C78.2315 230.467 77.8575 228.817 77.8575 226.925ZM102.687 220.391V231.05C102.687 231.93 102.874 232.557 103.248 232.931C103.622 233.283 104.271 233.459 105.195 233.459H107.406V236H104.7C103.028 236 101.774 235.615 100.938 234.845C100.102 234.075 99.6844 232.81 99.6844 231.05V220.391H97.3414V217.916H99.6844V213.362H102.687V217.916H107.406V220.391H102.687ZM112.596 214.979C112.024 214.979 111.54 214.781 111.144 214.385C110.748 213.989 110.55 213.505 110.55 212.933C110.55 212.361 110.748 211.877 111.144 211.481C111.54 211.085 112.024 210.887 112.596 210.887C113.146 210.887 113.608 211.085 113.982 211.481C114.378 211.877 114.576 212.361 114.576 212.933C114.576 213.505 114.378 213.989 113.982 214.385C113.608 214.781 113.146 214.979 112.596 214.979ZM114.048 217.916V236H111.045V217.916H114.048ZM127.053 236.297C125.359 236.297 123.819 235.912 122.433 235.142C121.069 234.372 119.991 233.283 119.199 231.875C118.429 230.445 118.044 228.795 118.044 226.925C118.044 225.077 118.44 223.449 119.232 222.041C120.046 220.611 121.146 219.522 122.532 218.774C123.918 218.004 125.469 217.619 127.185 217.619C128.901 217.619 130.452 218.004 131.838 218.774C133.224 219.522 134.313 220.6 135.105 222.008C135.919 223.416 136.326 225.055 136.326 226.925C136.326 228.795 135.908 230.445 135.072 231.875C134.258 233.283 133.147 234.372 131.739 235.142C130.331 235.912 128.769 236.297 127.053 236.297ZM127.053 233.657C128.131 233.657 129.143 233.404 130.089 232.898C131.035 232.392 131.794 231.633 132.366 230.621C132.96 229.609 133.257 228.377 133.257 226.925C133.257 225.473 132.971 224.241 132.399 223.229C131.827 222.217 131.079 221.469 130.155 220.985C129.231 220.479 128.23 220.226 127.152 220.226C126.052 220.226 125.04 220.479 124.116 220.985C123.214 221.469 122.488 222.217 121.938 223.229C121.388 224.241 121.113 225.473 121.113 226.925C121.113 228.399 121.377 229.642 121.905 230.654C122.455 231.666 123.181 232.425 124.083 232.931C124.985 233.415 125.975 233.657 127.053 233.657ZM149.085 217.586C151.285 217.586 153.067 218.257 154.431 219.599C155.795 220.919 156.477 222.833 156.477 225.341V236H153.507V225.77C153.507 223.966 153.056 222.591 152.154 221.645C151.252 220.677 150.02 220.193 148.458 220.193C146.874 220.193 145.609 220.688 144.663 221.678C143.739 222.668 143.277 224.109 143.277 226.001V236H140.274V217.916H143.277V220.49C143.871 219.566 144.674 218.851 145.686 218.345C146.72 217.839 147.853 217.586 149.085 217.586Z" fill="white"/>
<path d="M335.907 185.483C335.907 183.239 336.413 181.226 337.425 179.444C338.437 177.64 339.812 176.232 341.55 175.22C343.31 174.208 345.257 173.702 347.391 173.702C349.899 173.702 352.088 174.307 353.958 175.517C355.828 176.727 357.192 178.443 358.05 180.665H354.453C353.815 179.279 352.891 178.212 351.681 177.464C350.493 176.716 349.063 176.342 347.391 176.342C345.785 176.342 344.344 176.716 343.068 177.464C341.792 178.212 340.791 179.279 340.065 180.665C339.339 182.029 338.976 183.635 338.976 185.483C338.976 187.309 339.339 188.915 340.065 190.301C340.791 191.665 341.792 192.721 343.068 193.469C344.344 194.217 345.785 194.591 347.391 194.591C349.063 194.591 350.493 194.228 351.681 193.502C352.891 192.754 353.815 191.687 354.453 190.301H358.05C357.192 192.501 355.828 194.206 353.958 195.416C352.088 196.604 349.899 197.198 347.391 197.198C345.257 197.198 343.31 196.703 341.55 195.713C339.812 194.701 338.437 193.304 337.425 191.522C336.413 189.74 335.907 187.727 335.907 185.483ZM370.407 197.297C368.713 197.297 367.173 196.912 365.787 196.142C364.423 195.372 363.345 194.283 362.553 192.875C361.783 191.445 361.398 189.795 361.398 187.925C361.398 186.077 361.794 184.449 362.586 183.041C363.4 181.611 364.5 180.522 365.886 179.774C367.272 179.004 368.823 178.619 370.539 178.619C372.255 178.619 373.806 179.004 375.192 179.774C376.578 180.522 377.667 181.6 378.459 183.008C379.273 184.416 379.68 186.055 379.68 187.925C379.68 189.795 379.262 191.445 378.426 192.875C377.612 194.283 376.501 195.372 375.093 196.142C373.685 196.912 372.123 197.297 370.407 197.297ZM370.407 194.657C371.485 194.657 372.497 194.404 373.443 193.898C374.389 193.392 375.148 192.633 375.72 191.621C376.314 190.609 376.611 189.377 376.611 187.925C376.611 186.473 376.325 185.241 375.753 184.229C375.181 183.217 374.433 182.469 373.509 181.985C372.585 181.479 371.584 181.226 370.506 181.226C369.406 181.226 368.394 181.479 367.47 181.985C366.568 182.469 365.842 183.217 365.292 184.229C364.742 185.241 364.467 186.473 364.467 187.925C364.467 189.399 364.731 190.642 365.259 191.654C365.809 192.666 366.535 193.425 367.437 193.931C368.339 194.415 369.329 194.657 370.407 194.657ZM405.376 178.586C406.784 178.586 408.038 178.883 409.138 179.477C410.238 180.049 411.107 180.918 411.745 182.084C412.383 183.25 412.702 184.669 412.702 186.341V197H409.732V186.77C409.732 184.966 409.281 183.591 408.379 182.645C407.499 181.677 406.3 181.193 404.782 181.193C403.22 181.193 401.977 181.699 401.053 182.711C400.129 183.701 399.667 185.142 399.667 187.034V197H396.697V186.77C396.697 184.966 396.246 183.591 395.344 182.645C394.464 181.677 393.265 181.193 391.747 181.193C390.185 181.193 388.942 181.699 388.018 182.711C387.094 183.701 386.632 185.142 386.632 187.034V197H383.629V178.916H386.632V181.523C387.226 180.577 388.018 179.851 389.008 179.345C390.02 178.839 391.131 178.586 392.341 178.586C393.859 178.586 395.201 178.927 396.367 179.609C397.533 180.291 398.402 181.292 398.974 182.612C399.48 181.336 400.316 180.346 401.482 179.642C402.648 178.938 403.946 178.586 405.376 178.586ZM420.631 182.249C421.225 181.215 422.105 180.357 423.271 179.675C424.459 178.971 425.834 178.619 427.396 178.619C429.002 178.619 430.454 179.004 431.752 179.774C433.072 180.544 434.106 181.633 434.854 183.041C435.602 184.427 435.976 186.044 435.976 187.892C435.976 189.718 435.602 191.346 434.854 192.776C434.106 194.206 433.072 195.317 431.752 196.109C430.454 196.901 429.002 197.297 427.396 197.297C425.856 197.297 424.492 196.956 423.304 196.274C422.138 195.57 421.247 194.701 420.631 193.667V205.58H417.628V178.916H420.631V182.249ZM432.907 187.892C432.907 186.528 432.632 185.34 432.082 184.328C431.532 183.316 430.784 182.546 429.838 182.018C428.914 181.49 427.891 181.226 426.769 181.226C425.669 181.226 424.646 181.501 423.7 182.051C422.776 182.579 422.028 183.36 421.456 184.394C420.906 185.406 420.631 186.583 420.631 187.925C420.631 189.289 420.906 190.488 421.456 191.522C422.028 192.534 422.776 193.315 423.7 193.865C424.646 194.393 425.669 194.657 426.769 194.657C427.891 194.657 428.914 194.393 429.838 193.865C430.784 193.315 431.532 192.534 432.082 191.522C432.632 190.488 432.907 189.278 432.907 187.892ZM442.932 172.58V197H439.929V172.58H442.932ZM464.55 187.265C464.55 187.837 464.517 188.442 464.451 189.08H449.997C450.107 190.862 450.712 192.259 451.812 193.271C452.934 194.261 454.287 194.756 455.871 194.756C457.169 194.756 458.247 194.459 459.105 193.865C459.985 193.249 460.601 192.435 460.953 191.423H464.187C463.703 193.161 462.735 194.58 461.283 195.68C459.831 196.758 458.027 197.297 455.871 197.297C454.155 197.297 452.615 196.912 451.251 196.142C449.909 195.372 448.853 194.283 448.083 192.875C447.313 191.445 446.928 189.795 446.928 187.925C446.928 186.055 447.302 184.416 448.05 183.008C448.798 181.6 449.843 180.522 451.185 179.774C452.549 179.004 454.111 178.619 455.871 178.619C457.587 178.619 459.105 178.993 460.425 179.741C461.745 180.489 462.757 181.523 463.461 182.843C464.187 184.141 464.55 185.615 464.55 187.265ZM461.448 186.638C461.448 185.494 461.195 184.515 460.689 183.701C460.183 182.865 459.49 182.238 458.61 181.82C457.752 181.38 456.795 181.16 455.739 181.16C454.221 181.16 452.923 181.644 451.845 182.612C450.789 183.58 450.184 184.922 450.03 186.638H461.448ZM472.177 181.391V192.05C472.177 192.93 472.364 193.557 472.738 193.931C473.112 194.283 473.761 194.459 474.685 194.459H476.896V197H474.19C472.518 197 471.264 196.615 470.428 195.845C469.592 195.075 469.174 193.81 469.174 192.05V181.391H466.831V178.916H469.174V174.362H472.177V178.916H476.896V181.391H472.177ZM497.034 187.265C497.034 187.837 497.001 188.442 496.935 189.08H482.481C482.591 190.862 483.196 192.259 484.296 193.271C485.418 194.261 486.771 194.756 488.355 194.756C489.653 194.756 490.731 194.459 491.589 193.865C492.469 193.249 493.085 192.435 493.437 191.423H496.671C496.187 193.161 495.219 194.58 493.767 195.68C492.315 196.758 490.511 197.297 488.355 197.297C486.639 197.297 485.099 196.912 483.735 196.142C482.393 195.372 481.337 194.283 480.567 192.875C479.797 191.445 479.412 189.795 479.412 187.925C479.412 186.055 479.786 184.416 480.534 183.008C481.282 181.6 482.327 180.522 483.669 179.774C485.033 179.004 486.595 178.619 488.355 178.619C490.071 178.619 491.589 178.993 492.909 179.741C494.229 180.489 495.241 181.523 495.945 182.843C496.671 184.141 497.034 185.615 497.034 187.265ZM493.932 186.638C493.932 185.494 493.679 184.515 493.173 183.701C492.667 182.865 491.974 182.238 491.094 181.82C490.236 181.38 489.279 181.16 488.223 181.16C486.705 181.16 485.407 181.644 484.329 182.612C483.273 183.58 482.668 184.922 482.514 186.638H493.932ZM509.809 178.586C512.009 178.586 513.791 179.257 515.155 180.599C516.519 181.919 517.201 183.833 517.201 186.341V197H514.231V186.77C514.231 184.966 513.78 183.591 512.878 182.645C511.976 181.677 510.744 181.193 509.182 181.193C507.598 181.193 506.333 181.688 505.387 182.678C504.463 183.668 504.001 185.109 504.001 187.001V197H500.998V178.916H504.001V181.49C504.595 180.566 505.398 179.851 506.41 179.345C507.444 178.839 508.577 178.586 509.809 178.586ZM538.606 187.265C538.606 187.837 538.573 188.442 538.507 189.08H524.053C524.163 190.862 524.768 192.259 525.868 193.271C526.99 194.261 528.343 194.756 529.927 194.756C531.225 194.756 532.303 194.459 533.161 193.865C534.041 193.249 534.657 192.435 535.009 191.423H538.243C537.759 193.161 536.791 194.58 535.339 195.68C533.887 196.758 532.083 197.297 529.927 197.297C528.211 197.297 526.671 196.912 525.307 196.142C523.965 195.372 522.909 194.283 522.139 192.875C521.369 191.445 520.984 189.795 520.984 187.925C520.984 186.055 521.358 184.416 522.106 183.008C522.854 181.6 523.899 180.522 525.241 179.774C526.605 179.004 528.167 178.619 529.927 178.619C531.643 178.619 533.161 178.993 534.481 179.741C535.801 180.489 536.813 181.523 537.517 182.843C538.243 184.141 538.606 185.615 538.606 187.265ZM535.504 186.638C535.504 185.494 535.251 184.515 534.745 183.701C534.239 182.865 533.546 182.238 532.666 181.82C531.808 181.38 530.851 181.16 529.795 181.16C528.277 181.16 526.979 181.644 525.901 182.612C524.845 183.58 524.24 184.922 524.086 186.638H535.504ZM548.972 197.297C547.586 197.297 546.343 197.066 545.243 196.604C544.143 196.12 543.274 195.46 542.636 194.624C541.998 193.766 541.646 192.787 541.58 191.687H544.682C544.77 192.589 545.188 193.326 545.936 193.898C546.706 194.47 547.707 194.756 548.939 194.756C550.083 194.756 550.985 194.503 551.645 193.997C552.305 193.491 552.635 192.853 552.635 192.083C552.635 191.291 552.283 190.708 551.579 190.334C550.875 189.938 549.786 189.553 548.312 189.179C546.97 188.827 545.87 188.475 545.012 188.123C544.176 187.749 543.45 187.21 542.834 186.506C542.24 185.78 541.943 184.834 541.943 183.668C541.943 182.744 542.218 181.897 542.768 181.127C543.318 180.357 544.099 179.752 545.111 179.312C546.123 178.85 547.278 178.619 548.576 178.619C550.578 178.619 552.195 179.125 553.427 180.137C554.659 181.149 555.319 182.535 555.407 184.295H552.404C552.338 183.349 551.953 182.59 551.249 182.018C550.567 181.446 549.643 181.16 548.477 181.16C547.399 181.16 546.541 181.391 545.903 181.853C545.265 182.315 544.946 182.92 544.946 183.668C544.946 184.262 545.133 184.757 545.507 185.153C545.903 185.527 546.387 185.835 546.959 186.077C547.553 186.297 548.367 186.55 549.401 186.836C550.699 187.188 551.755 187.54 552.569 187.892C553.383 188.222 554.076 188.728 554.648 189.41C555.242 190.092 555.55 190.983 555.572 192.083C555.572 193.073 555.297 193.964 554.747 194.756C554.197 195.548 553.416 196.175 552.404 196.637C551.414 197.077 550.27 197.297 548.972 197.297ZM566.214 197.297C564.828 197.297 563.585 197.066 562.485 196.604C561.385 196.12 560.516 195.46 559.878 194.624C559.24 193.766 558.888 192.787 558.822 191.687H561.924C562.012 192.589 562.43 193.326 563.178 193.898C563.948 194.47 564.949 194.756 566.181 194.756C567.325 194.756 568.227 194.503 568.887 193.997C569.547 193.491 569.877 192.853 569.877 192.083C569.877 191.291 569.525 190.708 568.821 190.334C568.117 189.938 567.028 189.553 565.554 189.179C564.212 188.827 563.112 188.475 562.254 188.123C561.418 187.749 560.692 187.21 560.076 186.506C559.482 185.78 559.185 184.834 559.185 183.668C559.185 182.744 559.46 181.897 560.01 181.127C560.56 180.357 561.341 179.752 562.353 179.312C563.365 178.85 564.52 178.619 565.818 178.619C567.82 178.619 569.437 179.125 570.669 180.137C571.901 181.149 572.561 182.535 572.649 184.295H569.646C569.58 183.349 569.195 182.59 568.491 182.018C567.809 181.446 566.885 181.16 565.719 181.16C564.641 181.16 563.783 181.391 563.145 181.853C562.507 182.315 562.188 182.92 562.188 183.668C562.188 184.262 562.375 184.757 562.749 185.153C563.145 185.527 563.629 185.835 564.201 186.077C564.795 186.297 565.609 186.55 566.643 186.836C567.941 187.188 568.997 187.54 569.811 187.892C570.625 188.222 571.318 188.728 571.89 189.41C572.484 190.092 572.792 190.983 572.814 192.083C572.814 193.073 572.539 193.964 571.989 194.756C571.439 195.548 570.658 196.175 569.646 196.637C568.656 197.077 567.512 197.297 566.214 197.297ZM403.873 224.483C403.873 222.239 404.379 220.226 405.391 218.444C406.403 216.64 407.778 215.232 409.516 214.22C411.276 213.208 413.223 212.702 415.357 212.702C417.865 212.702 420.054 213.307 421.924 214.517C423.794 215.727 425.158 217.443 426.016 219.665H422.419C421.781 218.279 420.857 217.212 419.647 216.464C418.459 215.716 417.029 215.342 415.357 215.342C413.751 215.342 412.31 215.716 411.034 216.464C409.758 217.212 408.757 218.279 408.031 219.665C407.305 221.029 406.942 222.635 406.942 224.483C406.942 226.309 407.305 227.915 408.031 229.301C408.757 230.665 409.758 231.721 411.034 232.469C412.31 233.217 413.751 233.591 415.357 233.591C417.029 233.591 418.459 233.228 419.647 232.502C420.857 231.754 421.781 230.687 422.419 229.301H426.016C425.158 231.501 423.794 233.206 421.924 234.416C420.054 235.604 417.865 236.198 415.357 236.198C413.223 236.198 411.276 235.703 409.516 234.713C407.778 233.701 406.403 232.304 405.391 230.522C404.379 228.74 403.873 226.727 403.873 224.483ZM439.462 217.586C440.826 217.586 442.058 217.883 443.158 218.477C444.258 219.049 445.116 219.918 445.732 221.084C446.37 222.25 446.689 223.669 446.689 225.341V236H443.719V225.77C443.719 223.966 443.268 222.591 442.366 221.645C441.464 220.677 440.232 220.193 438.67 220.193C437.086 220.193 435.821 220.688 434.875 221.678C433.951 222.668 433.489 224.109 433.489 226.001V236H430.486V211.58H433.489V220.49C434.083 219.566 434.897 218.851 435.931 218.345C436.987 217.839 438.164 217.586 439.462 217.586ZM468.095 226.265C468.095 226.837 468.062 227.442 467.996 228.08H453.542C453.652 229.862 454.257 231.259 455.357 232.271C456.479 233.261 457.832 233.756 459.416 233.756C460.714 233.756 461.792 233.459 462.65 232.865C463.53 232.249 464.146 231.435 464.498 230.423H467.732C467.248 232.161 466.28 233.58 464.828 234.68C463.376 235.758 461.572 236.297 459.416 236.297C457.7 236.297 456.16 235.912 454.796 235.142C453.454 234.372 452.398 233.283 451.628 231.875C450.858 230.445 450.473 228.795 450.473 226.925C450.473 225.055 450.847 223.416 451.595 222.008C452.343 220.6 453.388 219.522 454.73 218.774C456.094 218.004 457.656 217.619 459.416 217.619C461.132 217.619 462.65 217.993 463.97 218.741C465.29 219.489 466.302 220.523 467.006 221.843C467.732 223.141 468.095 224.615 468.095 226.265ZM464.993 225.638C464.993 224.494 464.74 223.515 464.234 222.701C463.728 221.865 463.035 221.238 462.155 220.82C461.297 220.38 460.34 220.16 459.284 220.16C457.766 220.16 456.468 220.644 455.39 221.612C454.334 222.58 453.729 223.922 453.575 225.638H464.993ZM470.937 226.925C470.937 225.055 471.311 223.427 472.059 222.041C472.807 220.633 473.841 219.544 475.161 218.774C476.503 218.004 478.032 217.619 479.748 217.619C481.97 217.619 483.796 218.158 485.226 219.236C486.678 220.314 487.635 221.81 488.097 223.724H484.863C484.555 222.624 483.95 221.755 483.048 221.117C482.168 220.479 481.068 220.16 479.748 220.16C478.032 220.16 476.646 220.754 475.59 221.942C474.534 223.108 474.006 224.769 474.006 226.925C474.006 229.103 474.534 230.786 475.59 231.974C476.646 233.162 478.032 233.756 479.748 233.756C481.068 233.756 482.168 233.448 483.048 232.832C483.928 232.216 484.533 231.336 484.863 230.192H488.097C487.613 232.04 486.645 233.525 485.193 234.647C483.741 235.747 481.926 236.297 479.748 236.297C478.032 236.297 476.503 235.912 475.161 235.142C473.841 234.372 472.807 233.283 472.059 231.875C471.311 230.467 470.937 228.817 470.937 226.925ZM502.202 236L495.107 228.014V236H492.104V211.58H495.107V225.935L502.07 217.916H506.261L497.747 226.925L506.294 236H502.202Z" fill="white"/>
<path d="M776.417 180.731C776.417 182.645 775.757 184.24 774.437 185.516C773.139 186.77 771.148 187.397 768.464 187.397H764.042V197H761.039V173.999H768.464C771.06 173.999 773.029 174.626 774.371 175.88C775.735 177.134 776.417 178.751 776.417 180.731ZM768.464 184.922C770.136 184.922 771.368 184.559 772.16 183.833C772.952 183.107 773.348 182.073 773.348 180.731C773.348 177.893 771.72 176.474 768.464 176.474H764.042V184.922H768.464ZM783.152 181.853C783.68 180.819 784.428 180.016 785.396 179.444C786.386 178.872 787.585 178.586 788.993 178.586V181.688H788.201C784.835 181.688 783.152 183.514 783.152 187.166V197H780.149V178.916H783.152V181.853ZM800.347 197.297C798.653 197.297 797.113 196.912 795.727 196.142C794.363 195.372 793.285 194.283 792.493 192.875C791.723 191.445 791.338 189.795 791.338 187.925C791.338 186.077 791.734 184.449 792.526 183.041C793.34 181.611 794.44 180.522 795.826 179.774C797.212 179.004 798.763 178.619 800.479 178.619C802.195 178.619 803.746 179.004 805.132 179.774C806.518 180.522 807.607 181.6 808.399 183.008C809.213 184.416 809.62 186.055 809.62 187.925C809.62 189.795 809.202 191.445 808.366 192.875C807.552 194.283 806.441 195.372 805.033 196.142C803.625 196.912 802.063 197.297 800.347 197.297ZM800.347 194.657C801.425 194.657 802.437 194.404 803.383 193.898C804.329 193.392 805.088 192.633 805.66 191.621C806.254 190.609 806.551 189.377 806.551 187.925C806.551 186.473 806.265 185.241 805.693 184.229C805.121 183.217 804.373 182.469 803.449 181.985C802.525 181.479 801.524 181.226 800.446 181.226C799.346 181.226 798.334 181.479 797.41 181.985C796.508 182.469 795.782 183.217 795.232 184.229C794.682 185.241 794.407 186.473 794.407 187.925C794.407 189.399 794.671 190.642 795.199 191.654C795.749 192.666 796.475 193.425 797.377 193.931C798.279 194.415 799.269 194.657 800.347 194.657ZM812.446 187.892C812.446 186.044 812.82 184.427 813.568 183.041C814.316 181.633 815.339 180.544 816.637 179.774C817.957 179.004 819.431 178.619 821.059 178.619C822.467 178.619 823.776 178.949 824.986 179.609C826.196 180.247 827.12 181.094 827.758 182.15V172.58H830.794V197H827.758V193.601C827.164 194.679 826.284 195.57 825.118 196.274C823.952 196.956 822.588 197.297 821.026 197.297C819.42 197.297 817.957 196.901 816.637 196.109C815.339 195.317 814.316 194.206 813.568 192.776C812.82 191.346 812.446 189.718 812.446 187.892ZM827.758 187.925C827.758 186.561 827.483 185.373 826.933 184.361C826.383 183.349 825.635 182.579 824.689 182.051C823.765 181.501 822.742 181.226 821.62 181.226C820.498 181.226 819.475 181.49 818.551 182.018C817.627 182.546 816.89 183.316 816.34 184.328C815.79 185.34 815.515 186.528 815.515 187.892C815.515 189.278 815.79 190.488 816.34 191.522C816.89 192.534 817.627 193.315 818.551 193.865C819.475 194.393 820.498 194.657 821.62 194.657C822.742 194.657 823.765 194.393 824.689 193.865C825.635 193.315 826.383 192.534 826.933 191.522C827.483 190.488 827.758 189.289 827.758 187.925ZM851.907 178.916V197H848.904V194.327C848.332 195.251 847.529 195.977 846.495 196.505C845.483 197.011 844.361 197.264 843.129 197.264C841.721 197.264 840.456 196.978 839.334 196.406C838.212 195.812 837.321 194.932 836.661 193.766C836.023 192.6 835.704 191.181 835.704 189.509V178.916H838.674V189.113C838.674 190.895 839.125 192.27 840.027 193.238C840.929 194.184 842.161 194.657 843.723 194.657C845.329 194.657 846.594 194.162 847.518 193.172C848.442 192.182 848.904 190.741 848.904 188.849V178.916H851.907ZM855.856 187.925C855.856 186.055 856.23 184.427 856.978 183.041C857.726 181.633 858.76 180.544 860.08 179.774C861.422 179.004 862.951 178.619 864.667 178.619C866.889 178.619 868.715 179.158 870.145 180.236C871.597 181.314 872.554 182.81 873.016 184.724H869.782C869.474 183.624 868.869 182.755 867.967 182.117C867.087 181.479 865.987 181.16 864.667 181.16C862.951 181.16 861.565 181.754 860.509 182.942C859.453 184.108 858.925 185.769 858.925 187.925C858.925 190.103 859.453 191.786 860.509 192.974C861.565 194.162 862.951 194.756 864.667 194.756C865.987 194.756 867.087 194.448 867.967 193.832C868.847 193.216 869.452 192.336 869.782 191.192H873.016C872.532 193.04 871.564 194.525 870.112 195.647C868.66 196.747 866.845 197.297 864.667 197.297C862.951 197.297 861.422 196.912 860.08 196.142C858.76 195.372 857.726 194.283 856.978 192.875C856.23 191.467 855.856 189.817 855.856 187.925ZM880.685 181.391V192.05C880.685 192.93 880.872 193.557 881.246 193.931C881.62 194.283 882.269 194.459 883.193 194.459H885.404V197H882.698C881.026 197 879.772 196.615 878.936 195.845C878.1 195.075 877.682 193.81 877.682 192.05V181.391H875.339V178.916H877.682V174.362H880.685V178.916H885.404V181.391H880.685ZM774.165 236.231C772.647 236.231 771.283 235.967 770.073 235.439C768.885 234.889 767.95 234.141 767.268 233.195C766.586 232.227 766.234 231.116 766.212 229.862H769.413C769.523 230.94 769.963 231.853 770.733 232.601C771.525 233.327 772.669 233.69 774.165 233.69C775.595 233.69 776.717 233.338 777.531 232.634C778.367 231.908 778.785 230.984 778.785 229.862C778.785 228.982 778.543 228.267 778.059 227.717C777.575 227.167 776.97 226.749 776.244 226.463C775.518 226.177 774.539 225.869 773.307 225.539C771.789 225.143 770.568 224.747 769.644 224.351C768.742 223.955 767.961 223.339 767.301 222.503C766.663 221.645 766.344 220.501 766.344 219.071C766.344 217.817 766.663 216.706 767.301 215.738C767.939 214.77 768.83 214.022 769.974 213.494C771.14 212.966 772.471 212.702 773.967 212.702C776.123 212.702 777.883 213.241 779.247 214.319C780.633 215.397 781.414 216.827 781.59 218.609H778.29C778.18 217.729 777.718 216.959 776.904 216.299C776.09 215.617 775.012 215.276 773.67 215.276C772.416 215.276 771.393 215.606 770.601 216.266C769.809 216.904 769.413 217.806 769.413 218.972C769.413 219.808 769.644 220.49 770.106 221.018C770.59 221.546 771.173 221.953 771.855 222.239C772.559 222.503 773.538 222.811 774.792 223.163C776.31 223.581 777.531 223.999 778.455 224.417C779.379 224.813 780.171 225.44 780.831 226.298C781.491 227.134 781.821 228.278 781.821 229.73C781.821 230.852 781.524 231.908 780.93 232.898C780.336 233.888 779.456 234.691 778.29 235.307C777.124 235.923 775.749 236.231 774.165 236.231ZM794.127 236.297C792.433 236.297 790.893 235.912 789.507 235.142C788.143 234.372 787.065 233.283 786.273 231.875C785.503 230.445 785.118 228.795 785.118 226.925C785.118 225.077 785.514 223.449 786.306 222.041C787.12 220.611 788.22 219.522 789.606 218.774C790.992 218.004 792.543 217.619 794.259 217.619C795.975 217.619 797.526 218.004 798.912 218.774C800.298 219.522 801.387 220.6 802.179 222.008C802.993 223.416 803.4 225.055 803.4 226.925C803.4 228.795 802.982 230.445 802.146 231.875C801.332 233.283 800.221 234.372 798.813 235.142C797.405 235.912 795.843 236.297 794.127 236.297ZM794.127 233.657C795.205 233.657 796.217 233.404 797.163 232.898C798.109 232.392 798.868 231.633 799.44 230.621C800.034 229.609 800.331 228.377 800.331 226.925C800.331 225.473 800.045 224.241 799.473 223.229C798.901 222.217 798.153 221.469 797.229 220.985C796.305 220.479 795.304 220.226 794.226 220.226C793.126 220.226 792.114 220.479 791.19 220.985C790.288 221.469 789.562 222.217 789.012 223.229C788.462 224.241 788.187 225.473 788.187 226.925C788.187 228.399 788.451 229.642 788.979 230.654C789.529 231.666 790.255 232.425 791.157 232.931C792.059 233.415 793.049 233.657 794.127 233.657ZM810.352 220.853C810.88 219.819 811.628 219.016 812.596 218.444C813.586 217.872 814.785 217.586 816.193 217.586V220.688H815.401C812.035 220.688 810.352 222.514 810.352 226.166V236H807.349V217.916H810.352V220.853ZM823.322 220.391V231.05C823.322 231.93 823.509 232.557 823.883 232.931C824.257 233.283 824.906 233.459 825.83 233.459H828.041V236H825.335C823.663 236 822.409 235.615 821.573 234.845C820.737 234.075 820.319 232.81 820.319 231.05V220.391H817.976V217.916H820.319V213.362H823.322V217.916H828.041V220.391H823.322ZM833.231 214.979C832.659 214.979 832.175 214.781 831.779 214.385C831.383 213.989 831.185 213.505 831.185 212.933C831.185 212.361 831.383 211.877 831.779 211.481C832.175 211.085 832.659 210.887 833.231 210.887C833.781 210.887 834.243 211.085 834.617 211.481C835.013 211.877 835.211 212.361 835.211 212.933C835.211 213.505 835.013 213.989 834.617 214.385C834.243 214.781 833.781 214.979 833.231 214.979ZM834.683 217.916V236H831.68V217.916H834.683ZM848.612 217.586C850.812 217.586 852.594 218.257 853.958 219.599C855.322 220.919 856.004 222.833 856.004 225.341V236H853.034V225.77C853.034 223.966 852.583 222.591 851.681 221.645C850.779 220.677 849.547 220.193 847.985 220.193C846.401 220.193 845.136 220.688 844.19 221.678C843.266 222.668 842.804 224.109 842.804 226.001V236H839.801V217.916H842.804V220.49C843.398 219.566 844.201 218.851 845.213 218.345C846.247 217.839 847.38 217.586 848.612 217.586ZM868.367 217.619C869.929 217.619 871.293 217.96 872.459 218.642C873.647 219.324 874.527 220.182 875.099 221.216V217.916H878.135V236.396C878.135 238.046 877.783 239.509 877.079 240.785C876.375 242.083 875.363 243.095 874.043 243.821C872.745 244.547 871.227 244.91 869.489 244.91C867.113 244.91 865.133 244.349 863.549 243.227C861.965 242.105 861.03 240.576 860.744 238.64H863.714C864.044 239.74 864.726 240.62 865.76 241.28C866.794 241.962 868.037 242.303 869.489 242.303C871.139 242.303 872.481 241.786 873.515 240.752C874.571 239.718 875.099 238.266 875.099 236.396V232.601C874.505 233.657 873.625 234.537 872.459 235.241C871.293 235.945 869.929 236.297 868.367 236.297C866.761 236.297 865.298 235.901 863.978 235.109C862.68 234.317 861.657 233.206 860.909 231.776C860.161 230.346 859.787 228.718 859.787 226.892C859.787 225.044 860.161 223.427 860.909 222.041C861.657 220.633 862.68 219.544 863.978 218.774C865.298 218.004 866.761 217.619 868.367 217.619ZM875.099 226.925C875.099 225.561 874.824 224.373 874.274 223.361C873.724 222.349 872.976 221.579 872.03 221.051C871.106 220.501 870.083 220.226 868.961 220.226C867.839 220.226 866.816 220.49 865.892 221.018C864.968 221.546 864.231 222.316 863.681 223.328C863.131 224.34 862.856 225.528 862.856 226.892C862.856 228.278 863.131 229.488 863.681 230.522C864.231 231.534 864.968 232.315 865.892 232.865C866.816 233.393 867.839 233.657 868.961 233.657C870.083 233.657 871.106 233.393 872.03 232.865C872.976 232.315 873.724 231.534 874.274 230.522C874.824 229.488 875.099 228.289 875.099 226.925Z" fill="white"/>
<path d="M1081.81 185.483C1081.81 183.239 1082.32 181.226 1083.33 179.444C1084.34 177.64 1085.72 176.232 1087.46 175.22C1089.22 174.208 1091.16 173.702 1093.3 173.702C1095.81 173.702 1098 174.307 1099.87 175.517C1101.74 176.727 1103.1 178.443 1103.96 180.665H1100.36C1099.72 179.279 1098.8 178.212 1097.59 177.464C1096.4 176.716 1094.97 176.342 1093.3 176.342C1091.69 176.342 1090.25 176.716 1088.98 177.464C1087.7 178.212 1086.7 179.279 1085.97 180.665C1085.25 182.029 1084.88 183.635 1084.88 185.483C1084.88 187.309 1085.25 188.915 1085.97 190.301C1086.7 191.665 1087.7 192.721 1088.98 193.469C1090.25 194.217 1091.69 194.591 1093.3 194.591C1094.97 194.591 1096.4 194.228 1097.59 193.502C1098.8 192.754 1099.72 191.687 1100.36 190.301H1103.96C1103.1 192.501 1101.74 194.206 1099.87 195.416C1098 196.604 1095.81 197.198 1093.3 197.198C1091.16 197.198 1089.22 196.703 1087.46 195.713C1085.72 194.701 1084.34 193.304 1083.33 191.522C1082.32 189.74 1081.81 187.727 1081.81 185.483ZM1107.31 187.892C1107.31 186.044 1107.68 184.427 1108.43 183.041C1109.18 181.633 1110.2 180.544 1111.5 179.774C1112.82 179.004 1114.28 178.619 1115.89 178.619C1117.47 178.619 1118.84 178.96 1120.01 179.642C1121.18 180.324 1122.05 181.182 1122.62 182.216V178.916H1125.65V197H1122.62V193.634C1122.02 194.69 1121.13 195.57 1119.94 196.274C1118.78 196.956 1117.41 197.297 1115.85 197.297C1114.25 197.297 1112.79 196.901 1111.5 196.109C1110.2 195.317 1109.18 194.206 1108.43 192.776C1107.68 191.346 1107.31 189.718 1107.31 187.892ZM1122.62 187.925C1122.62 186.561 1122.34 185.373 1121.79 184.361C1121.24 183.349 1120.49 182.579 1119.55 182.051C1118.62 181.501 1117.6 181.226 1116.48 181.226C1115.36 181.226 1114.33 181.49 1113.41 182.018C1112.49 182.546 1111.75 183.316 1111.2 184.328C1110.65 185.34 1110.37 186.528 1110.37 187.892C1110.37 189.278 1110.65 190.488 1111.2 191.522C1111.75 192.534 1112.49 193.315 1113.41 193.865C1114.33 194.393 1115.36 194.657 1116.48 194.657C1117.6 194.657 1118.62 194.393 1119.55 193.865C1120.49 193.315 1121.24 192.534 1121.79 191.522C1122.34 190.488 1122.62 189.289 1122.62 187.925ZM1152.48 178.586C1153.88 178.586 1155.14 178.883 1156.24 179.477C1157.34 180.049 1158.21 180.918 1158.84 182.084C1159.48 183.25 1159.8 184.669 1159.8 186.341V197H1156.83V186.77C1156.83 184.966 1156.38 183.591 1155.48 182.645C1154.6 181.677 1153.4 181.193 1151.88 181.193C1150.32 181.193 1149.08 181.699 1148.15 182.711C1147.23 183.701 1146.77 185.142 1146.77 187.034V197H1143.8V186.77C1143.8 184.966 1143.35 183.591 1142.44 182.645C1141.56 181.677 1140.36 181.193 1138.85 181.193C1137.28 181.193 1136.04 181.699 1135.12 182.711C1134.19 183.701 1133.73 185.142 1133.73 187.034V197H1130.73V178.916H1133.73V181.523C1134.33 180.577 1135.12 179.851 1136.11 179.345C1137.12 178.839 1138.23 178.586 1139.44 178.586C1140.96 178.586 1142.3 178.927 1143.47 179.609C1144.63 180.291 1145.5 181.292 1146.07 182.612C1146.58 181.336 1147.42 180.346 1148.58 179.642C1149.75 178.938 1151.05 178.586 1152.48 178.586ZM1181.23 187.265C1181.23 187.837 1181.19 188.442 1181.13 189.08H1166.67C1166.78 190.862 1167.39 192.259 1168.49 193.271C1169.61 194.261 1170.96 194.756 1172.55 194.756C1173.85 194.756 1174.92 194.459 1175.78 193.865C1176.66 193.249 1177.28 192.435 1177.63 191.423H1180.86C1180.38 193.161 1179.41 194.58 1177.96 195.68C1176.51 196.758 1174.7 197.297 1172.55 197.297C1170.83 197.297 1169.29 196.912 1167.93 196.142C1166.59 195.372 1165.53 194.283 1164.76 192.875C1163.99 191.445 1163.61 189.795 1163.61 187.925C1163.61 186.055 1163.98 184.416 1164.73 183.008C1165.48 181.6 1166.52 180.522 1167.86 179.774C1169.23 179.004 1170.79 178.619 1172.55 178.619C1174.26 178.619 1175.78 178.993 1177.1 179.741C1178.42 180.489 1179.43 181.523 1180.14 182.843C1180.86 184.141 1181.23 185.615 1181.23 187.265ZM1178.13 186.638C1178.13 185.494 1177.87 184.515 1177.37 183.701C1176.86 182.865 1176.17 182.238 1175.29 181.82C1174.43 181.38 1173.47 181.16 1172.42 181.16C1170.9 181.16 1169.6 181.644 1168.52 182.612C1167.47 183.58 1166.86 184.922 1166.71 186.638H1178.13ZM1188.19 181.853C1188.72 180.819 1189.47 180.016 1190.44 179.444C1191.43 178.872 1192.63 178.586 1194.04 178.586V181.688H1193.24C1189.88 181.688 1188.19 183.514 1188.19 187.166V197H1185.19V178.916H1188.19V181.853ZM1196.38 187.892C1196.38 186.044 1196.75 184.427 1197.5 183.041C1198.25 181.633 1199.27 180.544 1200.57 179.774C1201.89 179.004 1203.35 178.619 1204.96 178.619C1206.54 178.619 1207.92 178.96 1209.08 179.642C1210.25 180.324 1211.12 181.182 1211.69 182.216V178.916H1214.73V197H1211.69V193.634C1211.1 194.69 1210.21 195.57 1209.02 196.274C1207.85 196.956 1206.49 197.297 1204.93 197.297C1203.32 197.297 1201.87 196.901 1200.57 196.109C1199.27 195.317 1198.25 194.206 1197.5 192.776C1196.75 191.346 1196.38 189.718 1196.38 187.892ZM1211.69 187.925C1211.69 186.561 1211.42 185.373 1210.87 184.361C1210.32 183.349 1209.57 182.579 1208.62 182.051C1207.7 181.501 1206.68 181.226 1205.55 181.226C1204.43 181.226 1203.41 181.49 1202.48 182.018C1201.56 182.546 1200.82 183.316 1200.27 184.328C1199.72 185.34 1199.45 186.528 1199.45 187.892C1199.45 189.278 1199.72 190.488 1200.27 191.522C1200.82 192.534 1201.56 193.315 1202.48 193.865C1203.41 194.393 1204.43 194.657 1205.55 194.657C1206.68 194.657 1207.7 194.393 1208.62 193.865C1209.57 193.315 1210.32 192.534 1210.87 191.522C1211.42 190.488 1211.69 189.289 1211.69 187.925ZM1240.12 185.153C1240.95 185.285 1241.71 185.626 1242.39 186.176C1243.1 186.726 1243.65 187.408 1244.04 188.222C1244.46 189.036 1244.67 189.905 1244.67 190.829C1244.67 191.995 1244.37 193.051 1243.78 193.997C1243.19 194.921 1242.32 195.658 1241.17 196.208C1240.05 196.736 1238.72 197 1237.18 197H1228.6V173.999H1236.85C1238.41 173.999 1239.74 174.263 1240.84 174.791C1241.94 175.297 1242.77 175.99 1243.32 176.87C1243.87 177.75 1244.14 178.74 1244.14 179.84C1244.14 181.204 1243.77 182.337 1243.02 183.239C1242.3 184.119 1241.33 184.757 1240.12 185.153ZM1231.6 183.932H1236.65C1238.06 183.932 1239.15 183.602 1239.92 182.942C1240.69 182.282 1241.07 181.369 1241.07 180.203C1241.07 179.037 1240.69 178.124 1239.92 177.464C1239.15 176.804 1238.04 176.474 1236.59 176.474H1231.6V183.932ZM1236.92 194.525C1238.41 194.525 1239.58 194.173 1240.41 193.469C1241.25 192.765 1241.67 191.786 1241.67 190.532C1241.67 189.256 1241.23 188.255 1240.35 187.529C1239.47 186.781 1238.29 186.407 1236.82 186.407H1231.6V194.525H1236.92ZM1247.72 187.892C1247.72 186.044 1248.09 184.427 1248.84 183.041C1249.59 181.633 1250.61 180.544 1251.91 179.774C1253.23 179.004 1254.69 178.619 1256.3 178.619C1257.88 178.619 1259.26 178.96 1260.42 179.642C1261.59 180.324 1262.46 181.182 1263.03 182.216V178.916H1266.06V197H1263.03V193.634C1262.43 194.69 1261.54 195.57 1260.36 196.274C1259.19 196.956 1257.83 197.297 1256.26 197.297C1254.66 197.297 1253.21 196.901 1251.91 196.109C1250.61 195.317 1249.59 194.206 1248.84 192.776C1248.09 191.346 1247.72 189.718 1247.72 187.892ZM1263.03 187.925C1263.03 186.561 1262.75 185.373 1262.2 184.361C1261.65 183.349 1260.91 182.579 1259.96 182.051C1259.04 181.501 1258.01 181.226 1256.89 181.226C1255.77 181.226 1254.75 181.49 1253.82 182.018C1252.9 182.546 1252.16 183.316 1251.61 184.328C1251.06 185.34 1250.79 186.528 1250.79 187.892C1250.79 189.278 1251.06 190.488 1251.61 191.522C1252.16 192.534 1252.9 193.315 1253.82 193.865C1254.75 194.393 1255.77 194.657 1256.89 194.657C1258.01 194.657 1259.04 194.393 1259.96 193.865C1260.91 193.315 1261.65 192.534 1262.2 191.522C1262.75 190.488 1263.03 189.289 1263.03 187.925ZM1277.54 197.297C1276.16 197.297 1274.91 197.066 1273.81 196.604C1272.71 196.12 1271.84 195.46 1271.21 194.624C1270.57 193.766 1270.22 192.787 1270.15 191.687H1273.25C1273.34 192.589 1273.76 193.326 1274.51 193.898C1275.28 194.47 1276.28 194.756 1277.51 194.756C1278.65 194.756 1279.55 194.503 1280.21 193.997C1280.87 193.491 1281.2 192.853 1281.2 192.083C1281.2 191.291 1280.85 190.708 1280.15 190.334C1279.44 189.938 1278.36 189.553 1276.88 189.179C1275.54 188.827 1274.44 188.475 1273.58 188.123C1272.75 187.749 1272.02 187.21 1271.4 186.506C1270.81 185.78 1270.51 184.834 1270.51 183.668C1270.51 182.744 1270.79 181.897 1271.34 181.127C1271.89 180.357 1272.67 179.752 1273.68 179.312C1274.69 178.85 1275.85 178.619 1277.15 178.619C1279.15 178.619 1280.76 179.125 1282 180.137C1283.23 181.149 1283.89 182.535 1283.98 184.295H1280.97C1280.91 183.349 1280.52 182.59 1279.82 182.018C1279.14 181.446 1278.21 181.16 1277.05 181.16C1275.97 181.16 1275.11 181.391 1274.47 181.853C1273.83 182.315 1273.52 182.92 1273.52 183.668C1273.52 184.262 1273.7 184.757 1274.08 185.153C1274.47 185.527 1274.96 185.835 1275.53 186.077C1276.12 186.297 1276.94 186.55 1277.97 186.836C1279.27 187.188 1280.32 187.54 1281.14 187.892C1281.95 188.222 1282.65 188.728 1283.22 189.41C1283.81 190.092 1284.12 190.983 1284.14 192.083C1284.14 193.073 1283.87 193.964 1283.32 194.756C1282.77 195.548 1281.99 196.175 1280.97 196.637C1279.98 197.077 1278.84 197.297 1277.54 197.297ZM1304.88 187.265C1304.88 187.837 1304.85 188.442 1304.78 189.08H1290.33C1290.44 190.862 1291.04 192.259 1292.14 193.271C1293.26 194.261 1294.62 194.756 1296.2 194.756C1297.5 194.756 1298.58 194.459 1299.44 193.865C1300.32 193.249 1300.93 192.435 1301.28 191.423H1304.52C1304.03 193.161 1303.07 194.58 1301.61 195.68C1300.16 196.758 1298.36 197.297 1296.2 197.297C1294.49 197.297 1292.95 196.912 1291.58 196.142C1290.24 195.372 1289.18 194.283 1288.41 192.875C1287.64 191.445 1287.26 189.795 1287.26 187.925C1287.26 186.055 1287.63 184.416 1288.38 183.008C1289.13 181.6 1290.17 180.522 1291.52 179.774C1292.88 179.004 1294.44 178.619 1296.2 178.619C1297.92 178.619 1299.44 178.993 1300.76 179.741C1302.08 180.489 1303.09 181.523 1303.79 182.843C1304.52 184.141 1304.88 185.615 1304.88 187.265ZM1301.78 186.638C1301.78 185.494 1301.53 184.515 1301.02 183.701C1300.51 182.865 1299.82 182.238 1298.94 181.82C1298.08 181.38 1297.13 181.16 1296.07 181.16C1294.55 181.16 1293.25 181.644 1292.18 182.612C1291.12 183.58 1290.51 184.922 1290.36 186.638H1301.78ZM1307.72 187.892C1307.72 186.044 1308.1 184.427 1308.84 183.041C1309.59 181.633 1310.62 180.544 1311.91 179.774C1313.23 179.004 1314.71 178.619 1316.34 178.619C1317.74 178.619 1319.05 178.949 1320.26 179.609C1321.47 180.247 1322.4 181.094 1323.03 182.15V172.58H1326.07V197H1323.03V193.601C1322.44 194.679 1321.56 195.57 1320.39 196.274C1319.23 196.956 1317.86 197.297 1316.3 197.297C1314.7 197.297 1313.23 196.901 1311.91 196.109C1310.62 195.317 1309.59 194.206 1308.84 192.776C1308.1 191.346 1307.72 189.718 1307.72 187.892ZM1323.03 187.925C1323.03 186.561 1322.76 185.373 1322.21 184.361C1321.66 183.349 1320.91 182.579 1319.97 182.051C1319.04 181.501 1318.02 181.226 1316.9 181.226C1315.77 181.226 1314.75 181.49 1313.83 182.018C1312.9 182.546 1312.17 183.316 1311.62 184.328C1311.07 185.34 1310.79 186.528 1310.79 187.892C1310.79 189.278 1311.07 190.488 1311.62 191.522C1312.17 192.534 1312.9 193.315 1313.83 193.865C1314.75 194.393 1315.77 194.657 1316.9 194.657C1318.02 194.657 1319.04 194.393 1319.97 193.865C1320.91 193.315 1321.66 192.534 1322.21 191.522C1322.76 190.488 1323.03 189.289 1323.03 187.925ZM1085.88 236L1080.4 226.595H1076.77V236H1073.77V212.999H1081.19C1082.93 212.999 1084.39 213.296 1085.58 213.89C1086.79 214.484 1087.69 215.287 1088.29 216.299C1088.88 217.311 1089.18 218.466 1089.18 219.764C1089.18 221.348 1088.72 222.745 1087.79 223.955C1086.89 225.165 1085.53 225.968 1083.7 226.364L1089.48 236H1085.88ZM1076.77 224.186H1081.19C1082.82 224.186 1084.04 223.79 1084.86 222.998C1085.67 222.184 1086.08 221.106 1086.08 219.764C1086.08 218.4 1085.67 217.344 1084.86 216.596C1084.06 215.848 1082.84 215.474 1081.19 215.474H1076.77V224.186ZM1101.73 236.297C1100.04 236.297 1098.5 235.912 1097.11 235.142C1095.75 234.372 1094.67 233.283 1093.88 231.875C1093.11 230.445 1092.72 228.795 1092.72 226.925C1092.72 225.077 1093.12 223.449 1093.91 222.041C1094.73 220.611 1095.83 219.522 1097.21 218.774C1098.6 218.004 1100.15 217.619 1101.86 217.619C1103.58 217.619 1105.13 218.004 1106.52 218.774C1107.9 219.522 1108.99 220.6 1109.78 222.008C1110.6 223.416 1111.01 225.055 1111.01 226.925C1111.01 228.795 1110.59 230.445 1109.75 231.875C1108.94 233.283 1107.83 234.372 1106.42 235.142C1105.01 235.912 1103.45 236.297 1101.73 236.297ZM1101.73 233.657C1102.81 233.657 1103.82 233.404 1104.77 232.898C1105.71 232.392 1106.47 231.633 1107.05 230.621C1107.64 229.609 1107.94 228.377 1107.94 226.925C1107.94 225.473 1107.65 224.241 1107.08 223.229C1106.51 222.217 1105.76 221.469 1104.83 220.985C1103.91 220.479 1102.91 220.226 1101.83 220.226C1100.73 220.226 1099.72 220.479 1098.8 220.985C1097.89 221.469 1097.17 222.217 1096.62 223.229C1096.07 224.241 1095.79 225.473 1095.79 226.925C1095.79 228.399 1096.06 229.642 1096.58 230.654C1097.13 231.666 1097.86 232.425 1098.76 232.931C1099.66 233.415 1100.65 233.657 1101.73 233.657ZM1117.96 221.282C1118.57 220.204 1119.47 219.324 1120.66 218.642C1121.85 217.96 1123.2 217.619 1124.72 217.619C1126.35 217.619 1127.81 218.004 1129.11 218.774C1130.41 219.544 1131.43 220.633 1132.18 222.041C1132.93 223.427 1133.3 225.044 1133.3 226.892C1133.3 228.718 1132.93 230.346 1132.18 231.776C1131.43 233.206 1130.4 234.317 1129.08 235.109C1127.78 235.901 1126.33 236.297 1124.72 236.297C1123.16 236.297 1121.78 235.956 1120.6 235.274C1119.43 234.592 1118.55 233.723 1117.96 232.667V236H1114.95V211.58H1117.96V221.282ZM1130.23 226.892C1130.23 225.528 1129.96 224.34 1129.41 223.328C1128.86 222.316 1128.11 221.546 1127.16 221.018C1126.24 220.49 1125.22 220.226 1124.09 220.226C1122.99 220.226 1121.97 220.501 1121.03 221.051C1120.1 221.579 1119.35 222.36 1118.78 223.394C1118.23 224.406 1117.96 225.583 1117.96 226.925C1117.96 228.289 1118.23 229.488 1118.78 230.522C1119.35 231.534 1120.1 232.315 1121.03 232.865C1121.97 233.393 1122.99 233.657 1124.09 233.657C1125.22 233.657 1126.24 233.393 1127.16 232.865C1128.11 232.315 1128.86 231.534 1129.41 230.522C1129.96 229.488 1130.23 228.278 1130.23 226.892ZM1145.14 236.297C1143.45 236.297 1141.91 235.912 1140.52 235.142C1139.16 234.372 1138.08 233.283 1137.29 231.875C1136.52 230.445 1136.13 228.795 1136.13 226.925C1136.13 225.077 1136.53 223.449 1137.32 222.041C1138.13 220.611 1139.23 219.522 1140.62 218.774C1142.01 218.004 1143.56 217.619 1145.27 217.619C1146.99 217.619 1148.54 218.004 1149.93 218.774C1151.31 219.522 1152.4 220.6 1153.19 222.008C1154.01 223.416 1154.41 225.055 1154.41 226.925C1154.41 228.795 1154 230.445 1153.16 231.875C1152.35 233.283 1151.24 234.372 1149.83 235.142C1148.42 235.912 1146.86 236.297 1145.14 236.297ZM1145.14 233.657C1146.22 233.657 1147.23 233.404 1148.18 232.898C1149.12 232.392 1149.88 231.633 1150.45 230.621C1151.05 229.609 1151.35 228.377 1151.35 226.925C1151.35 225.473 1151.06 224.241 1150.49 223.229C1149.92 222.217 1149.17 221.469 1148.24 220.985C1147.32 220.479 1146.32 220.226 1145.24 220.226C1144.14 220.226 1143.13 220.479 1142.2 220.985C1141.3 221.469 1140.58 222.217 1140.03 223.229C1139.48 224.241 1139.2 225.473 1139.2 226.925C1139.2 228.399 1139.47 229.642 1139.99 230.654C1140.54 231.666 1141.27 232.425 1142.17 232.931C1143.07 233.415 1144.06 233.657 1145.14 233.657ZM1162.03 220.391V231.05C1162.03 231.93 1162.21 232.557 1162.59 232.931C1162.96 233.283 1163.61 233.459 1164.53 233.459H1166.74V236H1164.04C1162.37 236 1161.11 235.615 1160.28 234.845C1159.44 234.075 1159.02 232.81 1159.02 231.05V220.391H1156.68V217.916H1159.02V213.362H1162.03V217.916H1166.74V220.391H1162.03ZM1196.61 219.665C1195.97 218.323 1195.04 217.289 1193.83 216.563C1192.62 215.815 1191.22 215.441 1189.61 215.441C1188 215.441 1186.55 215.815 1185.25 216.563C1183.98 217.289 1182.97 218.345 1182.22 219.731C1181.49 221.095 1181.13 222.679 1181.13 224.483C1181.13 226.287 1181.49 227.871 1182.22 229.235C1182.97 230.599 1183.98 231.655 1185.25 232.403C1186.55 233.129 1188 233.492 1189.61 233.492C1191.85 233.492 1193.7 232.821 1195.15 231.479C1196.61 230.137 1197.45 228.322 1197.69 226.034H1188.52V223.592H1200.9V225.902C1200.72 227.794 1200.13 229.532 1199.11 231.116C1198.1 232.678 1196.77 233.921 1195.12 234.845C1193.47 235.747 1191.63 236.198 1189.61 236.198C1187.48 236.198 1185.53 235.703 1183.77 234.713C1182.01 233.701 1180.61 232.304 1179.58 230.522C1178.57 228.74 1178.06 226.727 1178.06 224.483C1178.06 222.239 1178.57 220.226 1179.58 218.444C1180.61 216.64 1182.01 215.243 1183.77 214.253C1185.53 213.241 1187.48 212.735 1189.61 212.735C1192.05 212.735 1194.21 213.34 1196.08 214.55C1197.97 215.76 1199.34 217.465 1200.2 219.665H1196.61ZM1220.9 217.916V236H1217.9V233.327C1217.33 234.251 1216.53 234.977 1215.49 235.505C1214.48 236.011 1213.36 236.264 1212.13 236.264C1210.72 236.264 1209.45 235.978 1208.33 235.406C1207.21 234.812 1206.32 233.932 1205.66 232.766C1205.02 231.6 1204.7 230.181 1204.7 228.509V217.916H1207.67V228.113C1207.67 229.895 1208.12 231.27 1209.02 232.238C1209.93 233.184 1211.16 233.657 1212.72 233.657C1214.33 233.657 1215.59 233.162 1216.51 232.172C1217.44 231.182 1217.9 229.741 1217.9 227.849V217.916H1220.9ZM1227.53 214.979C1226.95 214.979 1226.47 214.781 1226.07 214.385C1225.68 213.989 1225.48 213.505 1225.48 212.933C1225.48 212.361 1225.68 211.877 1226.07 211.481C1226.47 211.085 1226.95 210.887 1227.53 210.887C1228.08 210.887 1228.54 211.085 1228.91 211.481C1229.31 211.877 1229.51 212.361 1229.51 212.933C1229.51 213.505 1229.31 213.989 1228.91 214.385C1228.54 214.781 1228.08 214.979 1227.53 214.979ZM1228.98 217.916V236H1225.97V217.916H1228.98ZM1232.97 226.892C1232.97 225.044 1233.35 223.427 1234.1 222.041C1234.84 220.633 1235.87 219.544 1237.16 218.774C1238.48 218.004 1239.96 217.619 1241.59 217.619C1242.99 217.619 1244.3 217.949 1245.51 218.609C1246.72 219.247 1247.65 220.094 1248.29 221.15V211.58H1251.32V236H1248.29V232.601C1247.69 233.679 1246.81 234.57 1245.65 235.274C1244.48 235.956 1243.12 236.297 1241.55 236.297C1239.95 236.297 1238.48 235.901 1237.16 235.109C1235.87 234.317 1234.84 233.206 1234.1 231.776C1233.35 230.346 1232.97 228.718 1232.97 226.892ZM1248.29 226.925C1248.29 225.561 1248.01 224.373 1247.46 223.361C1246.91 222.349 1246.16 221.579 1245.22 221.051C1244.29 220.501 1243.27 220.226 1242.15 220.226C1241.03 220.226 1240 220.49 1239.08 221.018C1238.15 221.546 1237.42 222.316 1236.87 223.328C1236.32 224.34 1236.04 225.528 1236.04 226.892C1236.04 228.278 1236.32 229.488 1236.87 230.522C1237.42 231.534 1238.15 232.315 1239.08 232.865C1240 233.393 1241.03 233.657 1242.15 233.657C1243.27 233.657 1244.29 233.393 1245.22 232.865C1246.16 232.315 1246.91 231.534 1247.46 230.522C1248.01 229.488 1248.29 228.289 1248.29 226.925ZM1255.27 226.892C1255.27 225.044 1255.65 223.427 1256.4 222.041C1257.14 220.633 1258.17 219.544 1259.46 218.774C1260.78 218.004 1262.25 217.619 1263.85 217.619C1265.44 217.619 1266.81 217.96 1267.98 218.642C1269.14 219.324 1270.01 220.182 1270.59 221.216V217.916H1273.62V236H1270.59V232.634C1269.99 233.69 1269.1 234.57 1267.91 235.274C1266.75 235.956 1265.38 236.297 1263.82 236.297C1262.21 236.297 1260.76 235.901 1259.46 235.109C1258.17 234.317 1257.14 233.206 1256.4 231.776C1255.65 230.346 1255.27 228.718 1255.27 226.892ZM1270.59 226.925C1270.59 225.561 1270.31 224.373 1269.76 223.361C1269.21 222.349 1268.46 221.579 1267.52 221.051C1266.59 220.501 1265.57 220.226 1264.45 220.226C1263.33 220.226 1262.3 220.49 1261.38 221.018C1260.45 221.546 1259.72 222.316 1259.17 223.328C1258.62 224.34 1258.34 225.528 1258.34 226.892C1258.34 228.278 1258.62 229.488 1259.17 230.522C1259.72 231.534 1260.45 232.315 1261.38 232.865C1262.3 233.393 1263.33 233.657 1264.45 233.657C1265.57 233.657 1266.59 233.393 1267.52 232.865C1268.46 232.315 1269.21 231.534 1269.76 230.522C1270.31 229.488 1270.59 228.289 1270.59 226.925ZM1287.51 217.586C1289.71 217.586 1291.49 218.257 1292.85 219.599C1294.22 220.919 1294.9 222.833 1294.9 225.341V236H1291.93V225.77C1291.93 223.966 1291.48 222.591 1290.58 221.645C1289.67 220.677 1288.44 220.193 1286.88 220.193C1285.3 220.193 1284.03 220.688 1283.09 221.678C1282.16 222.668 1281.7 224.109 1281.7 226.001V236H1278.7V217.916H1281.7V220.49C1282.29 219.566 1283.1 218.851 1284.11 218.345C1285.14 217.839 1286.28 217.586 1287.51 217.586ZM1298.68 226.925C1298.68 225.055 1299.06 223.427 1299.81 222.041C1300.55 220.633 1301.59 219.544 1302.91 218.774C1304.25 218.004 1305.78 217.619 1307.49 217.619C1309.72 217.619 1311.54 218.158 1312.97 219.236C1314.42 220.314 1315.38 221.81 1315.84 223.724H1312.61C1312.3 222.624 1311.7 221.755 1310.79 221.117C1309.91 220.479 1308.81 220.16 1307.49 220.16C1305.78 220.16 1304.39 220.754 1303.34 221.942C1302.28 223.108 1301.75 224.769 1301.75 226.925C1301.75 229.103 1302.28 230.786 1303.34 231.974C1304.39 233.162 1305.78 233.756 1307.49 233.756C1308.81 233.756 1309.91 233.448 1310.79 232.832C1311.67 232.216 1312.28 231.336 1312.61 230.192H1315.84C1315.36 232.04 1314.39 233.525 1312.94 234.647C1311.49 235.747 1309.67 236.297 1307.49 236.297C1305.78 236.297 1304.25 235.912 1302.91 235.142C1301.59 234.372 1300.55 233.283 1299.81 231.875C1299.06 230.467 1298.68 228.817 1298.68 226.925ZM1336.35 226.265C1336.35 226.837 1336.32 227.442 1336.25 228.08H1321.8C1321.91 229.862 1322.51 231.259 1323.61 232.271C1324.73 233.261 1326.09 233.756 1327.67 233.756C1328.97 233.756 1330.05 233.459 1330.91 232.865C1331.79 232.249 1332.4 231.435 1332.75 230.423H1335.99C1335.5 232.161 1334.54 233.58 1333.08 234.68C1331.63 235.758 1329.83 236.297 1327.67 236.297C1325.96 236.297 1324.42 235.912 1323.05 235.142C1321.71 234.372 1320.65 233.283 1319.88 231.875C1319.11 230.445 1318.73 228.795 1318.73 226.925C1318.73 225.055 1319.1 223.416 1319.85 222.008C1320.6 220.6 1321.64 219.522 1322.99 218.774C1324.35 218.004 1325.91 217.619 1327.67 217.619C1329.39 217.619 1330.91 217.993 1332.23 218.741C1333.55 219.489 1334.56 220.523 1335.26 221.843C1335.99 223.141 1336.35 224.615 1336.35 226.265ZM1333.25 225.638C1333.25 224.494 1333 223.515 1332.49 222.701C1331.98 221.865 1331.29 221.238 1330.41 220.82C1329.55 220.38 1328.6 220.16 1327.54 220.16C1326.02 220.16 1324.72 220.644 1323.65 221.612C1322.59 222.58 1321.98 223.922 1321.83 225.638H1333.25Z" fill="white"/>
<path d="M1554.13 173.999V176.441H1547.86V197H1544.86V176.441H1538.56V173.999H1554.13ZM1574.33 187.265C1574.33 187.837 1574.3 188.442 1574.23 189.08H1559.78C1559.89 190.862 1560.49 192.259 1561.59 193.271C1562.71 194.261 1564.07 194.756 1565.65 194.756C1566.95 194.756 1568.03 194.459 1568.89 193.865C1569.77 193.249 1570.38 192.435 1570.73 191.423H1573.97C1573.48 193.161 1572.52 194.58 1571.06 195.68C1569.61 196.758 1567.81 197.297 1565.65 197.297C1563.94 197.297 1562.4 196.912 1561.03 196.142C1559.69 195.372 1558.63 194.283 1557.86 192.875C1557.09 191.445 1556.71 189.795 1556.71 187.925C1556.71 186.055 1557.08 184.416 1557.83 183.008C1558.58 181.6 1559.62 180.522 1560.97 179.774C1562.33 179.004 1563.89 178.619 1565.65 178.619C1567.37 178.619 1568.89 178.993 1570.21 179.741C1571.53 180.489 1572.54 181.523 1573.24 182.843C1573.97 184.141 1574.33 185.615 1574.33 187.265ZM1571.23 186.638C1571.23 185.494 1570.98 184.515 1570.47 183.701C1569.96 182.865 1569.27 182.238 1568.39 181.82C1567.53 181.38 1566.58 181.16 1565.52 181.16C1564 181.16 1562.7 181.644 1561.63 182.612C1560.57 183.58 1559.96 184.922 1559.81 186.638H1571.23ZM1587.73 197L1583.44 190.268L1579.32 197H1576.18L1582.02 188.024L1576.18 178.916H1579.58L1583.87 185.615L1587.96 178.916H1591.1L1585.29 187.859L1591.13 197H1587.73ZM1597.75 181.391V192.05C1597.75 192.93 1597.93 193.557 1598.31 193.931C1598.68 194.283 1599.33 194.459 1600.26 194.459H1602.47V197H1599.76C1598.09 197 1596.83 196.615 1596 195.845C1595.16 195.075 1594.74 193.81 1594.74 192.05V181.391H1592.4V178.916H1594.74V174.362H1597.75V178.916H1602.47V181.391H1597.75ZM1516.82 236L1511.34 226.595H1507.71V236H1504.7V212.999H1512.13C1513.87 212.999 1515.33 213.296 1516.52 213.89C1517.73 214.484 1518.63 215.287 1519.22 216.299C1519.82 217.311 1520.12 218.466 1520.12 219.764C1520.12 221.348 1519.65 222.745 1518.73 223.955C1517.83 225.165 1516.46 225.968 1514.64 226.364L1520.41 236H1516.82ZM1507.71 224.186H1512.13C1513.76 224.186 1514.98 223.79 1515.79 222.998C1516.61 222.184 1517.01 221.106 1517.01 219.764C1517.01 218.4 1516.61 217.344 1515.79 216.596C1515 215.848 1513.78 215.474 1512.13 215.474H1507.71V224.186ZM1541.28 226.265C1541.28 226.837 1541.25 227.442 1541.18 228.08H1526.73C1526.84 229.862 1527.44 231.259 1528.54 232.271C1529.67 233.261 1531.02 233.756 1532.6 233.756C1533.9 233.756 1534.98 233.459 1535.84 232.865C1536.72 232.249 1537.33 231.435 1537.68 230.423H1540.92C1540.43 232.161 1539.47 233.58 1538.01 234.68C1536.56 235.758 1534.76 236.297 1532.6 236.297C1530.89 236.297 1529.35 235.912 1527.98 235.142C1526.64 234.372 1525.58 233.283 1524.81 231.875C1524.04 230.445 1523.66 228.795 1523.66 226.925C1523.66 225.055 1524.03 223.416 1524.78 222.008C1525.53 220.6 1526.57 219.522 1527.92 218.774C1529.28 218.004 1530.84 217.619 1532.6 217.619C1534.32 217.619 1535.84 217.993 1537.16 218.741C1538.48 219.489 1539.49 220.523 1540.19 221.843C1540.92 223.141 1541.28 224.615 1541.28 226.265ZM1538.18 225.638C1538.18 224.494 1537.93 223.515 1537.42 222.701C1536.91 221.865 1536.22 221.238 1535.34 220.82C1534.48 220.38 1533.53 220.16 1532.47 220.16C1530.95 220.16 1529.65 220.644 1528.58 221.612C1527.52 222.58 1526.92 223.922 1526.76 225.638H1538.18ZM1544.12 226.892C1544.12 225.044 1544.5 223.427 1545.25 222.041C1545.99 220.633 1547.02 219.544 1548.31 218.774C1549.63 218.004 1551.1 217.619 1552.7 217.619C1554.29 217.619 1555.66 217.96 1556.83 218.642C1557.99 219.324 1558.86 220.182 1559.44 221.216V217.916H1562.47V236H1559.44V232.634C1558.84 233.69 1557.95 234.57 1556.76 235.274C1555.6 235.956 1554.23 236.297 1552.67 236.297C1551.06 236.297 1549.61 235.901 1548.31 235.109C1547.02 234.317 1545.99 233.206 1545.25 231.776C1544.5 230.346 1544.12 228.718 1544.12 226.892ZM1559.44 226.925C1559.44 225.561 1559.16 224.373 1558.61 223.361C1558.06 222.349 1557.31 221.579 1556.37 221.051C1555.44 220.501 1554.42 220.226 1553.3 220.226C1552.18 220.226 1551.15 220.49 1550.23 221.018C1549.3 221.546 1548.57 222.316 1548.02 223.328C1547.47 224.34 1547.19 225.528 1547.19 226.892C1547.19 228.278 1547.47 229.488 1548.02 230.522C1548.57 231.534 1549.3 232.315 1550.23 232.865C1551.15 233.393 1552.18 233.657 1553.3 233.657C1554.42 233.657 1555.44 233.393 1556.37 232.865C1557.31 232.315 1558.06 231.534 1558.61 230.522C1559.16 229.488 1559.44 228.289 1559.44 226.925ZM1566.42 226.892C1566.42 225.044 1566.8 223.427 1567.55 222.041C1568.29 220.633 1569.32 219.544 1570.62 218.774C1571.94 218.004 1573.41 217.619 1575.04 217.619C1576.45 217.619 1577.75 217.949 1578.96 218.609C1580.17 219.247 1581.1 220.094 1581.74 221.15V211.58H1584.77V236H1581.74V232.601C1581.14 233.679 1580.26 234.57 1579.1 235.274C1577.93 235.956 1576.57 236.297 1575 236.297C1573.4 236.297 1571.94 235.901 1570.62 235.109C1569.32 234.317 1568.29 233.206 1567.55 231.776C1566.8 230.346 1566.42 228.718 1566.42 226.892ZM1581.74 226.925C1581.74 225.561 1581.46 224.373 1580.91 223.361C1580.36 222.349 1579.61 221.579 1578.67 221.051C1577.74 220.501 1576.72 220.226 1575.6 220.226C1574.48 220.226 1573.45 220.49 1572.53 221.018C1571.61 221.546 1570.87 222.316 1570.32 223.328C1569.77 224.34 1569.49 225.528 1569.49 226.892C1569.49 228.278 1569.77 229.488 1570.32 230.522C1570.87 231.534 1571.61 232.315 1572.53 232.865C1573.45 233.393 1574.48 233.657 1575.6 233.657C1576.72 233.657 1577.74 233.393 1578.67 232.865C1579.61 232.315 1580.36 231.534 1580.91 230.522C1581.46 229.488 1581.74 228.289 1581.74 226.925ZM1591.4 214.979C1590.83 214.979 1590.34 214.781 1589.95 214.385C1589.55 213.989 1589.35 213.505 1589.35 212.933C1589.35 212.361 1589.55 211.877 1589.95 211.481C1590.34 211.085 1590.83 210.887 1591.4 210.887C1591.95 210.887 1592.41 211.085 1592.78 211.481C1593.18 211.877 1593.38 212.361 1593.38 212.933C1593.38 213.505 1593.18 213.989 1592.78 214.385C1592.41 214.781 1591.95 214.979 1591.4 214.979ZM1592.85 217.916V236H1589.85V217.916H1592.85ZM1606.78 217.586C1608.98 217.586 1610.76 218.257 1612.13 219.599C1613.49 220.919 1614.17 222.833 1614.17 225.341V236H1611.2V225.77C1611.2 223.966 1610.75 222.591 1609.85 221.645C1608.95 220.677 1607.71 220.193 1606.15 220.193C1604.57 220.193 1603.3 220.688 1602.36 221.678C1601.43 222.668 1600.97 224.109 1600.97 226.001V236H1597.97V217.916H1600.97V220.49C1601.57 219.566 1602.37 218.851 1603.38 218.345C1604.41 217.839 1605.55 217.586 1606.78 217.586ZM1626.53 217.619C1628.1 217.619 1629.46 217.96 1630.63 218.642C1631.81 219.324 1632.69 220.182 1633.27 221.216V217.916H1636.3V236.396C1636.3 238.046 1635.95 239.509 1635.25 240.785C1634.54 242.083 1633.53 243.095 1632.21 243.821C1630.91 244.547 1629.39 244.91 1627.66 244.91C1625.28 244.91 1623.3 244.349 1621.72 243.227C1620.13 242.105 1619.2 240.576 1618.91 238.64H1621.88C1622.21 239.74 1622.89 240.62 1623.93 241.28C1624.96 241.962 1626.2 242.303 1627.66 242.303C1629.31 242.303 1630.65 241.786 1631.68 240.752C1632.74 239.718 1633.27 238.266 1633.27 236.396V232.601C1632.67 233.657 1631.79 234.537 1630.63 235.241C1629.46 235.945 1628.1 236.297 1626.53 236.297C1624.93 236.297 1623.47 235.901 1622.15 235.109C1620.85 234.317 1619.82 233.206 1619.08 231.776C1618.33 230.346 1617.95 228.718 1617.95 226.892C1617.95 225.044 1618.33 223.427 1619.08 222.041C1619.82 220.633 1620.85 219.544 1622.15 218.774C1623.47 218.004 1624.93 217.619 1626.53 217.619ZM1633.27 226.925C1633.27 225.561 1632.99 224.373 1632.44 223.361C1631.89 222.349 1631.14 221.579 1630.2 221.051C1629.27 220.501 1628.25 220.226 1627.13 220.226C1626.01 220.226 1624.98 220.49 1624.06 221.018C1623.14 221.546 1622.4 222.316 1621.85 223.328C1621.3 224.34 1621.02 225.528 1621.02 226.892C1621.02 228.278 1621.3 229.488 1621.85 230.522C1622.4 231.534 1623.14 232.315 1624.06 232.865C1624.98 233.393 1626.01 233.657 1627.13 233.657C1628.25 233.657 1629.27 233.393 1630.2 232.865C1631.14 232.315 1631.89 231.534 1632.44 230.522C1632.99 229.488 1633.27 228.289 1633.27 226.925Z" fill="white"/>
</svg>
