<svg width="24" height="24" viewBox="0 0 24 24" fill="none" xmlns="http://www.w3.org/2000/svg">
<g id="ci:house-02">
<path id="Vector" d="M2 11.7431V18.4281C2 19.8281 2 20.5281 2.2725 21.0644C2.5125 21.5344 2.89375 21.9169 3.365 22.1556C3.89875 22.4281 4.59875 22.4281 5.99625 22.4281H18.0037C19.4012 22.4281 20.1 22.4281 20.6337 22.1556C21.1044 21.9165 21.4873 21.5345 21.7275 21.0644C22 20.5294 22 19.8306 22 18.4331V11.7431C22 11.0756 22 10.7419 21.9187 10.4306C21.8468 10.1555 21.7285 9.89466 21.5688 9.65938C21.3875 9.39313 21.1375 9.17187 20.6337 8.73312L14.6338 3.48312C13.7013 2.66687 13.2338 2.25812 12.7088 2.10312C12.2463 1.96562 11.7538 1.96562 11.29 2.10312C10.765 2.25812 10.3 2.66562 9.3675 3.48062L3.36625 8.73312C2.86375 9.17312 2.6125 9.39313 2.4325 9.65813C2.27225 9.89373 2.15346 10.155 2.08125 10.4306C2 10.7406 2 11.0756 2 11.7431Z" stroke="#8A8A8E" stroke-width="2" stroke-linecap="round" stroke-linejoin="round"/>
</g>
</svg>
