<svg width="28" height="28" viewBox="0 0 28 28" fill="none" xmlns="http://www.w3.org/2000/svg">
<g id="fi-rr-letter-case">
<path id="Vector" d="M8.63342 6.47802C8.52578 6.2972 8.373 6.14745 8.19005 6.04345C8.00711 5.93945 7.80028 5.88477 7.58984 5.88477C7.3794 5.88477 7.17257 5.93945 6.98963 6.04345C6.80668 6.14745 6.6539 6.2972 6.54626 6.47802L0.12959 19.3114C0.0596897 19.4485 0.0176383 19.5982 0.00585994 19.7517C-0.00591844 19.9053 0.0128092 20.0596 0.0609632 20.2059C0.109117 20.3521 0.185745 20.4874 0.286428 20.6039C0.387111 20.7204 0.509858 20.8158 0.647592 20.8846C0.785326 20.9534 0.935322 20.9943 1.08893 21.0049C1.24254 21.0155 1.39673 20.9956 1.5426 20.9463C1.68847 20.897 1.82314 20.8193 1.93885 20.7177C2.05455 20.6161 2.149 20.4926 2.21676 20.3544L4.22226 16.3329H10.9469L12.9583 20.3544C13.026 20.4926 13.1205 20.6161 13.2362 20.7177C13.3519 20.8193 13.4865 20.897 13.6324 20.9463C13.7783 20.9956 13.9325 21.0155 14.0861 21.0049C14.2397 20.9943 14.3897 20.9534 14.5274 20.8846C14.6652 20.8158 14.7879 20.7204 14.8886 20.6039C14.9893 20.4874 15.0659 20.3521 15.114 20.2059C15.1622 20.0596 15.1809 19.9053 15.1692 19.7517C15.1574 19.5982 15.1153 19.4485 15.0454 19.3114L8.63342 6.47802ZM5.38892 13.9995L7.58342 9.60819L9.78026 13.9995H5.38892Z" fill="#8A8A8E"/>
<path id="Vector_2" d="M26.8332 9.33301C26.5238 9.33301 26.2271 9.45592 26.0083 9.67472C25.7895 9.89351 25.6666 10.1903 25.6666 10.4997V10.53C24.6628 9.7579 23.4329 9.3373 22.1666 9.33301C20.6195 9.33301 19.1358 9.94759 18.0418 11.0416C16.9478 12.1355 16.3333 13.6192 16.3333 15.1663C16.3333 16.7134 16.9478 18.1972 18.0418 19.2911C19.1358 20.3851 20.6195 20.9997 22.1666 20.9997C23.4329 20.9954 24.6628 20.5748 25.6666 19.8027V19.833C25.6666 20.1424 25.7895 20.4392 26.0083 20.658C26.2271 20.8768 26.5238 20.9997 26.8332 20.9997C27.1426 20.9997 27.4394 20.8768 27.6582 20.658C27.877 20.4392 27.9999 20.1424 27.9999 19.833V10.4997C27.9999 10.1903 27.877 9.89351 27.6582 9.67472C27.4394 9.45592 27.1426 9.33301 26.8332 9.33301ZM22.1666 18.6663C21.4743 18.6663 20.7976 18.4611 20.2221 18.0765C19.6465 17.6919 19.1979 17.1453 18.933 16.5057C18.6681 15.8662 18.5988 15.1625 18.7338 14.4835C18.8689 13.8046 19.2022 13.181 19.6917 12.6915C20.1812 12.202 20.8048 11.8686 21.4838 11.7336C22.1627 11.5985 22.8664 11.6679 23.506 11.9328C24.1455 12.1977 24.6921 12.6463 25.0767 13.2218C25.4613 13.7974 25.6666 14.4741 25.6666 15.1663C25.6666 16.0946 25.2978 16.9848 24.6414 17.6412C23.9851 18.2976 23.0948 18.6663 22.1666 18.6663Z" fill="#8A8A8E"/>
</g>
</svg>
