<svg width="24" height="25" viewBox="0 0 24 25" fill="none" xmlns="http://www.w3.org/2000/svg">
<g id="carbon:edge-device">
<path id="Vector" d="M9.875 12.6236C9.87488 12.9448 9.77958 13.2587 9.60114 13.5258C9.42258 13.793 9.16879 14.0013 8.87186 14.1243C8.57493 14.2473 8.2482 14.2795 7.93298 14.2168C7.61776 14.1541 7.32821 13.9993 7.10095 13.772C6.87369 13.5448 6.71893 13.2552 6.65622 12.94C6.59352 12.6248 6.6257 12.2981 6.7487 12.0011C6.87169 11.7042 7.07997 11.4504 7.3472 11.2719C7.61425 11.0934 7.92819 10.9981 8.24937 10.998C8.46332 10.9959 8.67555 11.0365 8.87364 11.1174C9.07193 11.1983 9.25207 11.318 9.40352 11.4695C9.55497 11.6209 9.67467 11.8011 9.75563 11.9994C9.83651 12.1975 9.87709 12.4097 9.875 12.6236ZM9.875 12.6236C9.875 12.6238 9.875 12.6241 9.87499 12.6243L9.75 12.623H9.875C9.875 12.6232 9.875 12.6234 9.875 12.6236ZM17.375 12.6236C17.3771 12.4097 17.3365 12.1974 17.2556 11.9994C17.1747 11.8011 17.055 11.6209 16.9035 11.4695C16.7521 11.318 16.5719 11.1983 16.3736 11.1174C16.1755 11.0365 15.9633 10.9959 15.7494 10.998C15.4282 10.9981 15.1143 11.0934 14.8472 11.2719C14.58 11.4504 14.3717 11.7042 14.2487 12.0011C14.1257 12.2981 14.0935 12.6248 14.1562 12.94C14.2189 13.2552 14.3737 13.5448 14.601 13.772C14.8282 13.9993 15.1178 14.1541 15.433 14.2168C15.7482 14.2795 16.0749 14.2473 16.3719 14.1243C16.6688 14.0013 16.9226 13.793 17.1011 13.5258C17.2796 13.2587 17.3749 12.9448 17.375 12.6236ZM17.375 12.6236C17.375 12.6238 17.375 12.6241 17.375 12.6243L17.25 12.623H17.375C17.375 12.6232 17.375 12.6234 17.375 12.6236ZM6.75 16.248H6.625V16.373V17.873V17.998H6.75H17.25H17.375V17.873V16.373V16.248H17.25H6.75Z" fill="white" stroke="white" stroke-width="0.25"/>
<path id="Vector_2" d="M21.0002 6.49805H21H14.1123L15.4029 5.20743C15.5163 5.23306 15.6322 5.24669 15.7485 5.24804V5.24805H15.75C16.0714 5.24805 16.3856 5.15274 16.6528 4.97419C16.92 4.79563 17.1283 4.54184 17.2513 4.24491C17.3743 3.94798 17.4065 3.62124 17.3438 3.30603C17.2811 2.99081 17.1263 2.70126 16.899 2.474C16.6718 2.24674 16.3822 2.09197 16.067 2.02927C15.7518 1.96657 15.4251 1.99875 15.1281 2.12174C14.8312 2.24474 14.5774 2.45302 14.3989 2.72025C14.2203 2.98748 14.125 3.30165 14.125 3.62305L14.125 3.62451C14.1264 3.7409 14.14 3.85675 14.1656 3.97015L11.6377 6.49805H3H2.99981C2.56908 6.49869 2.15618 6.67008 1.85161 6.97466C1.54704 7.27923 1.37564 7.69213 1.375 8.12286V8.12305L1.375 20.123L1.375 20.1232C1.37564 20.554 1.54704 20.9669 1.85161 21.2714C2.15618 21.576 2.56908 21.7474 2.99981 21.748H3H21H21.0002C21.4309 21.7474 21.8438 21.576 22.1484 21.2714C22.453 20.9669 22.6244 20.554 22.625 20.1232V20.123V8.12305V8.12286C22.6244 7.69213 22.453 7.27923 22.1484 6.97466C21.8438 6.67008 21.4309 6.49869 21.0002 6.49805ZM3.125 19.998V8.24805H20.875V19.998H3.125Z" fill="white" stroke="white" stroke-width="0.25"/>
</g>
</svg>
