<svg width="119" height="87" viewBox="0 0 119 87" fill="none" xmlns="http://www.w3.org/2000/svg">
<g id="code" clip-path="url(#clip0_278_510)">
<g id="Group">
<path id="Vector" d="M75.7273 5.53841C75.4971 6.23072 75.4971 7.15379 75.2669 7.8461C68.1315 32.7692 61.2263 57.4615 54.0909 82.3846C53.4004 84.4615 52.4797 86.3076 50.178 87C48.1064 87.6923 46.4952 87.2307 44.8839 85.6153C43.2727 84.2307 42.8124 82.3846 43.5029 80.3076C45.1141 74.7692 46.4952 69.4615 48.1064 63.923C53.8607 44.0769 59.3849 24.2307 65.1393 4.38456C66.2901 0.461485 70.4333 -1.1539 73.6557 1.15379C75.0368 2.07687 75.7273 3.69225 75.7273 5.53841Z" fill="url(#paint0_linear_278_510)"/>
<path id="Vector_2" d="M105.65 43.6153C105.19 43.1538 104.959 42.923 104.729 42.4615C99.205 36.923 93.6808 31.3845 88.1567 25.8461C86.0851 23.7692 85.6248 20.9999 87.236 18.6922C89.0774 16.1538 92.7601 15.6922 95.0619 17.7692C95.2921 17.9999 95.5222 17.9999 95.5222 18.2307C102.658 25.3845 109.563 32.5384 116.698 39.4615C118.309 41.0769 119 42.923 118.309 44.9999C118.079 45.923 117.619 46.8461 116.928 47.5384C109.793 54.6922 102.658 62.0768 95.2921 69.2307C92.9903 71.5384 89.7679 71.5384 87.6963 69.2307C85.6247 67.1538 85.6247 63.6922 87.6963 61.3845C93.2205 55.8461 98.7447 50.0769 104.499 44.5384C104.959 44.3076 105.42 44.0769 105.65 43.6153Z" fill="url(#paint1_linear_278_510)"/>
<path id="Vector_3" d="M13.1199 43.8461C13.5803 44.0769 14.0406 44.5384 14.2708 44.7692C19.795 50.3076 25.089 55.6153 30.6132 61.1538C32.2244 62.7692 32.9149 64.3845 32.4545 66.4615C31.5338 70.3845 26.7002 71.9999 23.7079 69.4615C23.4778 69.2307 23.2476 69.2307 23.2476 68.9999C16.1122 61.8461 9.20696 54.6922 2.07157 47.7692C-1.50502e-06 45.6922 -0.46035 43.1538 0.920695 40.8461C1.15087 40.3845 1.61122 39.923 1.84139 39.6922C8.97679 32.5384 16.1122 25.3845 23.2476 18.2307C24.8588 16.6153 26.7002 16.1538 29.0019 16.8461C31.0735 17.5384 32.2244 19.1538 32.6847 21.2307C32.9149 22.8461 32.4545 23.9999 31.5338 25.1538C31.0735 25.6153 30.8433 26.0769 30.383 26.5384C25.089 31.8461 19.795 37.1538 14.501 42.4615C14.2708 42.6922 13.8104 42.923 13.3501 43.3845C13.1199 43.6153 13.1199 43.6153 13.1199 43.8461Z" fill="url(#paint2_linear_278_510)"/>
</g>
</g>
<defs>
<linearGradient id="paint0_linear_278_510" x1="59.4597" y1="0.090332" x2="59.4597" y2="87.3115" gradientUnits="userSpaceOnUse">
<stop stop-color="#E8FAFF"/>
<stop offset="0.55" stop-color="#57C8E7"/>
<stop offset="1" stop-color="#3E5FAA"/>
</linearGradient>
<linearGradient id="paint1_linear_278_510" x1="102.359" y1="16.4612" x2="102.359" y2="70.9615" gradientUnits="userSpaceOnUse">
<stop stop-color="#E8FAFF"/>
<stop offset="0.55" stop-color="#57C8E7"/>
<stop offset="1" stop-color="#3E5FAA"/>
</linearGradient>
<linearGradient id="paint2_linear_278_510" x1="16.4373" y1="16.5345" x2="16.4373" y2="70.6838" gradientUnits="userSpaceOnUse">
<stop stop-color="#E8FAFF"/>
<stop offset="0.55" stop-color="#57C8E7"/>
<stop offset="1" stop-color="#3E5FAA"/>
</linearGradient>
<clipPath id="clip0_278_510">
<rect width="119" height="87" fill="white"/>
</clipPath>
</defs>
</svg>
