<svg width="24" height="25" viewBox="0 0 24 25" fill="none" xmlns="http://www.w3.org/2000/svg">
<g id="fluent:people-team-24-filled">
<path id="Vector" d="M14.754 10.623C15.72 10.623 16.504 11.407 16.504 12.373V17.122C16.504 18.3158 16.0298 19.4606 15.1857 20.3047C14.3416 21.1488 13.1967 21.623 12.003 21.623C10.8093 21.623 9.66441 21.1488 8.82031 20.3047C7.97621 19.4606 7.502 18.3158 7.502 17.122V12.373C7.502 11.407 8.285 10.623 9.252 10.623H14.754ZM7.131 10.623C6.77082 11.0565 6.55417 11.5911 6.511 12.153L6.501 12.373V17.122C6.501 17.969 6.693 18.771 7.035 19.487C6.44228 19.6456 5.82103 19.6657 5.21929 19.5459C4.61756 19.426 4.05145 19.1693 3.56475 18.7957C3.07805 18.4221 2.68379 17.9416 2.41246 17.3913C2.14114 16.841 2.00001 16.2356 2 15.622V12.373C2.00002 11.9339 2.16517 11.5107 2.46268 11.1877C2.76019 10.8646 3.1683 10.6652 3.606 10.629L3.75 10.623H7.131ZM16.875 10.623H20.25C21.216 10.623 22 11.407 22 12.373V15.623C22.0001 16.2362 21.8593 16.8412 21.5884 17.3913C21.3175 17.9413 20.9237 18.4218 20.4376 18.7954C19.9514 19.1691 19.3858 19.426 18.7846 19.5462C18.1833 19.6665 17.5625 19.6469 16.97 19.489C17.27 18.861 17.454 18.169 17.495 17.437L17.504 17.122V12.373C17.504 11.708 17.269 11.098 16.875 10.623ZM12 3.62305C12.7956 3.62305 13.5587 3.93912 14.1213 4.50173C14.6839 5.06434 15 5.8274 15 6.62305C15 7.4187 14.6839 8.18176 14.1213 8.74437C13.5587 9.30698 12.7956 9.62305 12 9.62305C11.2044 9.62305 10.4413 9.30698 9.87868 8.74437C9.31607 8.18176 9 7.4187 9 6.62305C9 5.8274 9.31607 5.06434 9.87868 4.50173C10.4413 3.93912 11.2044 3.62305 12 3.62305ZM18.5 4.62305C19.163 4.62305 19.7989 4.88644 20.2678 5.35528C20.7366 5.82412 21 6.46001 21 7.12305C21 7.78609 20.7366 8.42197 20.2678 8.89081C19.7989 9.35965 19.163 9.62305 18.5 9.62305C17.837 9.62305 17.2011 9.35965 16.7322 8.89081C16.2634 8.42197 16 7.78609 16 7.12305C16 6.46001 16.2634 5.82412 16.7322 5.35528C17.2011 4.88644 17.837 4.62305 18.5 4.62305ZM5.5 4.62305C6.16304 4.62305 6.79893 4.88644 7.26777 5.35528C7.73661 5.82412 8 6.46001 8 7.12305C8 7.78609 7.73661 8.42197 7.26777 8.89081C6.79893 9.35965 6.16304 9.62305 5.5 9.62305C4.83696 9.62305 4.20107 9.35965 3.73223 8.89081C3.26339 8.42197 3 7.78609 3 7.12305C3 6.46001 3.26339 5.82412 3.73223 5.35528C4.20107 4.88644 4.83696 4.62305 5.5 4.62305Z" fill="white"/>
</g>
</svg>
