<?xml version="1.0" encoding="utf-8"?>
<!-- Generator: Adobe Illustrator 23.0.5, SVG Export Plug-In . SVG Version: 6.00 Build 0)  -->
<svg version="1.1" id="Layer_1" xmlns="http://www.w3.org/2000/svg" xmlns:xlink="http://www.w3.org/1999/xlink" x="0px" y="0px"
	 viewBox="0 0 1190.6 841.9" style="enable-background:new 0 0 1190.6 841.9;" xml:space="preserve">
<style type="text/css">
	.st0{opacity:0.35;fill:#6D6E6E;}
	.st1{fill:#606161;}
	.st2{fill:#F9F9FA;}
	.st3{font-family:'Gontserrat-Medium';}
	.st4{font-size:14px;}
	.st5{fill:#E5E5E5;stroke:url(#SVGID_1_);stroke-width:0.5;stroke-miterlimit:10;}
	.st6{fill:#212121;}
	.st7{fill:#E5E5E5;stroke:url(#SVGID_2_);stroke-width:0.5;stroke-miterlimit:10;}
	.st8{font-size:16px;}
	.st9{fill:#E5E5E5;stroke:url(#SVGID_3_);stroke-width:0.5;stroke-miterlimit:10;}
	.st10{fill:#E5E5E5;stroke:url(#SVGID_4_);stroke-width:0.5;stroke-miterlimit:10;}
	.st11{fill:#E5E5E5;stroke:url(#SVGID_5_);stroke-width:0.5;stroke-miterlimit:10;}
	.st12{fill:#E5E5E5;stroke:url(#SVGID_6_);stroke-width:0.5;stroke-miterlimit:10;}
	.st13{fill:#E5E5E5;stroke:url(#SVGID_7_);stroke-width:0.5;stroke-miterlimit:10;}
	.st14{fill:#E5E5E5;stroke:url(#SVGID_8_);stroke-width:0.5;stroke-miterlimit:10;}
	.st15{fill:#E5E5E5;stroke:url(#SVGID_9_);stroke-width:0.5;stroke-miterlimit:10;}
	.st16{fill:#E5E5E5;stroke:url(#SVGID_10_);stroke-width:0.5;stroke-miterlimit:10;}
	.st17{fill:#E5E5E5;stroke:url(#SVGID_11_);stroke-width:0.5;stroke-miterlimit:10;}
	.st18{fill:url(#SVGID_12_);}
	.st19{fill:#E5E5E5;}
	.st20{fill:url(#SVGID_13_);}
	.st21{fill:url(#SVGID_14_);}
	.st22{fill:url(#SVGID_15_);}
	.st23{fill:#C0BFBF;}
	.st24{fill:#E5E5E5;stroke:url(#SVGID_16_);stroke-width:0.5;stroke-miterlimit:10;}
	.st25{fill:#E5E5E5;stroke:url(#SVGID_17_);stroke-width:0.5;stroke-miterlimit:10;}
	.st26{fill:#E5E5E5;stroke:url(#SVGID_18_);stroke-width:0.5;stroke-miterlimit:10;}
	.st27{font-size:8px;}
	.st28{font-size:14.5px;}
	.st29{fill:url(#SVGID_19_);}
	.st30{fill:#59C9E6;}
	.st31{fill:#4EAEC8;}
	.st32{fill:#4061A9;}
	.st33{fill:#EAE9E8;}
</style>
<path class="st0" d="M837.9,645.8h-483c-9.3,0-16.9-7.6-16.9-16.9V276.8c0-9.3,7.6-16.9,16.9-16.9h483c9.3,0,16.9,7.6,16.9,16.9
	v352.1C854.8,638.2,847.2,645.8,837.9,645.8z"/>
<path class="st0" d="M837.9,212.7h-483c-9.3,0-16.9-7.6-16.9-16.9v-35.6c0-9.3,7.6-16.9,16.9-16.9h483c9.3,0,16.9,7.6,16.9,16.9
	v35.6C854.8,205.1,847.2,212.7,837.9,212.7z"/>
<path class="st0" d="M271.1,645.8H71.7c-9.3,0-16.9-7.6-16.9-16.9V276.8c0-9.3,7.6-16.9,16.9-16.9h199.4c9.3,0,16.9,7.6,16.9,16.9
	v352.1C288,638.2,280.5,645.8,271.1,645.8z"/>
<g>
	<path class="st1" d="M797.9,422.5H689.6c-17.9,0-32.5-14.5-32.5-32.5v0c0-17.9,14.5-32.5,32.5-32.5h108.3
		c17.9,0,32.5,14.5,32.5,32.5v0C830.4,407.9,815.8,422.5,797.9,422.5z"/>
	<text transform="matrix(1 0 0 1 725.2101 385.607)"><tspan x="0" y="0" class="st2 st3 st4">Output post</tspan><tspan x="0" y="16.8" class="st2 st3 st4">processing</tspan></text>
	<linearGradient id="SVGID_1_" gradientUnits="userSpaceOnUse" x1="664.2188" y1="389.9901" x2="715.3861" y2="389.9901">
		<stop  offset="0" style="stop-color:#212121"/>
		<stop  offset="0.1295" style="stop-color:#232325"/>
		<stop  offset="0.3141" style="stop-color:#28262F"/>
		<stop  offset="0.5317" style="stop-color:#2D2A3D"/>
		<stop  offset="0.7725" style="stop-color:#322B52"/>
		<stop  offset="1" style="stop-color:#342868"/>
	</linearGradient>
	<circle class="st5" cx="689.8" cy="390" r="25.3"/>
	<g>
		<g>
			<path class="st6" d="M698.4,387.3c-0.6,0-1.2,0-1.7,0c-0.5,0-0.9,0.2-1.3,0.5c-0.2,0.2-0.4,0.5-0.5,0.7c-0.3,0.6-0.5,1.1-0.8,1.7
				c-0.2-0.2-0.5-0.3-0.7-0.5c-0.1-0.1-0.3-0.2-0.4-0.3c-0.7-0.4-1.6-0.3-2.2,0.3c-0.4,0.3-0.7,0.7-1.1,1.1
				c-0.6,0.6-0.7,1.6-0.2,2.3c0.2,0.4,0.5,0.7,0.7,1c0,0.1,0.1,0.1,0.1,0.2c-0.3,0.1-0.6,0.2-0.9,0.3c-0.4,0.1-0.7,0.3-1.1,0.4
				c-0.7,0.3-1,0.8-1,1.5c0,0.6,0,1.2,0,1.7c0,0.1,0,0.1,0,0.2c-0.1,0-0.3,0.1-0.4,0.1c-0.6,0-1.3,0-1.9,0c-0.6,0-1-0.3-1.1-0.9
				c-0.1-0.7-0.3-1.4-0.4-2c0-0.1,0-0.1,0-0.2c-0.1-0.4-0.3-0.6-0.6-0.8c-0.3-0.1-0.5-0.2-0.8-0.3c-0.4-0.2-0.7-0.1-1.1,0.1
				c-0.6,0.4-1.2,0.8-1.7,1.2c-0.2,0.2-0.5,0.2-0.7,0.2c-0.2,0-0.5-0.1-0.6-0.2c-0.1-0.1-0.3-0.3-0.4-0.4c-0.3-0.3-0.7-0.6-1-1
				c-0.4-0.5-0.5-0.9-0.1-1.5c0.4-0.6,0.8-1.1,1.2-1.7c0.3-0.4,0.3-0.8,0.1-1.2c-0.1-0.2-0.2-0.5-0.3-0.7c-0.2-0.4-0.4-0.6-0.8-0.7
				c-0.7-0.1-1.4-0.3-2.1-0.4c-0.6-0.1-0.9-0.6-0.9-1.1c0-0.6,0-1.2,0-1.8c0-0.5,0.3-1,1-1.1c0.7-0.1,1.4-0.3,2.1-0.4
				c0.4-0.1,0.7-0.3,0.8-0.7c0.1-0.3,0.2-0.5,0.3-0.8c0.2-0.4,0.1-0.7-0.1-1.1c-0.4-0.6-0.8-1.2-1.2-1.8c-0.2-0.3-0.3-0.7-0.2-1
				c0.1-0.1,0.2-0.3,0.3-0.4c0.4-0.5,0.9-0.9,1.3-1.4c0.4-0.4,1-0.4,1.4-0.1c0.5,0.4,1,0.7,1.6,1.1c0.1,0.1,0.2,0.1,0.3,0.2
				c0.3,0.2,0.6,0.3,1,0.1c0.3-0.1,0.6-0.3,0.9-0.4c0.3-0.1,0.5-0.4,0.6-0.7c0.1-0.6,0.2-1.1,0.3-1.7c0-0.2,0.1-0.4,0.1-0.6
				c0.1-0.5,0.5-0.9,1-0.9c0.7,0,1.3,0,2,0c0.5,0,0.9,0.4,1,0.9c0.1,0.7,0.3,1.4,0.4,2c0,0.1,0,0.2,0.1,0.3c0.1,0.3,0.3,0.6,0.6,0.7
				c0.3,0.1,0.6,0.2,0.8,0.3c0.4,0.2,0.7,0.1,1.1-0.1c0.6-0.4,1.1-0.8,1.7-1.2c0.2-0.1,0.4-0.2,0.7-0.2c0.3,0,0.5,0.1,0.7,0.3
				c0.5,0.5,1,1,1.4,1.4c0.3,0.4,0.4,0.8,0.1,1.3c-0.2,0.3-0.3,0.5-0.5,0.8c-0.3,0.4-0.5,0.7-0.8,1.1c-0.2,0.3-0.3,0.7-0.1,1.1
				c0.1,0.2,0.2,0.5,0.3,0.8c0.2,0.4,0.4,0.6,0.8,0.7c0.7,0.1,1.4,0.3,2.1,0.4c0.3,0.1,0.5,0.1,0.7,0.4c0.1,0.2,0.2,0.3,0.2,0.6
				C698.4,385.8,698.4,386.6,698.4,387.3z M689.9,386.2c0-2-1.6-4-4-4c-2.4,0-4,1.9-4,4c0,2.1,1.7,4,4,4
				C688.2,390.2,689.9,388.3,689.9,386.2z"/>
			<path class="st6" d="M692,390.5c0.1,0.1,0.3,0.1,0.4,0.2c0.4,0.3,0.8,0.5,1.2,0.8c0.4,0.3,0.7,0.3,1.1,0.1
				c0.2-0.1,0.3-0.1,0.5-0.2c0.3-0.1,0.5-0.4,0.6-0.7c0.1-0.5,0.2-1,0.3-1.5c0.1-0.4,0.3-0.6,0.7-0.6c0.4,0,0.8,0,1.2,0
				c0.4,0,0.6,0.1,0.6,0.5c0.1,0.4,0.2,0.9,0.2,1.3c0.1,0.5,0.3,0.8,0.8,1c0.2,0,0.3,0.1,0.5,0.2c0.3,0.1,0.6,0.1,0.9-0.1
				c0.4-0.3,0.8-0.5,1.2-0.8c0.3-0.2,0.7-0.2,0.9,0.1c0.3,0.3,0.6,0.6,0.8,0.8c0.3,0.3,0.3,0.5,0.1,0.9c-0.3,0.4-0.5,0.8-0.8,1.2
				c-0.2,0.3-0.3,0.7-0.1,1.1c0.1,0.2,0.1,0.3,0.2,0.5c0.1,0.3,0.4,0.6,0.7,0.6c0.5,0.1,1,0.2,1.5,0.3c0.4,0.1,0.6,0.3,0.6,0.7
				c0,0.4,0,0.8,0,1.2c0,0.4-0.2,0.6-0.5,0.7c-0.5,0.1-0.9,0.2-1.4,0.3c-0.4,0.1-0.7,0.3-0.9,0.7c-0.1,0.2-0.1,0.3-0.2,0.5
				c-0.1,0.3-0.1,0.6,0.1,0.9c0.3,0.4,0.6,0.8,0.8,1.2c0.2,0.3,0.2,0.6-0.1,0.9c-0.3,0.3-0.6,0.6-0.8,0.8c-0.3,0.3-0.5,0.3-0.9,0.1
				c-0.4-0.3-0.8-0.5-1.1-0.8c-0.4-0.3-0.7-0.3-1.1-0.1c-0.1,0.1-0.3,0.1-0.5,0.2c-0.3,0.1-0.5,0.4-0.6,0.7c-0.1,0.5-0.2,1-0.3,1.5
				c-0.1,0.4-0.3,0.6-0.7,0.6c-0.4,0-0.8,0-1.2,0c-0.4,0-0.6-0.2-0.7-0.6c-0.1-0.5-0.2-0.9-0.3-1.4c-0.1-0.4-0.3-0.7-0.7-0.8
				c-0.2-0.1-0.3-0.1-0.5-0.2c-0.3-0.2-0.7-0.1-1,0.1c-0.4,0.3-0.8,0.5-1.1,0.8c-0.1,0-0.1,0.1-0.2,0.1c-0.3,0.2-0.5,0.2-0.7-0.1
				c-0.3-0.3-0.7-0.6-1-1c-0.2-0.2-0.2-0.5-0.1-0.7c0.3-0.4,0.5-0.8,0.8-1.2c0.1-0.1,0.1-0.2,0.2-0.3c0.1-0.2,0.1-0.5,0.1-0.7
				c-0.1-0.2-0.2-0.5-0.3-0.7c-0.1-0.3-0.3-0.5-0.6-0.5c-0.5-0.1-1-0.2-1.5-0.3c-0.4-0.1-0.6-0.2-0.6-0.7c0-0.4,0-0.8,0-1.2
				c0-0.4,0.2-0.6,0.6-0.6c0.5-0.1,1-0.2,1.5-0.3c0.4-0.1,0.6-0.3,0.8-0.6c0.1-0.2,0.1-0.4,0.2-0.5c0.2-0.3,0.1-0.7-0.1-1
				c-0.3-0.4-0.6-0.8-0.8-1.2c-0.2-0.4-0.2-0.6,0.1-0.9c0.3-0.3,0.6-0.6,0.9-0.9C691.7,390.7,691.8,390.6,692,390.5z M700.6,397.4
				c0-1.7-1.4-3.2-3.3-3.3c-1.7,0-3.3,1.4-3.3,3.2c0,1.9,1.6,3.3,3.3,3.3C699.1,400.7,700.7,399.3,700.6,397.4z"/>
		</g>
	</g>
</g>
<g>
	<linearGradient id="SVGID_2_" gradientUnits="userSpaceOnUse" x1="79.5546" y1="306.4367" x2="263.2713" y2="306.4367">
		<stop  offset="0" style="stop-color:#212121"/>
		<stop  offset="0.1295" style="stop-color:#232325"/>
		<stop  offset="0.3141" style="stop-color:#28262F"/>
		<stop  offset="0.5317" style="stop-color:#2D2A3D"/>
		<stop  offset="0.7725" style="stop-color:#322B52"/>
		<stop  offset="1" style="stop-color:#342868"/>
	</linearGradient>
	<path class="st7" d="M252.9,326.4h-163c-5.6,0-10.1-4.5-10.1-10.1v-19.8c0-5.6,4.5-10.1,10.1-10.1h163c5.6,0,10.1,4.5,10.1,10.1
		v19.8C263,321.9,258.5,326.4,252.9,326.4z"/>
	<g>
		<text transform="matrix(1 0 0 1 122.1095 310.8845)" class="st3 st8">Upload data</text>
	</g>
</g>
<g>
	<linearGradient id="SVGID_3_" gradientUnits="userSpaceOnUse" x1="79.5546" y1="405.0031" x2="263.2713" y2="405.0031">
		<stop  offset="0" style="stop-color:#212121"/>
		<stop  offset="0.1295" style="stop-color:#232325"/>
		<stop  offset="0.3141" style="stop-color:#28262F"/>
		<stop  offset="0.5317" style="stop-color:#2D2A3D"/>
		<stop  offset="0.7725" style="stop-color:#322B52"/>
		<stop  offset="1" style="stop-color:#342868"/>
	</linearGradient>
	<path class="st9" d="M252.9,425h-163c-5.6,0-10.1-4.5-10.1-10.1v-19.8c0-5.6,4.5-10.1,10.1-10.1h163c5.6,0,10.1,4.5,10.1,10.1v19.8
		C263,420.5,258.5,425,252.9,425z"/>
	<g>
		<text transform="matrix(1 0 0 1 149.7658 409.451)" class="st3 st8">Label</text>
	</g>
</g>
<g>
	<linearGradient id="SVGID_4_" gradientUnits="userSpaceOnUse" x1="79.5546" y1="502.0068" x2="263.2713" y2="502.0068">
		<stop  offset="0" style="stop-color:#212121"/>
		<stop  offset="0.1295" style="stop-color:#232325"/>
		<stop  offset="0.3141" style="stop-color:#28262F"/>
		<stop  offset="0.5317" style="stop-color:#2D2A3D"/>
		<stop  offset="0.7725" style="stop-color:#322B52"/>
		<stop  offset="1" style="stop-color:#342868"/>
	</linearGradient>
	<path class="st10" d="M252.9,522h-163c-5.6,0-10.1-4.5-10.1-10.1v-19.8c0-5.6,4.5-10.1,10.1-10.1h163c5.6,0,10.1,4.5,10.1,10.1
		v19.8C263,517.5,258.5,522,252.9,522z"/>
	<g>
		<text transform="matrix(1 0 0 1 151.5255 506.4547)" class="st3 st8">Train</text>
	</g>
</g>
<g>
	<linearGradient id="SVGID_5_" gradientUnits="userSpaceOnUse" x1="79.5546" y1="597.5164" x2="263.2713" y2="597.5164">
		<stop  offset="0" style="stop-color:#212121"/>
		<stop  offset="0.1295" style="stop-color:#232325"/>
		<stop  offset="0.3141" style="stop-color:#28262F"/>
		<stop  offset="0.5317" style="stop-color:#2D2A3D"/>
		<stop  offset="0.7725" style="stop-color:#322B52"/>
		<stop  offset="1" style="stop-color:#342868"/>
	</linearGradient>
	<path class="st11" d="M252.9,617.5h-163c-5.6,0-10.1-4.5-10.1-10.1v-19.8c0-5.6,4.5-10.1,10.1-10.1h163c5.6,0,10.1,4.5,10.1,10.1
		v19.8C263,613,258.5,617.5,252.9,617.5z"/>
	<g>
		<text transform="matrix(1 0 0 1 136.8297 601.9644)" class="st3 st8">Evaluate</text>
	</g>
</g>
<g>
	<path class="st1" d="M578.2,617.5H383.5c-10.5,0-19.1-8.5-19.1-19.1v-293c0-10.5,8.5-19.1,19.1-19.1h194.7
		c10.5,0,19.1,8.5,19.1,19.1v293C597.2,609,588.7,617.5,578.2,617.5z"/>
	<g>
		<text transform="matrix(1 0 0 1 439.9279 320.6378)"><tspan x="0" y="0" class="st2 st3 st8">Visual Inspection</tspan><tspan x="0" y="19.2" class="st2 st3 st8">AI Models</tspan></text>
	</g>
	<g>
		<linearGradient id="SVGID_6_" gradientUnits="userSpaceOnUse" x1="376.7252" y1="323.6379" x2="427.8925" y2="323.6379">
			<stop  offset="0" style="stop-color:#212121"/>
			<stop  offset="0.1295" style="stop-color:#232325"/>
			<stop  offset="0.3141" style="stop-color:#28262F"/>
			<stop  offset="0.5317" style="stop-color:#2D2A3D"/>
			<stop  offset="0.7725" style="stop-color:#322B52"/>
			<stop  offset="1" style="stop-color:#342868"/>
		</linearGradient>
		<circle class="st12" cx="402.3" cy="323.6" r="25.3"/>
		<g>
			<g>
				<path class="st6" d="M402.9,330.4c0,1.2,0,2.4,0,3.6c1.2,0.6,1.8,1.5,1.5,2.6c-0.2,1-1.1,1.7-2.1,1.7c-1,0-1.9-0.7-2.1-1.7
					c-0.3-1.1,0.3-2,1.5-2.6c0-1.2,0-2.4,0-3.6c-2.2-0.3-3.9-1.3-5.2-3.2c-0.9-1.3-1.2-2.8-1-4.4c0.3-2.8,2.5-5.6,6.2-6.1
					c0-1.2,0-2.4,0-3.7c-0.6-0.2-1.1-0.6-1.4-1.2c-0.2-0.5-0.2-0.9-0.1-1.4c0.3-1,1.2-1.6,2.2-1.6c1,0,1.9,0.8,2.1,1.7
					c0.2,1.1-0.4,2.1-1.5,2.5c0,1.2,0,2.4,0,3.7c2,0.2,3.7,1.2,4.9,2.8c0.9,1.2,1.3,2.6,1.3,4.1C409.1,327,406.6,330,402.9,330.4z
					 M402.4,327.4c2.3-0.1,4-2.1,3.6-4.4c-0.1-0.6-0.4-0.7-0.9-0.6c-0.2,0.1-0.4,0.1-0.6,0.1c-0.6-0.1-0.9-0.8-0.6-1.4
					c0.2-0.5,0.1-0.8-0.4-1c-0.5-0.1-1-0.2-1.5-0.1c-1.9,0.2-3.5,1.9-3.3,3.9C398.7,325.9,400.4,327.4,402.4,327.4z M402.3,337.2
					c0.5,0,1-0.4,1-1c0-0.5-0.4-1-1-1c-0.5,0-1,0.4-1,1C401.3,336.7,401.7,337.2,402.3,337.2z M403.3,311.1c0-0.5-0.5-1-1-1
					c-0.5,0-1,0.4-1,1c0,0.5,0.4,1,1,1C402.8,312.1,403.3,311.7,403.3,311.1z"/>
				<path class="st6" d="M407.9,317.8c0.5,0.2,1,0.4,1.5,0.6c0-0.2,0-0.3,0-0.5c0-1.1,0-2.1,0-3.2c0-1.8,0-1.7,1.7-1.7
					c0.5,0,1.1,0,1.7,0c0.3-0.7,0.7-1.2,1.4-1.5c0.5-0.2,0.9-0.2,1.4,0c1,0.3,1.6,1.2,1.5,2.2c-0.1,1-0.8,1.8-1.7,2
					c-1.1,0.2-1.9-0.3-2.5-1.5c-0.7,0-1.4,0-2.1,0c0,1.6,0,3.1,0,4.7c0.5,0.3,1,0.6,1.6,0.9c1.6,0.9,3.1,2,4.4,3.2
					c0.1,0.1,0.1,0.1,0.2,0.2c0.4,0.4,0.4,0.7,0,1c-0.6,0.5-1.2,1-1.8,1.5c-1.3,1-2.6,1.8-4.1,2.5c-0.1,0-0.2,0.1-0.3,0.1
					c0,1.6,0,3.1,0,4.7c0.7,0,1.4,0,2.1,0c0.6-1.3,1.5-1.8,2.6-1.5c1,0.3,1.7,1.1,1.7,2.2c0,1-0.7,1.9-1.7,2.1
					c-1.1,0.3-2-0.3-2.6-1.5c-0.5,0-0.9,0-1.4,0c-0.4,0-0.8,0-1.2,0c-0.5,0-0.7-0.2-0.7-0.8c0-0.1,0-0.2,0-0.3c0-1.3,0-2.6,0-3.8
					c0-0.2,0-0.3,0-0.5c-0.6,0.2-1.1,0.4-1.6,0.6c1.5-1.7,2.4-3.6,2.4-5.9C410.3,321.4,409.4,319.4,407.9,317.8
					C407.9,317.8,407.9,317.8,407.9,317.8z M414.9,332.7c-0.5,0-1,0.4-1,1c0,0.5,0.5,1,1,1c0.6,0,1-0.5,1-1
					C415.9,333.1,415.5,332.7,414.9,332.7z M415,314.5c0.6,0,1-0.4,1-1c0-0.6-0.5-1-1-1c-0.5,0-1,0.5-1,1
					C413.9,314.1,414.4,314.6,415,314.5z"/>
				<path class="st6" d="M396.7,329.5c-0.5-0.2-1-0.4-1.6-0.6c0,0.2,0,0.4,0,0.5c0,1.3,0,2.7,0,4c0,0.7-0.2,0.9-0.9,0.9
					c-0.8,0-1.7,0-2.5,0c-0.7,1.3-1.6,1.8-2.7,1.5c-1-0.2-1.6-1.1-1.6-2.2c0-1,0.7-1.9,1.7-2.1c1.1-0.2,2,0.3,2.6,1.5
					c0.7,0,1.4,0,2.1,0c0-1.6,0-3.1,0-4.7c-0.4-0.2-0.7-0.4-1.1-0.6c-1.8-1-3.4-2.2-5-3.5c0,0,0,0-0.1-0.1c-0.4-0.4-0.4-0.7,0-1.1
					c0.5-0.5,1.1-1,1.7-1.4c1.3-1,2.7-1.9,4.1-2.6c0.1-0.1,0.2-0.1,0.3-0.2c0-1.6,0-3.1,0-4.7c-0.7,0-1.4,0-2.2,0
					c-0.2,0.6-0.6,1.1-1.2,1.4c-0.4,0.2-0.9,0.2-1.4,0.1c-1-0.2-1.7-1.1-1.7-2.2c0-1,0.7-1.9,1.7-2.1c1.1-0.3,2,0.3,2.6,1.5
					c0.4,0,0.9,0,1.3,0c0.4,0,0.9,0,1.3,0c0.5,0,0.7,0.2,0.8,0.8c0,0.1,0,0.2,0,0.3c0,1.3,0,2.6,0,3.8c0,0.2,0,0.3,0,0.5
					c0.6-0.2,1.1-0.4,1.6-0.6C393.5,321,393.5,326.3,396.7,329.5z M388.7,333.7c0,0.6,0.4,1,1,1c0.5,0,1-0.5,1-1c0-0.6-0.4-1-1-1
					C389.1,332.7,388.7,333.1,388.7,333.7z M388.7,313.5c0,0.6,0.4,1,0.9,1c0.6,0,1-0.4,1.1-0.9c0-0.5-0.4-1-1-1.1
					C389.2,312.5,388.7,313,388.7,313.5z"/>
				<path class="st6" d="M404.9,323.7c0,1.4-1.3,2.6-2.7,2.5c-1.5-0.1-2.6-1.4-2.4-2.8c0.1-1.4,1.4-2.5,2.7-2.3
					C402.6,322.9,403.2,323.5,404.9,323.7z"/>
			</g>
		</g>
	</g>
	<linearGradient id="SVGID_7_" gradientUnits="userSpaceOnUse" x1="378.7876" y1="392.5189" x2="582.8541" y2="392.5189">
		<stop  offset="0" style="stop-color:#212121"/>
		<stop  offset="0.1295" style="stop-color:#232325"/>
		<stop  offset="0.3141" style="stop-color:#28262F"/>
		<stop  offset="0.5317" style="stop-color:#2D2A3D"/>
		<stop  offset="0.7725" style="stop-color:#322B52"/>
		<stop  offset="1" style="stop-color:#342868"/>
	</linearGradient>
	<path class="st13" d="M574.7,412.5H386.9c-4.4,0-7.9-3.5-7.9-7.9v-24.3c0-4.4,3.5-7.9,7.9-7.9h187.8c4.4,0,7.9,3.5,7.9,7.9v24.3
		C582.6,409,579.1,412.5,574.7,412.5z"/>
	<g>
		<text transform="matrix(1 0 0 1 444.9972 396.9667)" class="st6 st3 st8">Model 01</text>
	</g>
	<linearGradient id="SVGID_8_" gradientUnits="userSpaceOnUse" x1="378.7876" y1="439.7689" x2="582.8541" y2="439.7689">
		<stop  offset="0" style="stop-color:#212121"/>
		<stop  offset="0.1295" style="stop-color:#232325"/>
		<stop  offset="0.3141" style="stop-color:#28262F"/>
		<stop  offset="0.5317" style="stop-color:#2D2A3D"/>
		<stop  offset="0.7725" style="stop-color:#322B52"/>
		<stop  offset="1" style="stop-color:#342868"/>
	</linearGradient>
	<path class="st14" d="M574.7,459.8H386.9c-4.4,0-7.9-3.5-7.9-7.9v-24.3c0-4.4,3.5-7.9,7.9-7.9h187.8c4.4,0,7.9,3.5,7.9,7.9v24.3
		C582.6,456.2,579.1,459.8,574.7,459.8z"/>
	<g>
		<text transform="matrix(1 0 0 1 443.3336 444.2168)" class="st6 st3 st8">Model 02</text>
	</g>
	<linearGradient id="SVGID_9_" gradientUnits="userSpaceOnUse" x1="378.7876" y1="487.0189" x2="582.8541" y2="487.0189">
		<stop  offset="0" style="stop-color:#212121"/>
		<stop  offset="0.1295" style="stop-color:#232325"/>
		<stop  offset="0.3141" style="stop-color:#28262F"/>
		<stop  offset="0.5317" style="stop-color:#2D2A3D"/>
		<stop  offset="0.7725" style="stop-color:#322B52"/>
		<stop  offset="1" style="stop-color:#342868"/>
	</linearGradient>
	<path class="st15" d="M574.7,507H386.9c-4.4,0-7.9-3.5-7.9-7.9v-24.3c0-4.4,3.5-7.9,7.9-7.9h187.8c4.4,0,7.9,3.5,7.9,7.9v24.3
		C582.6,503.5,579.1,507,574.7,507z"/>
	<g>
		<text transform="matrix(1 0 0 1 443.3092 491.4668)" class="st6 st3 st8">Model 03</text>
	</g>
	<linearGradient id="SVGID_10_" gradientUnits="userSpaceOnUse" x1="378.7876" y1="534.2689" x2="582.8541" y2="534.2689">
		<stop  offset="0" style="stop-color:#212121"/>
		<stop  offset="0.1295" style="stop-color:#232325"/>
		<stop  offset="0.3141" style="stop-color:#28262F"/>
		<stop  offset="0.5317" style="stop-color:#2D2A3D"/>
		<stop  offset="0.7725" style="stop-color:#322B52"/>
		<stop  offset="1" style="stop-color:#342868"/>
	</linearGradient>
	<path class="st16" d="M574.7,554.3H386.9c-4.4,0-7.9-3.5-7.9-7.9v-24.3c0-4.4,3.5-7.9,7.9-7.9h187.8c4.4,0,7.9,3.5,7.9,7.9v24.3
		C582.6,550.7,579.1,554.3,574.7,554.3z"/>
	<g>
		<text transform="matrix(1 0 0 1 443.2536 538.7168)" class="st6 st3 st8">Model 04</text>
	</g>
	<linearGradient id="SVGID_11_" gradientUnits="userSpaceOnUse" x1="378.7876" y1="581.5189" x2="582.8541" y2="581.5189">
		<stop  offset="0" style="stop-color:#212121"/>
		<stop  offset="0.1295" style="stop-color:#232325"/>
		<stop  offset="0.3141" style="stop-color:#28262F"/>
		<stop  offset="0.5317" style="stop-color:#2D2A3D"/>
		<stop  offset="0.7725" style="stop-color:#322B52"/>
		<stop  offset="1" style="stop-color:#342868"/>
	</linearGradient>
	<path class="st17" d="M574.7,601.5H386.9c-4.4,0-7.9-3.5-7.9-7.9v-24.3c0-4.4,3.5-7.9,7.9-7.9h187.8c4.4,0,7.9,3.5,7.9,7.9v24.3
		C582.6,598,579.1,601.5,574.7,601.5z"/>
	<g>
		<text transform="matrix(1 0 0 1 448.3737 585.9668)" class="st6 st3 st8">Model n</text>
	</g>
</g>
<linearGradient id="SVGID_12_" gradientUnits="userSpaceOnUse" x1="927.9687" y1="387.662" x2="1125.5256" y2="387.662">
	<stop  offset="0" style="stop-color:#322868"/>
	<stop  offset="1" style="stop-color:#342868"/>
</linearGradient>
<path class="st18" d="M1101.3,411.9H952.2c-13.4,0-24.2-10.8-24.2-24.2v0c0-13.4,10.8-24.2,24.2-24.2h149.2
	c13.4,0,24.2,10.8,24.2,24.2v0C1125.5,401,1114.7,411.9,1101.3,411.9z"/>
<g>
	<circle class="st19" cx="952.1" cy="387.7" r="19.6"/>
	<path class="st6" d="M953.8,397.4c0.1,0,0.2,0,0.2,0c0.9,0,3.5,0,4.4,0c0.1,0,0.2,0,0.3,0c0.3,0.1,0.5,0.3,0.5,0.6
		c0,0.3-0.2,0.5-0.6,0.6c-0.1,0-0.1,0-0.2,0c-4.4,0-10.5,0-14.9,0c-0.1,0-0.2,0-0.2,0c-0.3,0-0.5-0.3-0.5-0.6c0-0.3,0.2-0.5,0.5-0.6
		c0.1,0,0.2,0,0.3,0c1.4,0,2.9,0,4.3,0c0.1,0,0.2,0,0.3,0c0-0.1-0.1-0.1-0.2-0.2c-1.1-1.1-2.2-2.2-3.4-3.4c-0.3-0.3-0.5-0.6-0.6-0.9
		c-0.2-0.7,0-1.3,0.4-1.9c0.1-0.1,0.1-0.1,0.2-0.2c1-1,2-2,3.1-3.1c0.1-0.1,0.1-0.1,0.2-0.2c0-0.1-0.1-0.2-0.1-0.2
		c-0.6-1-0.9-2-0.9-3.2c-0.1-2.2,0.6-4.2,2.1-5.8c0.1-0.1,0.2-0.2,0.4-0.2c0.2,0,0.4,0.1,0.5,0.2c0.4,0.4,0.9,0.9,1.3,1.3
		c0.1,0.1,0.1,0.1,0.1,0.2c2.3-0.2,4.5-0.5,6.6-0.7c0.3-0.3,0.6-0.6,0.9-0.9c-0.1-0.7,0.1-1.2,0.6-1.5c0.5-0.3,1.1-0.2,1.5,0.2
		c0.4,0.4,0.5,1,0.3,1.5c-0.1,0.3-0.3,0.5-0.6,0.6c-0.3,0.1-0.6,0.1-0.9,0.1c0,0-0.1,0.1-0.1,0.1c-0.2,0.2-0.4,0.4-0.6,0.6
		c-0.1,0.1-0.1,0.2-0.2,0.3c-0.1,0.9-0.2,1.7-0.3,2.6c-0.1,0.5-0.1,1-0.2,1.6c-0.1,0.5-0.1,1-0.2,1.5c0,0.2,0,0.5-0.1,0.8
		c0,0,0.1,0.1,0.2,0.1c0.4,0.4,0.9,0.9,1.3,1.3c0.2,0.2,0.3,0.4,0.2,0.7c0,0.1-0.1,0.2-0.2,0.2c-1.1,1.1-2.5,1.8-4,2.1
		c-1.7,0.3-3.3,0-4.7-0.8c-0.7,0.7-1.4,1.4-2,2C950.5,394.1,952.1,395.7,953.8,397.4C953.8,397.4,953.8,397.4,953.8,397.4z
		 M958.4,388.6c-3-3-6-6-8.9-8.9c-0.2,0.3-0.4,0.6-0.6,1c0.1,0.1,0.1,0.1,0.2,0.2c1.7,1.7,3.5,3.5,5.2,5.2c0.1,0.1,0.2,0.1,0.2,0.2
		c0.2,0.2,0.1,0.5-0.1,0.7c-0.2,0.2-0.5,0.2-0.7,0.1c-0.1,0-0.1-0.1-0.2-0.2c-1.7-1.7-3.3-3.3-5-5c-0.1-0.1-0.1-0.1-0.2-0.1
		c-0.9,2.7,0.1,5.8,2.8,7.4C953.5,390.7,956.6,390.2,958.4,388.6z M947.9,393.3c-0.1,0.1-0.2,0.2-0.3,0.3c-0.2,0.2-0.6,0.2-0.8,0
		c-0.2-0.2-0.2-0.5,0-0.8c0.1-0.1,0.1-0.1,0.2-0.2c0.9-0.9,1.8-1.8,2.7-2.7c0.1-0.1,0.1-0.1,0.2-0.2c-0.4-0.4-0.8-0.8-1.2-1.1
		c-0.1,0.1-0.1,0.1-0.2,0.2c-1,1-1.9,1.9-2.9,2.9c-0.1,0.1-0.1,0.1-0.2,0.2c-0.2,0.2-0.3,0.5-0.2,0.7c0,0.2,0.2,0.4,0.3,0.5
		c1.4,1.4,2.8,2.8,4.2,4.2c0,0,0.1,0.1,0.1,0.1c0.5,0,2.1,0,2.3,0C950.7,396,949.3,394.7,947.9,393.3z M957.1,385.6
		c0.1-1.4,0.3-2.8,0.4-4.2c-0.8,0.8-1.5,1.5-2.3,2.3C955.8,384.3,956.5,385,957.1,385.6z M952.5,381c0.6,0.6,1.3,1.3,1.9,1.9
		c0.7-0.7,1.5-1.5,2.3-2.3C955.2,380.7,953.8,380.8,952.5,381z"/>
</g>
<g>
	<text transform="matrix(1 0 0 1 980.9494 392.6783)" class="st2 st3 st4">Physical signals</text>
</g>
<linearGradient id="SVGID_13_" gradientUnits="userSpaceOnUse" x1="927.9687" y1="443.5745" x2="1125.5256" y2="443.5745">
	<stop  offset="0" style="stop-color:#322868"/>
	<stop  offset="1" style="stop-color:#342868"/>
</linearGradient>
<path class="st20" d="M1101.3,467.8H952.2c-13.4,0-24.2-10.8-24.2-24.2v0c0-13.4,10.8-24.2,24.2-24.2h149.2
	c13.4,0,24.2,10.8,24.2,24.2v0C1125.5,456.9,1114.7,467.8,1101.3,467.8z"/>
<g>
	<text transform="matrix(1 0 0 1 980.9494 448.5912)" class="st2 st3 st4">PLC</text>
</g>
<g>
	<circle class="st19" cx="952.1" cy="443.6" r="19.6"/>
	<g>
		<path class="st6" d="M940.9,452.1c0-5.7,0-11.4,0-17.1c0,0,0-0.1,0-0.1c0.1-0.7,0.5-1.1,1.1-1.4c0.3-0.1,0.6-0.2,0.9-0.2
			c6.1,0,12.1,0,18.2,0c0,0,0.1,0,0.1,0c0.7,0,1.3,0.4,1.7,1c0.2,0.3,0.3,0.7,0.3,1.1c0,5.4,0,10.9,0,16.3c0,0.1,0,0.1,0,0.2
			c0,0.6-0.3,1.1-0.8,1.5c-0.4,0.3-0.8,0.4-1.3,0.4c-6,0-12.1,0-18.1,0c-0.1,0-0.1,0-0.2,0c-0.9,0-1.7-0.7-1.9-1.6
			C940.9,452.2,940.9,452.2,940.9,452.1z M952.1,452.5c3,0,6,0,9.1,0c0.5,0,0.8-0.3,0.8-0.8c0-5.4,0-10.8,0-16.2c0-0.1,0-0.1,0-0.2
			c0-0.3-0.2-0.5-0.5-0.6c-0.1,0-0.2,0-0.3,0c-6,0-12.1,0-18.1,0c-0.5,0-0.8,0.3-0.8,0.8c0,5.4,0,10.8,0,16.3c0,0.1,0,0.1,0,0.2
			c0,0.3,0.2,0.5,0.4,0.6c0.1,0,0.2,0,0.3,0C946,452.5,949,452.5,952.1,452.5z"/>
		<path class="st6" d="M952.1,435.9c2.6,0,5.1,0,7.7,0c0.1,0,0.2,0,0.3,0c0.3,0.1,0.4,0.3,0.4,0.6c0,0,0,0.1,0,0.1
			c0,2.8,0,5.7,0,8.5c0,0.1,0,0.2,0,0.3c-0.1,0.3-0.3,0.4-0.6,0.4c-0.1,0-0.1,0-0.2,0c-5.1,0-10.3,0-15.4,0c-0.1,0-0.2,0-0.3,0
			c-0.3-0.1-0.4-0.3-0.5-0.6c0,0,0-0.1,0-0.1c0-2.8,0-5.7,0-8.5c0-0.1,0-0.2,0-0.3c0.1-0.3,0.3-0.5,0.6-0.5c0.1,0,0.1,0,0.2,0
			C947,435.9,949.5,435.9,952.1,435.9z M959.3,444.7c0-0.4,0-7.2,0-7.4c-0.4,0-14.2,0-14.4,0c0,0.4,0,7.2,0,7.4
			C949.7,444.7,954.5,444.7,959.3,444.7z"/>
		<path class="st6" d="M946,447.3c0.6,0,1.1,0,1.7,0c0.4,0,0.7,0.3,0.7,0.7c0,0.8,0,1.6,0,2.5c0,0.4-0.3,0.7-0.7,0.7
			c-1.1,0-2.2,0-3.4,0c-0.4,0-0.7-0.3-0.7-0.7c0-0.8,0-1.7,0-2.5c0-0.4,0.3-0.7,0.7-0.7C944.8,447.3,945.4,447.3,946,447.3z
			 M947,448.6c-0.5,0-2,0-2.2,0c0,0.4,0,1.1,0,1.3c0.4,0,2,0,2.1,0C947,449.5,947,449,947,448.6z"/>
		<path class="st6" d="M952.1,447.3c0.6,0,1.1,0,1.7,0c0.4,0,0.7,0.3,0.7,0.7c0,0.8,0,1.6,0,2.5c0,0.4-0.3,0.7-0.7,0.7
			c-1.1,0-2.2,0-3.4,0c-0.4,0-0.7-0.3-0.7-0.7c0-0.8,0-1.7,0-2.5c0-0.4,0.3-0.7,0.7-0.7C950.9,447.3,951.5,447.3,952.1,447.3z
			 M953.1,448.6c-0.8,0-2,0-2.2,0c0,0.4,0,0.8,0,1.2c0,0,0,0,0,0.1c0.3,0,2,0,2.2,0C953.1,449.4,953.1,449,953.1,448.6z"/>
		<path class="st6" d="M958.2,451.2c-0.6,0-1.1,0-1.7,0c-0.4,0-0.7-0.3-0.7-0.7c0-0.8,0-1.7,0-2.5c0-0.4,0.3-0.7,0.7-0.7
			c1.1,0,2.3,0,3.4,0c0.4,0,0.7,0.3,0.7,0.7c0,0.8,0,1.7,0,2.5c0,0.4-0.3,0.7-0.7,0.7C959.3,451.2,958.7,451.2,958.2,451.2z
			 M959.3,448.6c-0.7,0-1.4,0-2.2,0c0,0.4,0,0.9,0,1.3c0.3,0,2,0,2.2,0C959.3,449.5,959.3,449,959.3,448.6z"/>
		<path class="st6" d="M956.2,438.5c0.5,0,0.9,0.1,1.3,0.4c0.2,0.1,0.3,0.3,0.3,0.5c0,0.4-0.4,0.6-0.7,0.5c-0.1,0-0.2-0.1-0.2-0.1
			c-0.5-0.2-1-0.2-1.4,0c-0.5,0.3-0.7,0.7-0.7,1.3c0,0.8,0.7,1.5,1.7,1.3c0.2,0,0.4-0.2,0.5-0.3c0.1-0.1,0.2-0.2,0.4-0.2
			c0.2,0,0.4,0.1,0.5,0.3c0.1,0.2,0.1,0.4,0,0.6c-0.2,0.2-0.4,0.4-0.6,0.5c-0.7,0.4-1.4,0.4-2.1,0.1c-1-0.4-1.6-1.4-1.5-2.5
			C953.8,439.4,955,438.4,956.2,438.5z"/>
		<path class="st6" d="M947.3,441.8c0,0.1,0,0.2,0,0.2c0,0.3,0,0.5,0,0.8c0,0.1,0,0.2,0,0.3c-0.1,0.3-0.3,0.4-0.6,0.4
			c-0.2,0-0.4-0.2-0.5-0.5c0-0.1,0-0.1,0-0.2c0-1.2,0-2.4,0-3.6c0-0.1,0-0.1,0-0.2c0-0.3,0.2-0.4,0.5-0.5c0,0,0.1,0,0.1,0
			c0.4,0,0.8,0,1.2,0c0.6,0,1.3,0.5,1.5,1.3c0.2,1-0.5,2-1.5,2C947.7,441.8,947.5,441.8,947.3,441.8z M947.3,440.6
			c0.2,0,0.4,0,0.7,0c0.2,0,0.4-0.3,0.5-0.5c0-0.2-0.2-0.5-0.4-0.6c-0.1,0-0.6,0-0.7,0C947.3,439.9,947.3,440.3,947.3,440.6z"/>
		<path class="st6" d="M951.4,442.4c0.2,0,0.5,0,0.7,0c0.1,0,0.2,0,0.3,0c0.3,0.1,0.4,0.3,0.4,0.6c0,0.3-0.2,0.5-0.5,0.5
			c-0.1,0-0.1,0-0.2,0c-0.4,0-0.8,0-1.2,0c-0.1,0-0.1,0-0.2,0c-0.2,0-0.4-0.2-0.4-0.4c0-0.1,0-0.1,0-0.2c0-1.2,0-2.4,0-3.7
			c0-0.1,0-0.1,0-0.2c0-0.3,0.2-0.5,0.5-0.5c0.3,0,0.5,0.2,0.6,0.5c0,0.1,0,0.2,0,0.3c0,1,0,1.9,0,2.9
			C951.4,442.2,951.4,442.3,951.4,442.4z"/>
	</g>
</g>
<linearGradient id="SVGID_14_" gradientUnits="userSpaceOnUse" x1="927.9687" y1="499.487" x2="1125.5256" y2="499.487">
	<stop  offset="0" style="stop-color:#322868"/>
	<stop  offset="1" style="stop-color:#342868"/>
</linearGradient>
<path class="st21" d="M1101.3,523.7H952.2c-13.4,0-24.2-10.8-24.2-24.2v0c0-13.4,10.8-24.2,24.2-24.2h149.2
	c13.4,0,24.2,10.8,24.2,24.2v0C1125.5,512.9,1114.7,523.7,1101.3,523.7z"/>
<g>
	<g>
		<text transform="matrix(1 0 0 1 980.9494 502.5039)" class="st2 st3 st4">User Interface</text>
	</g>
	<g>
		<circle class="st19" cx="952.1" cy="499.5" r="19.6"/>
		<g>
			<path class="st6" d="M955.3,507.2c0,0.5,0,0.9,0,1.4c0.1,0,0.1,0,0.2,0c0.2,0,0.4,0,0.6,0c0.6,0.1,0.9,0.5,0.9,1
				c0,0.3,0,0.5,0,0.8c0,0.3-0.2,0.5-0.5,0.5c-0.1,0-0.1,0-0.2,0c-2.8,0-5.7,0-8.5,0c-0.1,0-0.1,0-0.2,0c-0.2,0-0.4-0.1-0.4-0.4
				c0-0.3,0-0.7,0-1c0.1-0.6,0.5-0.9,1.1-0.9c0.2,0,0.4,0,0.6,0c0-0.5,0-0.9,0-1.4c-0.1,0-0.2,0-0.3,0c-1.7,0-3.4,0-5.2,0
				c-0.6,0-1.1-0.2-1.6-0.5c-0.6-0.5-0.9-1.1-0.9-1.8c0-0.1,0-0.1,0-0.2c0-4.7,0-9.4,0-14.1c0-0.4,0.1-0.8,0.3-1.2
				c0.4-0.8,1-1.2,1.9-1.2c0.1,0,0.2,0,0.3,0c5.8,0,11.6,0,17.5,0c0.5,0,1,0.1,1.4,0.4c0.7,0.4,1,1.1,1,1.8c0,0.1,0,0.1,0,0.2
				c0,4.7,0,9.4,0,14.1c0,0.5-0.1,1-0.4,1.4c-0.5,0.7-1.1,1.1-2,1.1c-0.1,0-0.2,0-0.3,0c-1.7,0-3.3,0-5,0
				C955.5,507.2,955.4,507.2,955.3,507.2z M941.6,503.6c7,0,13.9,0,20.9,0c0-0.1,0-0.2,0-0.3c0-4.2,0-8.4,0-12.6c0-0.1,0-0.2,0-0.3
				c0-0.7-0.5-1.2-1.1-1.4c-0.2-0.1-0.4-0.1-0.6-0.1c-5.8,0-11.6,0-17.4,0c-0.1,0-0.1,0-0.2,0c-0.4,0-0.8,0.2-1.1,0.5
				c-0.3,0.3-0.4,0.7-0.4,1.2c0,4.3,0,8.5,0,12.8C941.6,503.4,941.6,503.5,941.6,503.6z M952.1,506c0.3,0,0.6-0.2,0.6-0.6
				c0-0.3-0.3-0.6-0.6-0.6c-0.3,0-0.6,0.3-0.6,0.6C951.5,505.7,951.7,506,952.1,506z"/>
			<path class="st6" d="M957.6,493.1c-0.8,0-1.7,0-2.5,0c0.1,0.1,0.1,0.1,0.2,0.1c1.5,0.9,2.5,2.2,2.9,3.9c0,0.2,0.1,0.4,0.1,0.6
				c0,0.2,0,0.4,0.1,0.6c0.1,0,0.2,0,0.2,0c0.2,0,0.4,0.1,0.4,0.4c0,0.4,0,0.8,0,1.2c0,0.2-0.1,0.4-0.4,0.4c-0.4,0-0.8,0-1.2,0
				c-0.2,0-0.4-0.2-0.4-0.4c0-0.3,0-0.6,0-0.9c0-0.1,0-0.1,0-0.2c0-0.3,0.1-0.4,0.4-0.4c0,0,0.1,0,0.1,0c0.1-0.6-0.3-2.1-1.1-3.1
				c-0.9-1.1-2-1.8-3.3-2.1c-0.2,0.3-0.4,0.5-0.7,0.6c0,0.1,0.1,0.2,0.1,0.3c0.8,1.6,1.6,3.2,2.4,4.9c0,0.1,0.1,0.1,0.1,0.2
				c0.1,0.3-0.1,0.6-0.4,0.5c-0.1,0-0.1,0-0.2,0c-0.7-0.2-1.5-0.4-2.2-0.6c-0.1,0-0.3,0-0.4,0c-0.7,0.2-1.5,0.4-2.2,0.6
				c-0.1,0-0.1,0-0.2,0c-0.3,0-0.5-0.2-0.4-0.5c0-0.1,0.1-0.1,0.1-0.2c0.8-1.6,1.6-3.2,2.4-4.9c0-0.1,0.1-0.2,0.1-0.2
				c-0.2-0.2-0.4-0.4-0.6-0.5c-2.6,0.3-4.6,2.8-4.6,5.1c0.1,0,0.1,0,0.2,0c0.3,0,0.4,0.2,0.4,0.4c0,0.3,0,0.5,0,0.8
				c0,0.1,0,0.2,0,0.3c0,0.2-0.2,0.4-0.4,0.4c-0.4,0-0.7,0-1.1,0c-0.3,0-0.4-0.1-0.4-0.4c0-0.4,0-0.7,0-1.1c0-0.3,0.1-0.4,0.4-0.4
				c0.1,0,0.1,0,0.2,0c0.2-2.3,1.3-4,3.3-5.2c-0.9,0-1.7,0-2.5,0c-0.1,0.3-0.4,0.5-0.7,0.6c-0.2,0.1-0.4,0.1-0.7,0
				c-0.4-0.1-0.7-0.5-0.7-1.1c0-0.4,0.3-0.8,0.8-0.9c0.5-0.1,0.9,0.1,1.2,0.6c1.5,0,3.1,0,4.6,0c0.2-0.4,0.5-0.7,1-0.7
				c0.5,0,0.8,0.3,1,0.7c1.5,0,2.9,0,4.4,0c0.1-0.3,0.3-0.5,0.6-0.6c0.2-0.1,0.5-0.1,0.7,0c0.4,0.1,0.7,0.5,0.7,1
				c0,0.5-0.3,0.8-0.8,1C958.3,493.9,957.9,493.7,957.6,493.1z"/>
		</g>
	</g>
</g>
<g>
	<linearGradient id="SVGID_15_" gradientUnits="userSpaceOnUse" x1="927.9687" y1="555.3996" x2="1125.5256" y2="555.3996">
		<stop  offset="0" style="stop-color:#322868"/>
		<stop  offset="1" style="stop-color:#342868"/>
	</linearGradient>
	<path class="st22" d="M1101.3,579.6H952.2c-13.4,0-24.2-10.8-24.2-24.2v0c0-13.4,10.8-24.2,24.2-24.2h149.2
		c13.4,0,24.2,10.8,24.2,24.2v0C1125.5,568.8,1114.7,579.6,1101.3,579.6z"/>
	<g>
		<text transform="matrix(1 0 0 1 980.9494 559.4166)" class="st2 st3 st4">Server</text>
	</g>
	<g>
		<circle class="st19" cx="952.1" cy="555.4" r="19.6"/>
		<g>
			<path class="st6" d="M941.6,559.4c0-1,0-2,0-3c0,0,0-0.1,0-0.1c0-0.2,0.1-0.5,0.3-0.7c0-0.1,0.1-0.1,0.1-0.2
				c0-0.1-0.1-0.1-0.1-0.1c-0.2-0.2-0.3-0.5-0.3-0.7c0,0,0-0.1,0-0.1c0-1,0-2,0-3c0.1-0.2,0.1-0.4,0.2-0.6c0.3-0.6,0.5-1.2,0.8-1.9
				c0.4-1,0.8-2,1.2-2.9c0.2-0.6,0.7-0.9,1.3-1.1c0,0,0.1,0,0.1,0c4.6,0,9.2,0,13.8,0c0,0,0,0,0,0c0.7,0.1,1.1,0.5,1.4,1.2
				c0.7,1.6,1.3,3.2,2,4.8c0.1,0.3,0.2,0.6,0.2,0.9c0,0.8,0,1.5,0,2.3c0,0.5-0.1,0.9-0.4,1.3c0,0,0,0,0,0c0,0,0.1,0.1,0.1,0.1
				c0.2,0.3,0.4,0.7,0.4,1.1c0,0.8,0,1.7,0,2.5c0,0.4-0.1,0.7-0.3,1.1c0,0.1-0.1,0.1-0.1,0.2c0,0.1,0.1,0.1,0.1,0.2
				c0.2,0.3,0.3,0.6,0.3,1c0,0.9,0,1.7,0,2.6c0,0.6-0.3,1.1-0.7,1.4c-0.4,0.3-0.8,0.4-1.2,0.4c-5.7,0-11.4,0-17.1,0
				c-0.1,0-0.1,0-0.2,0c-0.8,0-1.6-0.6-1.8-1.4c0-0.1,0-0.1-0.1-0.2c0-1,0-2,0-3c0,0,0-0.1,0-0.1c0-0.2,0.1-0.5,0.3-0.7
				c0-0.1,0.1-0.1,0.1-0.2c0-0.1-0.1-0.1-0.1-0.1C941.8,560,941.6,559.7,941.6,559.4C941.6,559.4,941.6,559.4,941.6,559.4z
				 M943.5,549.8c5.7,0,11.4,0,17.1,0c0-0.1,0-0.1-0.1-0.2c-0.3-0.7-0.6-1.5-0.9-2.2c-0.1-0.3-0.2-0.6-0.4-0.8
				c-0.1-0.3-0.3-0.4-0.6-0.4c0,0-0.1,0-0.1,0c-4.3,0-8.6,0-12.9,0c-0.1,0-0.1,0-0.2,0c-0.2,0-0.4,0.1-0.5,0.3c0,0,0,0.1-0.1,0.1
				c-0.4,1-0.8,1.9-1.2,2.9C943.6,549.6,943.6,549.7,943.5,549.8z M952.1,551.1c-2.9,0-5.7,0-8.6,0c-0.3,0-0.7,0.3-0.7,0.7
				c0,0.8,0,1.6,0,2.4c0,0.4,0.3,0.7,0.7,0.7c5.7,0,11.4,0,17.2,0c0.4,0,0.7-0.3,0.7-0.7c0-0.8,0-1.6,0-2.4c0,0,0-0.1,0-0.1
				c0-0.3-0.2-0.5-0.5-0.6c-0.1,0-0.2,0-0.2,0C957.8,551.1,954.9,551.1,952.1,551.1z M952.1,559.7c2.9,0,5.7,0,8.6,0
				c0.4,0,0.7-0.3,0.7-0.7c0-0.8,0-1.5,0-2.3c0-0.1,0-0.2,0-0.2c-0.1-0.3-0.3-0.5-0.7-0.5c-5.7,0-11.5,0-17.2,0
				c-0.4,0-0.7,0.3-0.7,0.7c0,0.8,0,1.5,0,2.3c0,0,0,0.1,0,0.1c0,0.3,0.2,0.5,0.5,0.6c0.1,0,0.2,0,0.2,0
				C946.4,559.7,949.2,559.7,952.1,559.7z M952,564.7c2.9,0,5.7,0,8.6,0c0.5,0,0.7-0.3,0.7-0.7c0-0.8,0-1.5,0-2.3
				c0-0.4-0.3-0.7-0.7-0.7c-5.7,0-11.4,0-17.2,0c-0.4,0-0.7,0.3-0.7,0.7c0,0.4,0,0.8,0,1.2c0,0.4,0,0.8,0,1.1c0,0.3,0.2,0.5,0.5,0.6
				c0.1,0,0.2,0,0.3,0C946.4,564.7,949.2,564.7,952,564.7z"/>
			<path class="st6" d="M953.9,552.3c1.8,0,3.6,0,5.5,0c0.1,0,0.2,0,0.3,0c0.3,0.1,0.5,0.4,0.4,0.7c0,0.3-0.3,0.5-0.6,0.5
				c-0.1,0-0.1,0-0.2,0c-3.6,0-7.3,0-10.9,0c-0.1,0-0.2,0-0.3,0c-0.3-0.1-0.5-0.4-0.4-0.6c0-0.3,0.3-0.5,0.6-0.5c0.1,0,0.1,0,0.2,0
				C950.3,552.3,952.1,552.3,953.9,552.3z"/>
			<path class="st6" d="M945.3,552.9c0,0.2-0.1,0.4-0.3,0.6c-0.1,0.1-0.3,0.1-0.5,0c-0.3-0.1-0.6-0.6-0.4-0.9
				c0.1-0.2,0.4-0.4,0.7-0.3C945.1,552.4,945.3,552.6,945.3,552.9z"/>
			<path class="st6" d="M953.9,558.5c-1.8,0-3.6,0-5.5,0c-0.1,0-0.2,0-0.3,0c-0.3-0.1-0.4-0.4-0.4-0.6c0-0.3,0.3-0.5,0.6-0.5
				c0.1,0,0.1,0,0.2,0c3.6,0,7.3,0,10.9,0c0.1,0,0.2,0,0.3,0c0.3,0.1,0.4,0.4,0.4,0.7c0,0.3-0.3,0.5-0.6,0.5c-0.1,0-0.1,0-0.2,0
				C957.5,558.5,955.7,558.5,953.9,558.5z"/>
			<path class="st6" d="M944.6,557.3c0.3,0,0.6,0.3,0.6,0.6c0,0.3-0.3,0.6-0.6,0.6c-0.3,0-0.6-0.3-0.6-0.6
				C944,557.6,944.3,557.3,944.6,557.3z"/>
			<path class="st6" d="M953.9,562.2c1.8,0,3.6,0,5.5,0c0.1,0,0.2,0,0.3,0c0.3,0.1,0.4,0.4,0.4,0.6c0,0.3-0.3,0.5-0.6,0.5
				c-0.1,0-0.1,0-0.2,0c-3.6,0-7.3,0-10.9,0c-0.1,0-0.2,0-0.3,0c-0.3-0.1-0.4-0.4-0.4-0.7c0-0.3,0.3-0.5,0.6-0.5c0.1,0,0.1,0,0.2,0
				C950.3,562.2,952.1,562.2,953.9,562.2z"/>
			<path class="st6" d="M944.6,563.4c-0.3,0-0.6-0.3-0.6-0.6c0-0.3,0.3-0.6,0.6-0.6c0.3,0,0.6,0.3,0.6,0.6
				C945.3,563.2,945,563.4,944.6,563.4z"/>
		</g>
	</g>
</g>
<polygon class="st23" points="336,453.8 336.9,452.8 336,451.9 336,451.9 336,451.9 335.6,451.5 329.6,445.6 328.3,446.9 
	333.3,451.9 289.7,451.9 289.7,453.8 333.3,453.8 328.3,458.8 329.6,460.1 336,453.8 336,453.8 "/>
<polygon class="st23" points="479.9,256.1 480.8,257 481.7,256.1 481.8,256.1 481.8,256.1 482.1,255.7 488.1,249.7 486.8,248.4 
	481.8,253.4 481.8,215.1 479.9,215.1 479.9,253.4 474.9,248.4 473.5,249.7 479.9,256.1 479.9,256.1 "/>
<linearGradient id="SVGID_16_" gradientUnits="userSpaceOnUse" x1="163.7674" y1="355.7717" x2="179.0585" y2="355.7717">
	<stop  offset="0" style="stop-color:#212121"/>
	<stop  offset="0.1295" style="stop-color:#232325"/>
	<stop  offset="0.3141" style="stop-color:#28262F"/>
	<stop  offset="0.5317" style="stop-color:#2D2A3D"/>
	<stop  offset="0.7725" style="stop-color:#322B52"/>
	<stop  offset="1" style="stop-color:#342868"/>
</linearGradient>
<polygon class="st24" points="170.5,379.9 171.4,380.8 172.3,379.9 172.4,379.9 172.4,379.9 172.7,379.5 178.7,373.5 177.4,372.2 
	172.4,377.2 172.4,330.6 170.5,330.6 170.5,377.2 165.4,372.2 164.1,373.5 170.5,379.9 170.5,379.9 "/>
<linearGradient id="SVGID_17_" gradientUnits="userSpaceOnUse" x1="163.7674" y1="453.5567" x2="179.0585" y2="453.5567">
	<stop  offset="0" style="stop-color:#212121"/>
	<stop  offset="0.1295" style="stop-color:#232325"/>
	<stop  offset="0.3141" style="stop-color:#28262F"/>
	<stop  offset="0.5317" style="stop-color:#2D2A3D"/>
	<stop  offset="0.7725" style="stop-color:#322B52"/>
	<stop  offset="1" style="stop-color:#342868"/>
</linearGradient>
<polygon class="st25" points="170.5,476.9 171.4,477.8 172.3,476.9 172.4,476.9 172.4,476.9 172.7,476.5 178.7,470.5 177.4,469.2 
	172.4,474.2 172.4,429.2 170.5,429.2 170.5,474.2 165.4,469.2 164.1,470.5 170.5,476.9 170.5,476.9 "/>
<linearGradient id="SVGID_18_" gradientUnits="userSpaceOnUse" x1="163.7674" y1="549.8134" x2="179.0585" y2="549.8134">
	<stop  offset="0" style="stop-color:#212121"/>
	<stop  offset="0.1295" style="stop-color:#232325"/>
	<stop  offset="0.3141" style="stop-color:#28262F"/>
	<stop  offset="0.5317" style="stop-color:#2D2A3D"/>
	<stop  offset="0.7725" style="stop-color:#322B52"/>
	<stop  offset="1" style="stop-color:#342868"/>
</linearGradient>
<polygon class="st26" points="170.5,572.4 171.4,573.3 172.3,572.4 172.4,572.4 172.4,572.4 172.7,572 178.7,566 177.4,564.7 
	172.4,569.7 172.4,526.2 170.5,526.2 170.5,569.7 165.4,564.7 164.1,566 170.5,572.4 170.5,572.4 "/>
<polygon class="st23" points="653.3,393.4 654.3,392.5 653.3,391.6 653.3,391.6 653.3,391.6 652.9,391.2 647,385.2 645.6,386.6 
	650.7,391.6 600.5,391.6 600.5,393.5 650.7,393.5 645.6,398.5 647,399.8 653.3,393.5 653.3,393.5 "/>
<polygon class="st23" points="917.3,393.4 918.2,392.5 917.3,391.6 917.3,391.6 917.2,391.6 916.9,391.2 910.9,385.2 909.6,386.6 
	914.6,391.6 832.4,391.6 832.4,393.5 914.6,393.5 909.6,398.5 910.9,399.8 917.2,393.5 917.3,393.5 "/>
<polyline class="st23" points="878.3,611.4 878.3,392.8 876.4,392.8 876.4,611.2 "/>
<polygon class="st23" points="917.3,445.6 918.2,444.6 917.3,443.7 917.3,443.7 917.2,443.7 916.9,443.3 910.9,437.3 909.6,438.7 
	914.6,443.7 876.4,443.7 876.4,445.6 914.6,445.6 909.6,450.6 910.9,451.9 917.2,445.6 917.3,445.6 "/>
<polygon class="st23" points="917.3,500.8 918.2,499.9 917.3,498.9 917.3,498.9 917.2,498.9 916.9,498.5 910.9,492.6 909.6,493.9 
	914.6,498.9 876.4,498.9 876.4,500.8 914.6,500.8 909.6,505.8 910.9,507.1 917.2,500.8 917.3,500.8 "/>
<polygon class="st23" points="917.3,557.5 918.2,556.6 917.3,555.7 917.3,555.7 917.2,555.7 916.9,555.3 910.9,549.3 909.6,550.6 
	914.6,555.7 876.4,555.7 876.4,557.5 914.6,557.5 909.6,562.6 910.9,563.9 917.2,557.5 917.3,557.5 "/>
<polygon class="st23" points="917.3,612.2 918.2,611.3 917.3,610.4 917.3,610.4 917.2,610.4 916.9,610 910.9,604 909.6,605.3 
	914.6,610.4 876.4,610.4 876.4,612.2 914.6,612.2 909.6,617.3 910.9,618.6 917.2,612.2 917.3,612.2 "/>
<g>
	<text transform="matrix(1 0 0 1 295.5294 448.1068)" class="st23 st3 st27">Models</text>
</g>
<g>
	<text transform="matrix(0 -1 1 0 476.2878 238.998)" class="st23 st3 st27">Live</text>
</g>
<g>
	<text transform="matrix(1 0 0 1 398.2736 183.9575)" class="st19 st3 st28">Industrial Camera / Microscope / Thermal Camera / Xray Tube</text>
	<g>
		<path class="st19" d="M375.3,162.5c0.1,0,0.1,0,0.2,0.1c1.3,0.3,2.2,1.4,2.2,2.8c0,1.7-0.8,3-2.1,4.1c-0.1,0-0.1,0.1-0.2,0.1
			c0.1,0.5,0.3,1,0.4,1.5c0.1,0,0.2,0,0.3,0c1.2,0,2.5,0,3.7,0c1.5,0,2.9,1,3.4,2.4c0.1,0.4,0.2,0.8,0.2,1.2c0,5,0,10.1,0,15.1
			c0,2-1.6,3.6-3.6,3.6c-2.1,0-4.2,0-6.3,0c-3.9,0-7.8,0-11.7,0c-1.1,0-2-0.4-2.8-1.2c-0.6-0.7-0.9-1.5-0.9-2.4c0-1.4,0-2.8,0-4.2
			c0-3.6,0-7.2,0-10.8c0-1.2,0.5-2.2,1.5-3c0.6-0.4,1.3-0.7,2.1-0.7c1.2,0,2.5,0,3.7,0c0.1,0,0.2,0,0.3,0c0.1-0.5,0.3-1,0.4-1.5
			c-0.1,0-0.1-0.1-0.2-0.2c-1.4-1.1-2.1-2.5-2.1-4.3c0-1.3,1-2.3,2.2-2.6c0.1,0,0.1,0,0.2-0.1C369.3,162.5,372.3,162.5,375.3,162.5z
			 M359.4,182.8c0,0.1,0,0.2,0,0.2c0,2.2,0,4.4,0,6.6c0,1.4,1,2.5,2.5,2.5c6,0,12,0,17.9,0c1.4,0,2.5-1.1,2.5-2.5c0-2.2,0-4.4,0-6.6
			c0-0.1,0-0.2,0-0.2c-1.6,0-3.2,0-4.8,0c-0.3,3.3-3.1,5.9-6.3,6c-1.5,0.1-2.9-0.4-4.2-1.3c-1.6-1.2-2.5-2.8-2.7-4.7
			C362.6,182.8,361,182.8,359.4,182.8z M359.4,181.6c0.6,0.1,4.6,0,4.8,0c0.3-3.3,3-5.8,6.2-6c1.5-0.1,2.9,0.3,4.2,1.2
			c1.7,1.2,2.6,2.8,2.8,4.8c1.6,0,3.2,0,4.8,0c0-0.3,0-0.5,0-0.7c0-2,0-4.1,0-6.1c0-0.8-0.3-1.5-1-2c-0.5-0.3-1-0.5-1.6-0.5
			c-5.9,0-11.8,0-17.7,0c-0.1,0-0.2,0-0.2,0c-0.8,0-1.4,0.4-1.9,1c-0.3,0.4-0.5,1-0.5,1.5c0,2.2,0,4.4,0,6.6
			C359.4,181.4,359.4,181.5,359.4,181.6z M365.4,182.2c0,3,2.4,5.4,5.4,5.4c3,0,5.4-2.4,5.4-5.4c0-3-2.4-5.4-5.4-5.4
			C367.8,176.8,365.4,179.2,365.4,182.2z M374.8,168.5c1.1-0.8,1.7-1.8,1.7-3.2c0-0.9-0.7-1.6-1.6-1.6c-2.7,0-5.5,0-8.2,0
			c-0.9,0-1.6,0.7-1.6,1.6c0,1.1,0.5,2.1,1.3,2.8c0.1,0.1,0.3,0.3,0.5,0.4C368.9,166,372.7,166,374.8,168.5z M374.6,171.1
			c-0.2-1.6-1.7-3.2-3.8-3.2c-2.1,0-3.5,1.7-3.6,3.2C369.6,171.1,372.1,171.1,374.6,171.1z"/>
		<path class="st19" d="M376.8,175.9c0-1,0.8-1.8,1.8-1.8c1,0,1.8,0.8,1.8,1.8c0,1-0.8,1.8-1.8,1.8
			C377.7,177.7,376.8,176.9,376.8,175.9z M378,175.9c0,0.3,0.3,0.6,0.6,0.6c0.3,0,0.6-0.3,0.6-0.6c0-0.3-0.3-0.6-0.6-0.6
			C378.3,175.3,378.1,175.5,378,175.9z"/>
		<path class="st19" d="M370.8,185.8c-2,0-3.6-1.6-3.6-3.6c0-2,1.6-3.6,3.6-3.6c2,0,3.6,1.6,3.6,3.6
			C374.4,184.2,372.8,185.8,370.8,185.8z M370.8,179.8c-1.3,0-2.4,1.1-2.4,2.4c0,1.3,1.1,2.4,2.4,2.4c1.3,0,2.4-1.1,2.4-2.4
			C373.2,180.9,372.2,179.8,370.8,179.8z"/>
	</g>
</g>
<g>
	<linearGradient id="SVGID_19_" gradientUnits="userSpaceOnUse" x1="927.9687" y1="611.3121" x2="1125.5256" y2="611.3121">
		<stop  offset="0" style="stop-color:#322868"/>
		<stop  offset="1" style="stop-color:#342868"/>
	</linearGradient>
	<path class="st29" d="M1101.3,635.5H952.2c-13.4,0-24.2-10.8-24.2-24.2v0c0-13.4,10.8-24.2,24.2-24.2h149.2
		c13.4,0,24.2,10.8,24.2,24.2v0C1125.5,624.7,1114.7,635.5,1101.3,635.5z"/>
	<g>
		<text transform="matrix(1 0 0 1 980.9494 615.3291)" class="st2 st3 st4">ROS / ROS2</text>
	</g>
	<g>
		<circle class="st19" cx="952.1" cy="611.3" r="19.6"/>
		<g>
			<path class="st6" d="M941.5,603.9c0-0.2,0.1-0.3,0.1-0.5c0.3-1.1,1-1.8,2.1-2.1c1.6-0.5,3.2,0.4,3.8,1.9c0.5,1.4-0.1,2.9-1.3,3.6
				c-0.5,0.3-1,0.5-1.6,0.5c-1.7,0-2.9-1.3-3.1-2.6c0,0,0-0.1,0-0.1C941.5,604.3,941.5,604.1,941.5,603.9z"/>
			<path class="st6" d="M947.2,618c0-0.1,0-0.1,0-0.1c0-0.4,0.1-0.9,0.1-1.3c0-0.2,0-0.3,0-0.5c0-0.3,0.3-0.5,0.6-0.5
				c0.2,0,0.3,0,0.5,0c-1.3-2.3-2.7-4.6-4-6.9c0.1-0.1,0.1,0,0.2,0c0.5,0,0.9-0.1,1.4-0.2c0.5-0.2,1-0.4,1.4-0.8
				c0,0,0.1-0.1,0.1-0.1c0,0,0,0,0.1,0c0.8,1.4,1.6,2.7,2.3,4.1c0.8,1.4,1.6,2.7,2.4,4.1c0.1,0,0.2,0,0.2,0c1.2,0,2.3,0,3.5,0
				c0.1,0,0.1,0,0.2,0c0.3,0,0.5,0.3,0.5,0.6c0,0.5,0.1,1.1,0.1,1.6c0,0.1,0,0.2,0,0.3c0,0-0.1,0-0.1,0c0,0-0.1,0-0.1,0
				c-3.1,0-6.2,0-9.3,0C947.4,618,947.3,618,947.2,618z"/>
			<path class="st6" d="M955.1,602.5c0,0,0-0.1,0-0.1c0-0.3,0.2-0.5,0.5-0.6c0.2-0.1,0.5-0.1,0.7-0.2c0.8-0.2,1.5-0.4,2.3-0.6
				c0.2-0.1,0.4-0.1,0.6,0c0.9,0.3,1.9,0.5,2.8,0.8c0.1,0,0.1,0,0.2,0.1c0.3,0.1,0.5,0.4,0.4,0.8c-0.1,0.3-0.4,0.5-0.7,0.4
				c-0.6-0.1-1.1-0.3-1.7-0.5c-0.4-0.1-0.8-0.2-1.1-0.3c-0.2-0.1-0.2-0.1-0.4,0c0,1.3,0,2.6,0,3.9c0.1,0.1,0.2,0.1,0.4,0
				c0.9-0.3,1.8-0.5,2.7-0.8c0.1,0,0.3-0.1,0.4,0c0.2,0.1,0.4,0.3,0.5,0.5c0,0.2-0.1,0.5-0.3,0.6c-0.1,0-0.1,0-0.2,0.1
				c-1,0.3-2,0.6-3,0.9c-0.2,0-0.3,0-0.5,0c-1-0.3-2-0.6-3-0.9c-0.2-0.1-0.4-0.1-0.4-0.3c0-0.1-0.1-0.2-0.1-0.3c0,0,0-0.1,0-0.2
				c-2.1,0-4.3,0-6.5,0c0.4-1.1,0.4-2.2,0-3.3c0,0,0,0,0,0c0,0,0,0,0,0c0,0,0,0,0,0c0,0,0,0,0,0
				C950.8,602.5,952.9,602.5,955.1,602.5C955,602.5,955,602.5,955.1,602.5C955,602.5,955,602.5,955.1,602.5
				C955,602.5,955,602.5,955.1,602.5z"/>
			<path class="st6" d="M947.1,619.2c3.3,0,6.6,0,9.9,0c0,0.1,0,0.1,0,0.2c0,0.4,0.1,0.8,0.1,1.2c0,0.2,0,0.3,0,0.5
				c0,0.4-0.2,0.7-0.6,0.7c0,0-0.1,0-0.1,0c-2.9,0-5.8,0-8.8,0c-0.1,0-0.2,0-0.2,0c-0.3,0-0.5-0.3-0.5-0.6c0-0.2,0-0.3,0-0.5
				c0-0.4,0.1-0.8,0.1-1.2C947.1,619.3,947.1,619.3,947.1,619.2z"/>
		</g>
	</g>
</g>
<g>
	<g>
		<polygon class="st30" points="98.9,697 98.4,697.6 94.5,692.5 95,691.8 95.2,691.5 95.8,690.8 102.6,681.9 110.4,681.9 99.7,696 
			99.1,696.7 		"/>
	</g>
	<g>
		<polygon class="st30" points="110.7,713.8 102.6,713.8 95.6,704.6 95.1,703.9 94.9,703.6 94.4,702.9 98.4,697.6 98.4,697.7 
			98.9,698.3 99.1,698.6 99.7,699.3 		"/>
	</g>
	<g>
		<polygon class="st31" points="98.9,698.3 99.1,698.6 95.1,703.9 94.9,703.6 94.4,702.9 98.4,697.6 98.4,697.7 		"/>
	</g>
	<g>
		<polygon class="st31" points="98.9,697 98.4,697.6 94.5,692.5 95,691.8 95.2,691.5 99.1,696.7 		"/>
	</g>
	<g>
		<polygon class="st32" points="86.5,702.9 94.4,702.9 86.1,713.8 78.1,713.8 		"/>
	</g>
	<g>
		<polygon class="st32" points="98.4,697.7 94.4,702.9 90.5,697.8 78.4,681.9 86.5,681.9 		"/>
	</g>
	<g>
		<rect x="113.9" y="681.9" class="st33" width="5.7" height="31.9"/>
	</g>
	<g>
		<path class="st33" d="M116.7,668.4c-1.1,0-2,0.4-2.8,1.1c-0.7,0.7-1.1,1.6-1.1,2.7c0,1,0.4,1.9,1.1,2.6c0.7,0.7,1.7,1.1,2.8,1.1
			c1.2,0,2.1-0.4,2.8-1.1c0.7-0.7,1.1-1.6,1.1-2.7c0-1-0.4-1.9-1.1-2.6C118.8,668.8,117.9,668.4,116.7,668.4"/>
	</g>
	<g>
		<path class="st33" d="M145.8,697.9c-1.2-0.6-2.5-1-3.9-1.4c-1.4-0.3-2.9-0.6-4.3-0.8c-1.4-0.2-2.7-0.5-3.9-0.8
			c-1.2-0.3-2.1-0.8-2.9-1.3c-0.7-0.6-1.1-1.4-1.1-2.4c0-1.3,0.6-2.3,1.8-3.1c1.2-0.8,3.1-1.2,5.6-1.2c1.5,0,3.1,0.2,4.6,0.5
			c1.5,0.4,3,1,4.5,1.9l2.4-4.5c-1.3-0.9-3.1-1.6-5.2-2.1c-2.1-0.5-4.2-0.7-6.3-0.7c-2.7,0-5,0.4-7,1.1c-2,0.8-3.5,1.9-4.6,3.3
			c-1.1,1.4-1.6,3.1-1.6,4.9c0,1.8,0.4,3.3,1.1,4.3c0.7,1.1,1.7,1.9,2.9,2.5c1.2,0.6,2.5,1.1,3.9,1.4c1.4,0.3,2.9,0.6,4.3,0.8
			c1.4,0.2,2.7,0.5,3.9,0.7c1.2,0.3,2.1,0.7,2.8,1.2c0.7,0.6,1.1,1.3,1.1,2.3c0,1.3-0.6,2.4-1.8,3.1c-1.2,0.7-3.1,1.1-5.7,1.1
			c-2.1,0-4.1-0.3-6.1-0.9c-2-0.6-3.7-1.4-5-2.3l-2.4,4.5c1.3,1,3.2,1.9,5.6,2.6c2.4,0.7,4.9,1.1,7.5,1.1c2.8,0,5.2-0.4,7.3-1.1
			c2-0.8,3.6-1.8,4.7-3.2c1.1-1.4,1.7-3,1.7-4.9c0-1.8-0.4-3.2-1.1-4.2C147.9,699.3,146.9,698.4,145.8,697.9"/>
	</g>
	<g>
		<path class="st33" d="M157,706.2c-1,0-1.9,0.4-2.7,1.1c-0.7,0.7-1.1,1.6-1.1,2.7c0,1.1,0.4,2,1.1,2.8c0.7,0.7,1.6,1.1,2.7,1.1
			c1,0,1.9-0.4,2.6-1.1c0.7-0.7,1.1-1.6,1.1-2.8c0-1.1-0.4-2-1.1-2.7C158.9,706.6,158,706.2,157,706.2"/>
	</g>
	<g>
		<path class="st33" d="M197.5,669.7v44.1h-6.1l-0.4-4.9c-2.3,3.7-5.9,5.5-10.8,5.5c-4.6,0-8.4-1.5-11.4-4.4
			c-3-2.9-4.5-6.9-4.5-11.9c0-5.1,1.5-9.1,4.4-12s6.7-4.3,11.4-4.3c2.1,0,4.2,0.5,6.3,1.5s3.7,2.3,4.6,4.1v-17.8H197.5z
			 M173.6,690.9c-1.9,1.8-2.8,4.3-2.8,7.4c0,3.1,0.9,5.5,2.8,7.4c1.9,1.8,4.2,2.8,7,2.8c2.8,0,5.1-0.9,7-2.8
			c1.9-1.9,2.9-4.3,2.9-7.3c0-2.9-1-5.4-2.9-7.3c-1.9-1.9-4.3-2.8-7-2.8C177.8,688.2,175.5,689.1,173.6,690.9z"/>
		<path class="st33" d="M207.4,700.7c0.3,2.4,1.4,4.2,3.2,5.7s4.2,2.1,7,2.1c1.7,0,3.4-0.3,5.1-0.9c1.7-0.6,3-1.4,3.9-2.4l4.2,4.1
			c-1.6,1.7-3.5,3-6,3.9c-2.4,0.9-4.9,1.4-7.4,1.4c-5.1,0-9.2-1.5-12.2-4.5s-4.6-7-4.6-12c0-4.8,1.5-8.6,4.5-11.7s7-4.5,11.8-4.5
			c5.2,0,9.3,1.6,12.2,4.8c2.9,3.2,4.1,7.9,3.5,14H207.4z M226.4,695.2c-0.2-2.4-1.1-4.2-2.7-5.5c-1.7-1.3-3.8-2-6.5-2
			c-2.4,0-4.5,0.7-6.3,2c-1.7,1.3-2.9,3.2-3.4,5.5H226.4z"/>
		<path class="st33" d="M264.7,682.7L251.5,714h-7.1l-13.2-31.3h7.2l4.2,10l5.5,14.4l4.9-13.2l4.7-11.3H264.7z"/>
	</g>
</g>
<g>
	<g>
		<polygon class="st30" points="549.8,697 549.3,697.7 545.5,692.7 546,692 546.2,691.7 546.8,691 553.4,682.3 561.1,682.3 
			550.6,696.1 550,696.8 		"/>
	</g>
	<g>
		<polygon class="st30" points="561.4,713.5 553.4,713.5 546.6,704.5 546.1,703.8 545.9,703.5 545.4,702.9 549.3,697.7 549.4,697.8 
			549.8,698.4 550,698.6 550.6,699.3 		"/>
	</g>
	<g>
		<polygon class="st31" points="549.8,698.4 550,698.6 546.1,703.8 545.9,703.5 545.4,702.9 549.3,697.7 549.4,697.8 		"/>
	</g>
	<g>
		<polygon class="st31" points="549.8,697 549.3,697.7 545.5,692.7 546,692 546.2,691.7 550,696.8 		"/>
	</g>
	<g>
		<polygon class="st32" points="537.7,702.9 545.4,702.9 537.3,713.5 529.5,713.5 		"/>
	</g>
	<g>
		<polygon class="st32" points="549.3,697.7 545.4,702.9 541.6,697.8 529.8,682.3 537.7,682.3 		"/>
	</g>
	<g>
		<rect x="564.5" y="682.3" class="st33" width="5.6" height="31.2"/>
	</g>
	<g>
		<path class="st33" d="M567.3,669.1c-1.1,0-2,0.3-2.7,1c-0.7,0.7-1.1,1.6-1.1,2.6c0,1,0.4,1.9,1.1,2.6c0.7,0.7,1.6,1,2.7,1
			c1.1,0,2-0.4,2.7-1.1c0.7-0.7,1-1.6,1-2.6c0-1-0.4-1.9-1.1-2.5C569.2,669.5,568.3,669.1,567.3,669.1"/>
	</g>
	<g>
		<path class="st33" d="M595.6,697.9c-1.1-0.6-2.4-1-3.8-1.4c-1.4-0.3-2.8-0.6-4.2-0.8c-1.4-0.2-2.7-0.5-3.8-0.8
			c-1.1-0.3-2.1-0.7-2.8-1.3c-0.7-0.6-1.1-1.4-1.1-2.4c0-1.2,0.6-2.2,1.8-3c1.2-0.8,3-1.2,5.5-1.2c1.5,0,3,0.2,4.5,0.5
			c1.5,0.3,3,1,4.4,1.9l2.4-4.4c-1.3-0.9-3-1.6-5.1-2c-2.1-0.5-4.1-0.7-6.1-0.7c-2.6,0-4.9,0.4-6.8,1.1c-1.9,0.7-3.4,1.8-4.5,3.2
			c-1,1.4-1.6,3-1.6,4.8c0,1.8,0.3,3.2,1,4.2c0.7,1.1,1.6,1.9,2.8,2.5c1.2,0.6,2.4,1.1,3.8,1.4c1.4,0.3,2.8,0.6,4.2,0.8
			c1.4,0.2,2.7,0.5,3.8,0.7c1.1,0.3,2.1,0.7,2.8,1.2c0.7,0.5,1,1.3,1,2.2c0,1.3-0.6,2.3-1.7,3.1c-1.1,0.7-3,1.1-5.6,1.1
			c-2,0-4-0.3-5.9-0.9c-1.9-0.6-3.6-1.4-4.9-2.2l-2.3,4.4c1.3,1,3.1,1.8,5.4,2.5c2.3,0.7,4.7,1,7.3,1c2.8,0,5.1-0.4,7.1-1.1
			c2-0.7,3.5-1.8,4.6-3.1c1.1-1.3,1.6-2.9,1.6-4.8c0-1.7-0.4-3.1-1.1-4.1C597.7,699.3,596.8,698.5,595.6,697.9"/>
	</g>
	<g>
		<path class="st33" d="M606.6,706.1c-1,0-1.9,0.3-2.6,1c-0.7,0.7-1.1,1.6-1.1,2.7c0,1.1,0.4,2,1.1,2.7c0.7,0.7,1.6,1.1,2.6,1.1
			c1,0,1.8-0.4,2.5-1.1c0.7-0.7,1.1-1.6,1.1-2.7c0-1.1-0.4-2-1.1-2.7C608.4,706.4,607.6,706.1,606.6,706.1"/>
	</g>
	<g>
		<path class="st33" d="M621.5,683.3l0.4,4c1.8-3.1,4.7-4.7,8.9-4.7c3.1,0,5.6,0.9,7.5,2.6l-2.9,5.5c-1.5-1.2-3.3-1.8-5.3-1.8
			c-2.3,0-4.3,0.7-5.8,2.1c-1.6,1.4-2.3,3.5-2.3,6.1v16.4h-6.3v-30.2H621.5z"/>
		<path class="st33" d="M652.3,674.6v8.8h8.8v5.5h-8.9v14.4c0,3.3,1.5,5,4.4,5c1.2,0,2.5-0.3,3.9-1l1.8,5.4c-2,0.9-4.1,1.3-6.1,1.3
			c-3.3,0.1-5.8-0.8-7.6-2.6s-2.7-4.5-2.7-8.1v-14.4h-5.8v-5.5h5.8v-8.1L652.3,674.6z"/>
	</g>
</g>
</svg>
