<svg width="1248" height="812" viewBox="0 0 1248 812" fill="none" xmlns="http://www.w3.org/2000/svg">
<g clip-path="url(#clip0_451_338)">
<g filter="url(#filter0_b_451_338)">
<path d="M1221.19 812H26.8117C11.9396 812 0 800.059 0 785.185V26.8153C0 11.9412 11.9396 0 26.8117 0H1221.19C1236.06 0 1248 11.9412 1248 26.8153V785.185C1248 800.059 1236.06 812 1221.19 812Z" fill="url(#paint0_linear_451_338)" fill-opacity="0.25"/>
<path d="M1221.19 812H26.8117C11.9396 812 0 800.059 0 785.185V26.8153C0 11.9412 11.9396 0 26.8117 0H1221.19C1236.06 0 1248 11.9412 1248 26.8153V785.185C1248 800.059 1236.06 812 1221.19 812Z" stroke="url(#paint1_linear_451_338)" stroke-opacity="0.15" stroke-width="2"/>
</g>
<mask id="mask0_451_338" style="mask-type:luminance" maskUnits="userSpaceOnUse" x="-1" y="-1" width="1250" height="814">
<path d="M1221.19 812H26.8117C11.9396 812 0 800.059 0 785.185V26.8153C0 11.9412 11.9396 0 26.8117 0H1221.19C1236.06 0 1248 11.9412 1248 26.8153V785.185C1248 800.059 1236.06 812 1221.19 812Z" fill="white" stroke="white" stroke-width="2"/>
</mask>
<g mask="url(#mask0_451_338)">
<path d="M235.021 -11.1032C279.637 77.9319 341.221 54.0495 411.392 76.2559C481.563 98.4623 461.664 192.106 519.895 211.589C578.127 231.072 616.878 211.589 642.014 283.655C667.15 355.721 723.078 356.769 769.998 373.947C816.918 391.126 806.445 398.039 822.574 444.756C838.493 491.683 867.19 479.114 867.19 479.114H956.213C956.213 479.114 984.701 491.683 1000.83 444.756C1016.75 397.83 1006.49 391.126 1053.41 373.947C1100.33 356.769 1156.25 355.721 1181.39 283.655C1206.53 211.589 1245.28 231.072 1303.51 211.589C1361.74 192.106 1341.84 98.4623 1412.01 76.2559C1482.18 54.0495 1543.98 77.9319 1588.38 -11.1032V-65.9907H241.934L235.021 -11.1032Z" fill="url(#paint2_linear_451_338)"/>
<path d="M991.613 373.529C962.288 367.244 973.809 379.813 965.43 385.051C957.051 390.288 952.862 401.81 942.389 381.908C931.915 362.006 921.442 374.576 912.016 372.481C902.59 370.386 915.158 356.769 904.685 344.199C894.212 331.63 880.596 337.914 868.028 343.152C855.46 348.389 825.088 348.389 825.088 348.389L841.845 419.617L856.508 447.899L903.637 464.659L969.619 471.991L992.242 463.192C995.384 458.374 998.316 452.508 1000.83 444.757C1010.05 417.522 1010.47 403.905 1018.43 393.849C1011.3 384.213 1002.3 375.833 991.613 373.529Z" fill="url(#paint3_linear_451_338)"/>
<path d="M1003.34 436.586C977.998 422.55 927.517 415.427 906.779 403.277C876.826 385.889 868.028 312.775 796.81 322.202C725.591 331.63 667.988 305.443 667.988 305.443L663.17 322.412C691.867 356.978 733.551 360.749 769.998 373.948C816.918 391.126 806.445 398.039 822.574 444.757C838.493 491.683 867.19 479.114 867.19 479.114H956.214C956.214 479.114 984.701 491.683 1000.83 444.757C1001.67 441.824 1002.72 439.1 1003.34 436.586Z" fill="url(#paint4_linear_451_338)"/>
<path d="M906.779 403.277C876.826 385.889 868.028 312.775 796.81 322.202C795.972 322.412 795.134 322.412 794.296 322.412C800.999 325.554 808.33 330.792 815.662 338.962C844.987 371.433 862.791 422.76 917.253 416.475C922.489 415.846 927.517 414.799 932.125 413.123C922.07 409.98 913.063 406.838 906.779 403.277Z" fill="url(#paint5_linear_451_338)"/>
<path d="M1588.38 -11.1032V-65.9907H857.555C868.447 -29.9577 895.049 7.33229 954.538 29.9577C1098.44 84.8452 1168.61 52.3736 1213.23 136.381C1257.85 220.388 1076.24 210.123 971.714 271.714C918.3 303.138 952.653 369.548 1006.49 426.53C1015.07 395.735 1013.4 388.402 1053.41 373.947C1100.33 356.769 1156.25 355.721 1181.39 283.655C1206.53 211.589 1245.28 231.072 1303.51 211.589C1361.74 192.106 1341.84 98.4623 1412.01 76.2559C1482.18 54.0495 1543.77 78.1414 1588.38 -11.1032Z" fill="url(#paint6_linear_451_338)"/>
<path d="M760.782 16.5501L621.277 156.073C619.811 157.54 617.507 157.54 616.04 156.073C614.574 154.607 614.574 152.302 616.04 150.836L755.545 11.3127C757.011 9.84628 759.315 9.84628 760.782 11.3127C762.038 12.9887 762.038 15.2931 760.782 16.5501Z" fill="#E1FFFF"/>
<path d="M623.372 148.741C625.885 151.255 625.885 155.235 623.372 157.749C620.858 160.263 616.878 160.263 614.365 157.749C611.851 155.235 611.851 151.255 614.365 148.741C616.878 146.227 620.858 146.227 623.372 148.741Z" fill="#E1FFFF"/>
<path opacity="0.49" d="M618.763 162.358C623.738 162.358 627.77 158.325 627.77 153.35C627.77 148.375 623.738 144.342 618.763 144.342C613.789 144.342 609.756 148.375 609.756 153.35C609.756 158.325 613.789 162.358 618.763 162.358Z" fill="#E1FFFF"/>
<path d="M618.763 149.37C620.858 149.37 622.743 151.046 622.743 153.35C622.743 155.445 621.067 157.33 618.763 157.33C616.669 157.33 614.784 155.654 614.784 153.35C614.993 151.046 616.669 149.37 618.763 149.37Z" fill="#E1FFFF"/>
<path d="M1300.37 -119.621L1160.86 19.9019C1159.4 21.3684 1157.09 21.3684 1155.63 19.9019C1154.16 18.4355 1154.16 16.131 1155.63 14.6646L1295.13 -124.859C1296.6 -126.325 1298.9 -126.325 1300.37 -124.859C1301.83 -123.392 1301.83 -121.088 1300.37 -119.621Z" fill="#E1FFFF"/>
<path d="M1162.96 12.5695C1165.47 15.0835 1165.47 19.0639 1162.96 21.5778C1160.44 24.0917 1156.46 24.0917 1153.95 21.5778C1151.44 19.0639 1151.44 15.0835 1153.95 12.5695C1156.46 10.0556 1160.44 10.0556 1162.96 12.5695Z" fill="#E1FFFF"/>
<path opacity="0.49" d="M1164.84 10.6842C1168.4 14.2456 1168.4 20.1115 1164.84 23.6729C1161.28 27.2343 1155.42 27.2343 1151.86 23.6729C1148.29 20.1115 1148.29 14.2456 1151.86 10.6842C1155.63 7.12283 1161.28 7.12283 1164.84 10.6842Z" fill="#E1FFFF"/>
<path d="M1158.56 13.198C1160.65 13.198 1162.54 14.874 1162.54 17.1784C1162.54 19.4828 1160.86 21.1588 1158.56 21.1588C1156.46 21.1588 1154.58 19.4828 1154.58 17.1784C1154.58 14.874 1156.25 13.198 1158.56 13.198Z" fill="#E1FFFF"/>
<path d="M776.073 -129.886L636.568 9.63678C635.102 11.1032 632.798 11.1032 631.331 9.63678C629.865 8.17032 629.865 5.86588 631.331 4.39941L770.836 -135.124C772.302 -136.59 774.606 -136.59 776.073 -135.124C777.539 -133.657 777.539 -131.353 776.073 -129.886Z" fill="#E1FFFF"/>
<path d="M638.663 2.30439C641.176 4.81833 641.176 8.79872 638.663 11.3127C636.149 13.8266 632.169 13.8266 629.656 11.3127C627.142 8.79872 627.142 4.81833 629.656 2.30439C632.169 -0.209538 636.358 -0.209538 638.663 2.30439Z" fill="#E1FFFF"/>
<path opacity="0.49" d="M640.757 0.4191C644.318 3.9805 644.318 9.84634 640.757 13.4077C637.196 16.9692 631.331 16.9692 627.77 13.4077C624.209 9.84634 624.209 3.9805 627.77 0.4191C631.331 -3.1423 637.196 -3.1423 640.757 0.4191Z" fill="#E1FFFF"/>
<path d="M634.264 2.93286C636.358 2.93286 638.244 4.60882 638.244 6.91325C638.244 9.0082 636.568 10.8936 634.264 10.8936C632.169 10.8936 630.284 9.21769 630.284 6.91325C630.284 4.60882 632.169 2.93286 634.264 2.93286Z" fill="#E1FFFF"/>
<path d="M396.31 154.397C462.713 154.397 516.544 100.56 516.544 34.1477C516.544 -32.2644 462.713 -86.1021 396.31 -86.1021C329.907 -86.1021 276.077 -32.2644 276.077 34.1477C276.077 100.56 329.907 154.397 396.31 154.397Z" fill="url(#paint7_linear_451_338)"/>
<path d="M355.045 23.8823C355.045 39.5944 342.268 52.3736 326.558 52.3736C310.848 52.3736 298.07 39.5944 298.07 23.8823C298.07 8.17027 310.848 -4.60889 326.558 -4.60889C342.268 -4.39939 355.045 8.37976 355.045 23.8823Z" fill="url(#paint8_linear_451_338)"/>
<path d="M489.104 -17.1785C489.104 -4.39937 478.84 5.86584 466.062 5.86584C453.285 5.86584 443.021 -4.39937 443.021 -17.1785C443.021 -29.9577 453.285 -40.2229 466.062 -40.2229C478.84 -40.0134 489.104 -29.7482 489.104 -17.1785Z" fill="url(#paint9_linear_451_338)"/>
<path d="M390.026 78.9793C396.042 78.9793 400.918 74.102 400.918 68.0856C400.918 62.0692 396.042 57.1919 390.026 57.1919C384.011 57.1919 379.134 62.0692 379.134 68.0856C379.134 74.102 384.011 78.9793 390.026 78.9793Z" fill="url(#paint10_linear_451_338)"/>
<path d="M462.92 51.7452C462.92 56.1446 459.359 59.706 454.961 59.706C450.562 59.706 447.001 56.1446 447.001 51.7452C447.001 47.3458 450.562 43.7844 454.961 43.7844C459.359 43.9939 462.92 47.3458 462.92 51.7452Z" fill="url(#paint11_linear_451_338)"/>
<path d="M491.408 169.9C491.408 176.604 485.962 181.841 479.468 181.841C472.765 181.841 467.529 176.394 467.529 169.9C467.529 163.196 472.975 157.959 479.468 157.959C485.962 157.959 491.408 163.196 491.408 169.9Z" fill="url(#paint12_radial_451_338)"/>
<path d="M709.043 -1.88531C709.043 0.419129 707.158 2.30458 704.645 2.30458C702.34 2.30458 700.246 0.419129 700.246 -1.88531C700.246 -4.18975 702.131 -6.0752 704.645 -6.0752C707.158 -6.0752 709.043 -4.18975 709.043 -1.88531Z" fill="white"/>
<path d="M587.134 181.632C587.134 183.936 585.249 185.822 582.735 185.822C580.431 185.822 578.336 183.936 578.336 181.632C578.336 179.327 580.222 177.442 582.735 177.442C585.249 177.442 587.134 179.327 587.134 181.632Z" fill="white"/>
<path d="M905.942 18.6452C905.942 20.9496 904.056 22.8351 901.543 22.8351C899.239 22.8351 897.144 20.9496 897.144 18.6452C897.144 16.3408 899.029 14.4553 901.543 14.4553C904.056 14.4553 905.942 16.3408 905.942 18.6452Z" fill="white"/>
<path d="M689.353 160.263C689.353 161.939 688.097 163.196 686.421 163.196C684.745 163.196 683.488 161.939 683.488 160.263C683.488 158.587 684.745 157.33 686.421 157.33C688.097 157.54 689.353 158.797 689.353 160.263Z" fill="white"/>
<path d="M964.173 267.734C964.173 269.41 962.916 270.667 961.241 270.667C959.565 270.667 958.308 269.41 958.308 267.734C958.308 266.058 959.565 264.801 961.241 264.801C962.916 264.801 964.173 266.058 964.173 267.734Z" fill="white"/>
<path d="M995.803 19.9022C995.803 21.5781 994.546 22.8351 992.87 22.8351C991.194 22.8351 989.938 21.5781 989.938 19.9022C989.938 18.2262 991.194 16.9692 992.87 16.9692C994.336 16.9692 995.803 18.2262 995.803 19.9022Z" fill="white"/>
<path d="M1150.39 310.052C1150.39 311.728 1149.13 312.985 1147.46 312.985C1145.78 312.985 1144.52 311.728 1144.52 310.052C1144.52 308.376 1145.78 307.119 1147.46 307.119C1149.13 307.119 1150.39 308.376 1150.39 310.052Z" fill="white"/>
<path d="M1081.47 136.8C1081.47 138.476 1080.22 139.733 1078.54 139.733C1076.87 139.733 1075.61 138.476 1075.61 136.8C1075.61 135.124 1076.87 133.867 1078.54 133.867C1080.01 134.076 1081.47 135.333 1081.47 136.8Z" fill="white"/>
<path d="M928.355 180.375C928.355 182.051 927.098 183.308 925.422 183.308C923.746 183.308 922.489 182.051 922.489 180.375C922.489 178.699 923.746 177.442 925.422 177.442C927.098 177.442 928.355 178.699 928.355 180.375Z" fill="white"/>
<path d="M1295.13 199.02C1299.95 248.251 1263.92 291.826 1214.9 296.644C1165.68 301.462 1122.11 265.429 1117.29 216.408C1112.48 167.176 1148.5 123.602 1197.52 118.783C1246.74 113.965 1290.31 149.998 1295.13 199.02Z" fill="url(#paint13_linear_451_338)"/>
<path d="M1295.76 206.561C1295.55 208.237 1295.55 210.751 1295.34 213.684C1341.42 227.092 1371.79 239.871 1370.33 246.575C1368.23 256.631 1294.71 248.879 1206.53 229.396C1118.13 209.913 1048.38 186.24 1050.47 176.185C1051.73 170.109 1080.01 170.528 1122.11 176.394L1125.04 169.69C1055.71 159.844 1006.28 160.263 1003.55 172.623C999.782 190.011 1088.6 224.159 1202.13 249.089C1315.45 274.019 1410.55 280.094 1414.32 262.706C1417.25 249.927 1368.23 227.511 1295.76 206.561Z" fill="url(#paint14_linear_451_338)"/>
<path d="M1014.45 420.874C1023.93 420.874 1031.62 413.183 1031.62 403.695C1031.62 394.208 1023.93 386.517 1014.45 386.517C1004.96 386.517 997.269 394.208 997.269 403.695C997.269 413.183 1004.96 420.874 1014.45 420.874Z" fill="url(#paint15_radial_451_338)"/>
<path d="M993.08 574.015C993.08 574.015 1004.18 535.468 1018.84 511.376C1033.51 487.493 1045.45 469.477 1047.96 462.564C1050.47 455.65 1060.74 452.298 1072.89 465.078C1084.83 477.857 1068.7 513.052 1061.78 534.42C1054.87 555.789 1036.02 591.822 1036.02 591.822L993.08 574.015Z" fill="url(#paint16_linear_451_338)"/>
<path d="M1016.75 545.314C995.384 544.476 988.471 547.828 988.471 547.828C988.471 547.828 979.883 568.358 975.694 576.947C972.342 583.651 971.295 584.489 967.944 593.916C962.916 595.383 959.774 596.64 959.774 596.64L891.279 597.687C891.279 597.687 879.758 603.344 852.528 618.218C825.088 633.092 813.148 650.689 806.864 666.82C800.79 682.532 792.83 722.127 792.411 723.803C796.391 725.688 811.891 732.183 828.439 730.716C828.439 730.716 817.337 824.989 816.709 832.74C814.405 862.907 1027.64 833.578 1027.64 833.578C1024.71 821.008 1010.47 729.669 1010.47 729.669C1010.47 729.669 1018.84 709.348 1017.8 698.245C1017.38 692.379 1020.1 671.429 1022.82 650.899C1024.92 643.567 1027.01 635.606 1029.11 629.74C1034.34 614.237 1029.74 612.98 1040 596.64C1050.26 580.299 1051.94 569.196 1051.94 569.196C1051.94 569.196 1038.11 546.152 1016.75 545.314Z" fill="url(#paint17_linear_451_338)"/>
<path d="M792.201 724.012C791.573 723.593 791.154 723.384 791.154 723.384L792.201 724.012Z" fill="url(#paint18_linear_451_338)"/>
<path d="M1047.96 315.918C1047.96 315.918 1051.73 306.909 1053.62 304.186C1055.29 301.463 1067.44 297.692 1067.44 297.692C1067.44 297.692 1069.12 300.415 1067.02 303.557C1064.93 306.7 1058.85 309.842 1058.85 309.842C1058.85 309.842 1056.34 314.87 1056.34 317.594C1056.13 320.317 1057.8 327.859 1057.8 327.859L1049.43 322.412L1047.96 315.918Z" fill="url(#paint19_linear_451_338)"/>
<path d="M1051.52 318.641C1051.52 318.641 1054.03 312.147 1055.5 309.633C1056.97 307.119 1056.76 302.929 1057.8 301.043C1058.64 299.158 1059.06 292.664 1060.32 290.15C1061.99 287.007 1065.55 292.035 1065.35 295.597C1065.14 299.158 1063.04 306.909 1062.2 310.471C1061.37 313.823 1062.62 322.831 1062.2 324.507C1061.78 326.183 1060.32 333.934 1060.32 333.934L1054.66 329.325L1051.52 318.641Z" fill="url(#paint20_linear_451_338)"/>
<path d="M1057.6 327.859C1057.6 327.859 1059.06 321.155 1060.32 319.27C1061.37 317.594 1063.25 314.451 1064.72 312.985C1066.18 311.728 1067.23 309.842 1068.7 308.585C1070.58 307.747 1072.05 311.728 1069.74 314.451C1067.65 317.175 1066.18 321.993 1065.76 323.669C1065.55 325.554 1065.35 326.602 1065.76 329.954C1065.97 333.096 1064.3 337.077 1064.3 337.077L1057.6 327.859Z" fill="url(#paint21_linear_451_338)"/>
<path d="M1043.14 475.762C1043.14 475.762 1041.26 465.077 1045.24 448.318C1049.22 431.558 1062.41 382.327 1061.58 361.797C1061.58 361.797 1061.99 352.998 1054.66 345.666C1047.33 338.543 1044.19 324.297 1042.3 319.898C1040.42 315.499 1042.93 298.53 1041.47 293.502C1042.09 289.102 1047.75 292.454 1049.22 298.111C1050.47 303.767 1050.05 315.08 1052.36 317.593C1054.66 320.107 1064.09 335.61 1069.53 338.962C1074.98 342.523 1084.62 336.867 1085.87 334.981C1087.13 333.096 1095.93 320.526 1098.23 321.364C1101.79 323.459 1101.37 331.63 1098.65 336.448C1095.93 341.266 1089.02 350.484 1089.64 353.836C1090.27 357.188 1086.5 360.54 1084.62 365.358C1082.73 370.177 1085.66 385.26 1087.13 406.21C1088.6 427.368 1087.55 472.2 1075.82 482.884C1064.09 493.778 1051.1 496.292 1043.14 475.762Z" fill="url(#paint22_linear_451_338)"/>
<path d="M947.625 457.955C946.787 458.164 945.112 446.014 933.8 440.567C922.489 435.12 899.658 431.349 888.346 443.919C877.035 456.488 875.988 462.983 866.143 470.943C856.298 478.904 856.298 495.454 856.507 507.814C856.717 520.175 866.352 536.096 871.38 542.381C876.616 548.666 928.564 527.507 928.773 526.669C928.983 525.831 948.882 524.155 948.882 524.155L973.39 525.621C973.39 525.621 983.235 503.834 978.836 488.122C974.646 472.41 964.173 452.927 947.625 457.955Z" fill="#532739"/>
<path d="M797.019 724.851C797.019 724.851 781.937 792.936 825.716 792.098C841.635 774.082 828.439 730.926 828.439 730.926C828.439 730.926 813.986 732.602 797.019 724.851Z" fill="url(#paint23_linear_451_338)"/>
<path d="M893.374 565.844C893.374 565.844 900.705 584.07 890.441 600.201C889.394 602.506 897.772 621.989 924.165 624.712C924.165 624.712 946.368 623.665 960.193 600.201C960.193 600.201 950.558 583.023 949.929 560.816L893.374 565.844Z" fill="url(#paint24_linear_451_338)"/>
<path opacity="0.27" d="M934.01 584.908C943.645 580.718 949.511 579.461 952.443 579.042C951.186 573.596 950.139 567.52 949.929 560.816L893.374 566.054C893.374 566.054 900.705 584.28 890.441 600.411C889.394 602.715 897.772 622.198 924.165 624.922C924.165 624.922 926.05 624.922 928.983 624.084C922.07 617.38 914.53 621.57 909.293 613.399C903.218 603.972 908.036 593.707 912.226 588.889C916.834 583.861 919.347 591.193 934.01 584.908Z" fill="url(#paint25_linear_451_338)"/>
<path d="M967.944 523.526C967.944 523.526 977.579 509.49 986.167 516.613C994.755 523.736 970.248 557.464 961.869 544.685C953.7 531.906 967.944 523.526 967.944 523.526Z" fill="url(#paint26_linear_451_338)"/>
<path d="M866.562 525.202C866.562 525.202 856.926 511.166 848.338 518.289C839.75 525.412 864.258 559.14 872.636 546.361C881.015 533.582 866.562 525.202 866.562 525.202Z" fill="url(#paint27_linear_451_338)"/>
<path d="M868.238 537.981C868.238 537.981 875.569 577.576 923.118 583.023C923.118 583.023 951.815 582.185 966.058 543.638C974.646 509.281 975.694 503.624 967.315 488.122C959.146 472.619 940.713 451.46 907.827 459.421C875.15 467.172 859.231 491.474 868.238 537.981Z" fill="url(#paint28_linear_451_338)"/>
<path opacity="0.27" d="M942.598 575.9C950.767 570.453 959.984 560.816 966.268 543.847C973.18 516.194 975.275 507.186 971.295 496.502L952.024 487.074L880.387 495.664L865.934 510.957C865.724 518.918 866.352 528.135 868.447 538.191C868.447 538.191 873.265 563.959 900.077 576.738C882.062 564.587 877.454 543.009 881.853 539.658C887.299 535.677 892.955 536.515 899.867 529.602C906.779 522.689 918.51 517.661 918.51 517.661C925.841 515.147 931.078 517.032 939.666 520.594C948.254 523.945 954.747 524.574 959.146 530.859C963.335 537.144 954.957 554.741 949.092 566.263C946.788 570.034 944.693 573.177 942.598 575.9Z" fill="url(#paint29_linear_451_338)"/>
<path d="M903.637 476.181C903.637 476.181 871.17 480.371 864.258 496.292C857.345 512.214 860.068 530.649 866.771 533.582C873.684 536.515 883.529 536.934 897.144 527.088C910.759 517.242 924.165 511.166 934.429 513.89C944.693 516.404 961.45 530.649 974.646 524.993C984.072 518.08 981.14 488.541 970.038 480.79C958.937 473.038 945.531 473.457 935.686 473.457C926.05 473.667 913.482 473.667 903.637 476.181Z" fill="url(#paint30_linear_451_338)"/>
<path d="M970.038 480.79C958.936 473.038 945.531 473.457 935.686 473.457C925.841 473.457 913.482 473.457 903.637 475.971C903.637 475.971 871.17 480.161 864.258 496.083C860.487 504.672 859.649 514.099 860.697 521.432C884.785 523.736 903.009 502.996 918.928 501.53C935.476 499.854 961.66 517.451 974.228 512.423C976.532 511.585 978.626 510.328 980.302 508.862C980.511 498.178 976.741 485.608 970.038 480.79Z" fill="url(#paint31_linear_451_338)"/>
<path d="M972.552 502.787C975.275 501.949 977.579 500.692 979.464 499.016C977.998 491.264 974.646 484.142 970.038 480.79C958.936 473.038 945.53 473.457 935.686 473.457C925.841 473.457 913.482 473.457 903.637 475.971C903.637 475.971 871.17 480.161 864.258 496.083C862.163 500.692 861.116 505.719 860.487 510.328C861.325 510.957 862.372 511.376 863.839 511.585C874.94 512.423 906.151 492.312 918.719 491.474C931.077 490.636 959.355 506.557 972.552 502.787Z" fill="url(#paint32_linear_451_338)"/>
<path d="M877.245 492.94C877.664 494.197 876.616 495.664 874.941 496.292C873.265 496.921 871.38 496.502 870.961 495.245C870.542 493.988 871.589 492.521 873.265 491.893C874.941 491.264 876.826 491.893 877.245 492.94Z" fill="#FEFEFE"/>
<path d="M963.545 487.075L935.895 481.628C934.848 481.418 934.219 480.371 934.429 479.533C934.638 478.485 935.686 477.857 936.524 478.066L964.383 483.513C965.43 483.723 966.058 484.77 965.849 485.608C965.43 486.656 964.592 487.284 963.545 487.075Z" fill="url(#paint33_linear_451_338)"/>
<path d="M963.545 495.454L935.895 490.007C934.848 489.798 934.219 488.75 934.429 487.912C934.638 486.865 935.686 486.236 936.524 486.446L964.383 491.893C965.43 492.102 966.058 493.15 965.849 493.988C965.43 494.826 964.592 495.454 963.545 495.454Z" fill="url(#paint34_linear_451_338)"/>
<path d="M851.061 604.182C851.061 604.182 860.906 611.095 861.954 613.609C863.001 616.123 860.906 626.179 860.906 627.017C860.906 627.855 855.67 635.187 854.203 634.977C852.737 634.768 851.48 630.997 853.156 627.855C854.832 624.922 855.041 617.799 853.365 616.542C851.69 615.285 847.71 612.143 846.663 610.467C845.825 609 847.5 604.182 851.061 604.182Z" fill="url(#paint35_linear_451_338)"/>
<path d="M845.825 607.743C845.825 607.743 855.67 614.656 856.717 617.17C857.764 619.684 855.67 629.74 855.67 630.578C855.67 631.416 850.433 638.748 848.967 638.539C847.5 638.329 846.244 634.558 847.919 631.416C849.595 628.483 849.804 621.36 848.129 620.103C846.453 618.846 842.473 615.704 841.426 614.028C840.379 612.352 842.054 607.743 845.825 607.743Z" fill="url(#paint36_linear_451_338)"/>
<path d="M841.635 613.19C841.635 613.19 848.967 618.218 849.805 620.103C850.642 621.989 848.967 629.531 848.967 630.159C848.967 630.788 845.196 636.234 843.939 636.025C842.892 635.815 841.845 633.092 843.102 630.788C844.358 628.483 844.568 623.246 843.311 622.408C842.054 621.36 839.122 619.056 838.284 618.008C837.656 616.751 838.912 613.19 841.635 613.19Z" fill="url(#paint37_linear_451_338)"/>
<path opacity="0.36" d="M901.333 844.891C840.588 837.978 837.027 822.684 843.102 808.02C849.176 793.355 859.44 779.738 857.764 743.705C856.089 707.672 860.278 699.083 860.068 682.952C859.859 666.611 872.427 644.405 872.427 644.405L846.663 668.287L831.162 724.013L826.973 741.82C824.04 766.749 816.918 826.874 816.499 832.95C815.452 846.567 858.393 848.033 905.941 845.519C904.475 845.1 903.009 844.891 901.333 844.891Z" fill="url(#paint38_linear_451_338)"/>
<path d="M834.514 653.203C834.514 653.203 827.182 691.541 820.27 709.767C813.357 727.993 800.789 760.674 807.073 778.271C813.357 796.079 830.534 794.822 840.169 786.232C849.805 777.643 851.061 756.065 851.69 739.934C852.318 724.012 858.602 676.038 860.906 667.449C863.21 658.86 872.427 650.899 878.083 644.614C883.738 638.329 888.346 629.112 893.583 625.131C898.82 621.151 894.211 615.913 888.346 617.17C882.691 618.218 879.758 625.131 875.15 628.693C870.542 632.254 865.515 628.693 862.582 628.064C859.649 627.436 864.048 601.458 866.981 595.173C869.913 588.889 882.062 587.632 882.691 581.347C883.319 575.062 877.035 578.414 871.17 580.718C865.515 583.023 859.649 588.051 857.555 590.984C855.251 593.917 851.899 601.877 851.271 604.182C850.642 606.486 839.331 612.143 836.399 616.123C833.466 620.103 831.162 628.064 830.743 634.349C830.115 640.634 834.514 653.203 834.514 653.203Z" fill="url(#paint39_linear_451_338)"/>
<path opacity="0.27" d="M862.582 628.064C860.906 627.645 861.744 618.427 863.21 609.629L854.203 598.735C854.203 598.735 853.784 598.735 853.156 598.525C852.109 600.83 851.271 603.134 851.061 603.972C850.642 605.229 846.663 607.743 842.892 610.467C842.892 612.561 842.683 614.028 842.683 614.028C842.683 614.028 837.446 619.265 837.237 621.36C837.027 623.455 840.169 623.874 840.797 626.388C841.426 628.693 840.379 631.416 840.379 634.558C840.379 637.701 839.541 640.424 841.845 639.586C844.149 638.748 843.102 642.1 848.338 640.843C853.575 639.586 857.764 636.863 859.231 633.93C860.487 631.625 863.839 630.997 865.515 629.112C864.467 628.693 863.42 628.274 862.582 628.064Z" fill="url(#paint40_linear_451_338)"/>
<path opacity="0.83" d="M886.671 612.98C903.561 612.98 917.253 599.287 917.253 582.394C917.253 565.502 903.561 551.808 886.671 551.808C869.781 551.808 856.089 565.502 856.089 582.394C856.089 599.287 869.781 612.98 886.671 612.98Z" fill="url(#paint41_linear_451_338)"/>
<path opacity="0.83" d="M886.671 613.609C869.494 613.609 855.46 599.573 855.46 582.394C855.46 565.216 869.494 551.18 886.671 551.18C903.847 551.18 917.881 565.216 917.881 582.394C917.881 599.573 903.847 613.609 886.671 613.609ZM886.671 552.437C870.123 552.437 856.926 565.844 856.926 582.185C856.926 598.735 870.332 611.933 886.671 611.933C903.218 611.933 916.415 598.525 916.415 582.185C916.415 565.844 903.009 552.437 886.671 552.437Z" fill="url(#paint42_linear_451_338)"/>
<g opacity="0.94">
<path d="M876.197 584.699C875.15 585.746 875.15 587.213 876.197 588.26C877.245 589.307 878.711 589.307 879.758 588.26C883.948 584.07 890.86 584.07 895.049 588.26C896.097 589.307 897.563 589.307 898.61 588.26C899.658 587.213 899.658 585.746 898.61 584.699C892.536 578.414 882.481 578.623 876.197 584.699Z" fill="white"/>
<path d="M905.523 577.576C895.468 567.52 879.13 567.52 869.075 577.785C868.028 578.833 868.028 580.299 869.075 581.347C870.123 582.394 871.589 582.394 872.636 581.347C880.806 573.176 894.002 573.176 901.962 581.347C903.009 582.394 904.475 582.394 905.523 581.347C906.57 580.09 906.57 578.623 905.523 577.576Z" fill="white"/>
<path d="M884.157 590.146C882.272 592.031 882.272 595.173 884.157 597.059C886.042 598.944 889.184 598.944 891.069 597.059C892.955 595.173 892.955 592.031 891.069 590.146C889.184 588.051 886.042 588.26 884.157 590.146Z" fill="white"/>
</g>
<path d="M1324.25 151.045C1324.25 151.045 1313.14 144.342 1299.74 145.808C1286.33 147.275 1284.03 159.216 1272.93 157.749C1261.82 156.283 1262.45 153.978 1251.98 159.216C1241.51 164.453 1237.74 166.758 1228.1 165.92C1218.47 165.082 1211.76 162.987 1206.53 168.853C1201.29 174.718 1200.66 177.861 1212.39 176.394C1224.33 174.928 1217.63 174.09 1233.97 176.394C1250.3 178.699 1249.68 173.461 1260.15 174.09C1270.62 174.928 1263.92 179.327 1272.09 183.098C1280.26 186.869 1275.02 177.861 1287.8 177.232C1300.58 176.394 1307.28 181.003 1314.61 173.461C1322.15 165.92 1329.48 164.453 1331.79 157.121C1333.88 149.579 1330.95 151.045 1324.25 151.045Z" fill="white"/>
<path d="M1054.66 239.243C1054.66 239.243 1059.06 225.416 1071 228.977C1083.15 232.329 1078.75 246.156 1085.66 244.48C1092.58 242.804 1094.25 236.729 1102.84 242.804C1111.43 248.879 1105.35 253.069 1114.99 253.069C1124.41 253.069 1119.39 246.994 1129.65 253.069C1139.92 259.145 1141.8 253.907 1151.23 254.745C1160.65 255.583 1163.38 252.231 1169.24 255.583C1175.32 258.935 1171.75 265.848 1161.49 264.172C1151.23 262.497 1150.39 257.259 1138.24 261.659C1126.09 266.058 1121.06 265.01 1109.75 263.334C1098.65 261.659 1094.25 265.01 1083.15 263.334C1072.05 261.659 1070.16 259.983 1061.58 259.983C1052.99 259.983 1047.75 265.22 1040 259.983C1032.25 254.745 1038.32 252.231 1045.24 249.717C1052.15 247.203 1054.66 239.243 1054.66 239.243Z" fill="white"/>
<path d="M801.627 444.338C823.492 444.338 841.216 426.61 841.216 404.743C841.216 382.876 823.492 365.149 801.627 365.149C779.763 365.149 762.038 382.876 762.038 404.743C762.038 426.61 779.763 444.338 801.627 444.338Z" fill="url(#paint43_linear_451_338)"/>
<path d="M558.018 205.933L554.038 227.93L527.436 237.776L531.625 215.779L558.018 205.933Z" fill="url(#paint44_linear_451_338)"/>
<path d="M531.625 215.779L527.436 237.776L505.652 219.76L509.631 197.553L531.625 215.779Z" fill="url(#paint45_linear_451_338)"/>
<path d="M558.018 205.933L531.625 215.779L509.631 197.553L536.234 187.707L558.018 205.933Z" fill="url(#paint46_linear_451_338)"/>
<path d="M626.095 253.069C626.095 253.069 633.426 277.161 674.272 265.639C715.118 254.117 791.573 178.699 799.952 155.654L816.709 169.271C816.709 169.271 736.483 215.989 707.158 299.158C687.259 355.302 741.301 364.73 741.301 364.73C741.301 364.73 621.905 378.766 626.095 253.069Z" fill="white"/>
<path opacity="0.53" d="M827.811 132.191C827.811 132.191 790.526 175.556 766.437 179.746C742.348 183.936 746.538 198.601 732.922 210.123C719.307 221.645 707.786 206.98 689.982 217.455C672.177 227.93 683.698 244.689 667.988 247.832C652.278 250.974 638.663 217.455 615.621 233.167C592.58 248.879 571.633 228.977 571.633 228.977L621.905 309.633L662.751 300.205L718.26 261.449L814.614 155.654L827.811 132.191Z" fill="white"/>
<path opacity="0.53" d="M834.514 139.104C834.514 139.104 795.553 180.794 793.877 205.304C792.201 229.606 777.329 227.092 767.275 241.966C757.221 256.84 773.14 266.686 764.552 285.541C755.964 304.395 738.159 294.759 736.693 310.68C735.227 326.602 769.998 336.657 756.802 361.168C743.605 385.679 765.599 404.534 765.599 404.534L679.927 363.263L684.955 321.574L717.422 262.287L812.729 154.816L834.514 139.104Z" fill="white"/>
<path d="M816.5 173.88L795.134 154.188L799.114 149.789L820.479 169.481L816.5 173.88Z" fill="url(#paint47_linear_451_338)"/>
<path d="M842.473 150.836L844.987 174.509C845.196 175.975 844.568 177.232 843.521 178.07L826.345 191.897C825.507 192.525 824.459 191.687 824.878 190.64L830.115 179.327L822.365 167.177L842.473 150.836Z" fill="url(#paint48_linear_451_338)"/>
<path d="M815.662 126.116L791.783 125.487C790.316 125.487 789.06 126.116 788.431 127.163L776.073 145.389C775.444 146.227 776.492 147.274 777.329 146.855L788.012 140.571L800.58 147.274L815.662 126.116Z" fill="url(#paint49_linear_451_338)"/>
<path d="M868.657 95.32C832.628 85.6832 795.344 147.903 795.344 147.903L808.749 160.263L822.155 172.623C822.155 172.833 881.225 130.515 868.657 95.32Z" fill="url(#paint50_linear_451_338)"/>
<path d="M800.161 170.109C799.533 169.481 799.533 168.643 800.161 168.015L825.716 140.152C826.344 139.523 827.182 139.523 827.811 140.152C828.439 140.78 828.439 141.618 827.811 142.247L802.256 170.109C801.627 170.738 800.79 170.738 800.161 170.109Z" fill="url(#paint51_linear_451_338)"/>
<path d="M851.061 132.82C846.663 137.638 839.122 137.847 834.304 133.448C829.486 129.049 829.277 121.507 833.676 116.688C838.075 111.87 845.615 111.661 850.433 116.06C855.251 120.669 855.67 128.001 851.061 132.82Z" fill="url(#paint52_linear_451_338)"/>
<path d="M848.967 130.934C845.615 134.495 839.96 134.705 836.399 131.353C832.838 128.001 832.628 122.345 835.98 118.783C839.331 115.222 844.987 115.013 848.548 118.364C852.109 121.716 852.318 127.373 848.967 130.934Z" fill="url(#paint53_linear_451_338)"/>
<path d="M600.959 24.5109L576.661 36.8711L547.335 18.6451L571.633 6.28491L600.959 24.5109Z" fill="url(#paint54_linear_451_338)"/>
<path d="M571.633 6.28482L547.335 18.645L548.592 -15.9216L572.89 -28.2817L571.633 6.28482Z" fill="url(#paint55_linear_451_338)"/>
<path d="M600.959 24.5108L571.633 6.28482L572.89 -28.2817L602.216 -10.0557L600.959 24.5108Z" fill="url(#paint56_linear_451_338)"/>
</g>
<path d="M949.511 193.992L903.847 240.499C902.381 241.966 900.077 241.966 898.61 240.499C897.144 239.033 897.144 236.729 898.61 235.262L944.274 188.754C945.74 187.288 948.044 187.288 949.511 188.754C950.767 190.221 950.767 192.525 949.511 193.992Z" fill="#E1FFFF"/>
<path d="M1009.84 132.819L964.173 179.327C962.707 180.794 960.403 180.794 958.937 179.327C957.47 177.861 957.47 175.556 958.937 174.09L1004.6 127.582C1006.07 126.116 1008.37 126.116 1009.84 127.582C1011.3 129.048 1011.3 131.353 1009.84 132.819Z" fill="#E1FFFF"/>
<path d="M905.942 233.167C908.455 235.681 908.455 239.662 905.942 242.175C903.428 244.689 899.448 244.689 896.935 242.175C894.421 239.662 894.421 235.681 896.935 233.167C899.448 230.653 903.428 230.653 905.942 233.167Z" fill="#E1FFFF"/>
<path opacity="0.49" d="M901.333 246.575C906.308 246.575 910.34 242.542 910.34 237.567C910.34 232.591 906.308 228.558 901.333 228.558C896.359 228.558 892.326 232.591 892.326 237.567C892.326 242.542 896.359 246.575 901.333 246.575Z" fill="#E1FFFF"/>
<path d="M901.333 233.586C903.428 233.586 905.313 235.262 905.313 237.567C905.313 239.662 903.637 241.547 901.333 241.547C899.239 241.547 897.353 239.871 897.353 237.567C897.353 235.472 899.239 233.586 901.333 233.586Z" fill="#E1FFFF"/>
<path d="M957.889 184.145C957.889 186.24 956.214 187.916 954.119 187.916C952.024 187.916 950.349 186.24 950.349 184.145C950.349 182.05 952.024 180.375 954.119 180.375C956.214 180.375 957.889 182.05 957.889 184.145Z" fill="#E1FFFF"/>
<path d="M872.636 241.128L879.339 267.524L855.041 291.826L848.338 265.429L872.636 241.128Z" fill="url(#paint57_linear_451_338)"/>
<path d="M848.338 265.429L855.041 291.825L821.527 282.817L814.824 256.421L848.338 265.429Z" fill="url(#paint58_linear_451_338)"/>
<path d="M872.636 241.128L848.338 265.429L814.824 256.421L839.122 232.12L872.636 241.128Z" fill="url(#paint59_linear_451_338)"/>
</g>
<defs>
<filter id="filter0_b_451_338" x="-201" y="-201" width="1650" height="1214" filterUnits="userSpaceOnUse" color-interpolation-filters="sRGB">
<feFlood flood-opacity="0" result="BackgroundImageFix"/>
<feGaussianBlur in="BackgroundImageFix" stdDeviation="100"/>
<feComposite in2="SourceAlpha" operator="in" result="effect1_backgroundBlur_451_338"/>
<feBlend mode="normal" in="SourceGraphic" in2="effect1_backgroundBlur_451_338" result="shape"/>
</filter>
<linearGradient id="paint0_linear_451_338" x1="263.467" y1="24.7561" x2="231.376" y2="810.69" gradientUnits="userSpaceOnUse">
<stop offset="0.225813" stop-color="#3E5FAA" stop-opacity="0.5"/>
<stop offset="1" stop-color="#57C8E7" stop-opacity="0"/>
</linearGradient>
<linearGradient id="paint1_linear_451_338" x1="624" y1="0" x2="624" y2="812" gradientUnits="userSpaceOnUse">
<stop stop-color="#57C8E7"/>
<stop offset="1" stop-color="#3E5FAA"/>
</linearGradient>
<linearGradient id="paint2_linear_451_338" x1="273.815" y1="-909.69" x2="1484.41" y2="747.675" gradientUnits="userSpaceOnUse">
<stop stop-color="#E7357C"/>
<stop offset="1" stop-color="#5D0080"/>
</linearGradient>
<linearGradient id="paint3_linear_451_338" x1="825.107" y1="404.396" x2="1018.36" y2="404.396" gradientUnits="userSpaceOnUse">
<stop stop-color="#BDF7A3"/>
<stop offset="1" stop-color="#009EE0"/>
</linearGradient>
<linearGradient id="paint4_linear_451_338" x1="827.62" y1="257.724" x2="838.096" y2="479.787" gradientUnits="userSpaceOnUse">
<stop stop-color="#FFE900"/>
<stop offset="1" stop-color="#FF13BD"/>
</linearGradient>
<linearGradient id="paint5_linear_451_338" x1="929.283" y1="266.865" x2="833.958" y2="412.452" gradientUnits="userSpaceOnUse">
<stop stop-color="#FFE900"/>
<stop offset="1" stop-color="#FF13BD"/>
</linearGradient>
<linearGradient id="paint6_linear_451_338" x1="857.497" y1="180.363" x2="1588.39" y2="180.363" gradientUnits="userSpaceOnUse">
<stop stop-color="#E7357C"/>
<stop offset="1" stop-color="#5D0080"/>
</linearGradient>
<linearGradient id="paint7_linear_451_338" x1="276.059" y1="34.1039" x2="516.383" y2="34.1039" gradientUnits="userSpaceOnUse">
<stop stop-color="#FFE900"/>
<stop offset="0.1684" stop-color="#FFCB1B"/>
<stop offset="0.5369" stop-color="#FF7D60"/>
<stop offset="1" stop-color="#FF13BD"/>
</linearGradient>
<linearGradient id="paint8_linear_451_338" x1="311.606" y1="50.1161" x2="352.347" y2="-21.1712" gradientUnits="userSpaceOnUse">
<stop stop-color="#E7FFF9"/>
<stop offset="1" stop-color="#FF5668"/>
</linearGradient>
<linearGradient id="paint9_linear_451_338" x1="467.455" y1="-1.32358" x2="463.38" y2="-52.6532" gradientUnits="userSpaceOnUse">
<stop stop-color="#E7FFF9"/>
<stop offset="1" stop-color="#FF5668"/>
</linearGradient>
<linearGradient id="paint10_linear_451_338" x1="379.14" y1="68.1164" x2="400.906" y2="68.1164" gradientUnits="userSpaceOnUse">
<stop stop-color="#E7FFF9"/>
<stop offset="1" stop-color="#FF5668"/>
</linearGradient>
<linearGradient id="paint11_linear_451_338" x1="447.158" y1="51.763" x2="462.877" y2="51.763" gradientUnits="userSpaceOnUse">
<stop stop-color="#E7FFF9"/>
<stop offset="1" stop-color="#FF5668"/>
</linearGradient>
<radialGradient id="paint12_radial_451_338" cx="0" cy="0" r="1" gradientUnits="userSpaceOnUse" gradientTransform="translate(473.352 164.485) scale(21.5939 21.5968)">
<stop stop-color="#FFEC41"/>
<stop offset="0.1968" stop-color="#FFB44E"/>
<stop offset="0.4868" stop-color="#FF6860"/>
<stop offset="0.7268" stop-color="#FF306E"/>
<stop offset="0.9043" stop-color="#FF0D76"/>
<stop offset="1" stop-color="#FF0079"/>
</radialGradient>
<linearGradient id="paint13_linear_451_338" x1="1117.27" y1="216.442" x2="1295.16" y2="199.052" gradientUnits="userSpaceOnUse">
<stop stop-color="#FFE900"/>
<stop offset="1" stop-color="#FF13BD"/>
</linearGradient>
<linearGradient id="paint14_linear_451_338" x1="1003.37" y1="173.978" x2="1414.11" y2="264.163" gradientUnits="userSpaceOnUse">
<stop stop-color="#BDF7A3"/>
<stop offset="1" stop-color="#009EE0"/>
</linearGradient>
<radialGradient id="paint15_radial_451_338" cx="0" cy="0" r="1" gradientUnits="userSpaceOnUse" gradientTransform="translate(1005.92 395.904) scale(30.8485 30.8526)">
<stop stop-color="#FFEC41"/>
<stop offset="0.1968" stop-color="#FFB44E"/>
<stop offset="0.4868" stop-color="#FF6860"/>
<stop offset="0.7268" stop-color="#FF306E"/>
<stop offset="0.9043" stop-color="#FF0D76"/>
<stop offset="1" stop-color="#FF0079"/>
</radialGradient>
<linearGradient id="paint16_linear_451_338" x1="1051.76" y1="477.901" x2="1006.35" y2="622.679" gradientUnits="userSpaceOnUse">
<stop stop-color="#FCC198"/>
<stop offset="0.2973" stop-color="#FCBD96"/>
<stop offset="0.5895" stop-color="#FCB18F"/>
<stop offset="0.8788" stop-color="#FC9E83"/>
<stop offset="1" stop-color="#FC937D"/>
</linearGradient>
<linearGradient id="paint17_linear_451_338" x1="922.054" y1="318.441" x2="922.054" y2="813.081" gradientUnits="userSpaceOnUse">
<stop stop-color="#E7357C"/>
<stop offset="1" stop-color="#5D0080"/>
</linearGradient>
<linearGradient id="paint18_linear_451_338" x1="791.712" y1="723.016" x2="791.712" y2="723.953" gradientUnits="userSpaceOnUse">
<stop stop-color="#E7357C"/>
<stop offset="1" stop-color="#5D0080"/>
</linearGradient>
<linearGradient id="paint19_linear_451_338" x1="1013.42" y1="261.75" x2="1051.12" y2="302.349" gradientUnits="userSpaceOnUse">
<stop stop-color="#FCC198"/>
<stop offset="0.2973" stop-color="#FCBD96"/>
<stop offset="0.5895" stop-color="#FCB18F"/>
<stop offset="0.8788" stop-color="#FC9E83"/>
<stop offset="1" stop-color="#FC937D"/>
</linearGradient>
<linearGradient id="paint20_linear_451_338" x1="1014.04" y1="261.177" x2="1051.73" y2="301.776" gradientUnits="userSpaceOnUse">
<stop stop-color="#FCC198"/>
<stop offset="0.2973" stop-color="#FCBD96"/>
<stop offset="0.5895" stop-color="#FCB18F"/>
<stop offset="0.8788" stop-color="#FC9E83"/>
<stop offset="1" stop-color="#FC937D"/>
</linearGradient>
<linearGradient id="paint21_linear_451_338" x1="1011.73" y1="263.319" x2="1049.43" y2="303.917" gradientUnits="userSpaceOnUse">
<stop stop-color="#FCC198"/>
<stop offset="0.2973" stop-color="#FCBD96"/>
<stop offset="0.5895" stop-color="#FCB18F"/>
<stop offset="0.8788" stop-color="#FC9E83"/>
<stop offset="1" stop-color="#FC937D"/>
</linearGradient>
<linearGradient id="paint22_linear_451_338" x1="1004.47" y1="437.087" x2="1113.42" y2="338.03" gradientUnits="userSpaceOnUse">
<stop stop-color="#FCC198"/>
<stop offset="0.2973" stop-color="#FCBD96"/>
<stop offset="0.5895" stop-color="#FCB18F"/>
<stop offset="0.8788" stop-color="#FC9E83"/>
<stop offset="1" stop-color="#FC937D"/>
</linearGradient>
<linearGradient id="paint23_linear_451_338" x1="931.445" y1="772.628" x2="835.509" y2="761.495" gradientUnits="userSpaceOnUse">
<stop stop-color="#FCC198"/>
<stop offset="0.2973" stop-color="#FCBD96"/>
<stop offset="0.5895" stop-color="#FCB18F"/>
<stop offset="0.8788" stop-color="#FC9E83"/>
<stop offset="1" stop-color="#FC937D"/>
</linearGradient>
<linearGradient id="paint24_linear_451_338" x1="934.355" y1="657.165" x2="919.789" y2="565.5" gradientUnits="userSpaceOnUse">
<stop stop-color="#FCC198"/>
<stop offset="0.2137" stop-color="#FBBD97"/>
<stop offset="0.4237" stop-color="#F8B192"/>
<stop offset="0.6322" stop-color="#F39E8B"/>
<stop offset="0.8387" stop-color="#ED8280"/>
<stop offset="1" stop-color="#E66776"/>
</linearGradient>
<linearGradient id="paint25_linear_451_338" x1="973.808" y1="509.214" x2="872.175" y2="648.354" gradientUnits="userSpaceOnUse">
<stop stop-color="#FCC198"/>
<stop offset="0.2137" stop-color="#FBBD97"/>
<stop offset="0.4237" stop-color="#F8B192"/>
<stop offset="0.6322" stop-color="#F39E8B"/>
<stop offset="0.8387" stop-color="#ED8280"/>
<stop offset="1" stop-color="#E66776"/>
</linearGradient>
<linearGradient id="paint26_linear_451_338" x1="994.85" y1="512.548" x2="955.729" y2="547.096" gradientUnits="userSpaceOnUse">
<stop stop-color="#FCC198"/>
<stop offset="0.2137" stop-color="#FBBD97"/>
<stop offset="0.4237" stop-color="#F8B192"/>
<stop offset="0.6322" stop-color="#F39E8B"/>
<stop offset="0.8387" stop-color="#ED8280"/>
<stop offset="1" stop-color="#E66776"/>
</linearGradient>
<linearGradient id="paint27_linear_451_338" x1="839.738" y1="514.262" x2="878.86" y2="548.81" gradientUnits="userSpaceOnUse">
<stop stop-color="#FCC198"/>
<stop offset="0.2137" stop-color="#FBBD97"/>
<stop offset="0.4237" stop-color="#F8B192"/>
<stop offset="0.6322" stop-color="#F39E8B"/>
<stop offset="0.8387" stop-color="#ED8280"/>
<stop offset="1" stop-color="#E66776"/>
</linearGradient>
<linearGradient id="paint28_linear_451_338" x1="919.483" y1="457.358" x2="919.483" y2="646.144" gradientUnits="userSpaceOnUse">
<stop stop-color="#FCC198"/>
<stop offset="0.2973" stop-color="#FCBD96"/>
<stop offset="0.5895" stop-color="#FCB18F"/>
<stop offset="0.8788" stop-color="#FC9E83"/>
<stop offset="1" stop-color="#FC937D"/>
</linearGradient>
<linearGradient id="paint29_linear_451_338" x1="919.483" y1="590.944" x2="919.483" y2="481.531" gradientUnits="userSpaceOnUse">
<stop stop-color="#FCC198"/>
<stop offset="0.2137" stop-color="#FBBD97"/>
<stop offset="0.4237" stop-color="#F8B192"/>
<stop offset="0.6322" stop-color="#F39E8B"/>
<stop offset="0.8387" stop-color="#ED8280"/>
<stop offset="1" stop-color="#E66776"/>
</linearGradient>
<linearGradient id="paint30_linear_451_338" x1="920.343" y1="469.58" x2="920.343" y2="596.37" gradientUnits="userSpaceOnUse">
<stop stop-color="#EBEEEE"/>
<stop offset="1" stop-color="#A4B2D3"/>
</linearGradient>
<linearGradient id="paint31_linear_451_338" x1="920.346" y1="470.464" x2="920.346" y2="569.185" gradientUnits="userSpaceOnUse">
<stop stop-color="#EBEEEE"/>
<stop offset="1" stop-color="#CFDAE4"/>
</linearGradient>
<linearGradient id="paint32_linear_451_338" x1="920.054" y1="413.038" x2="920.054" y2="533.908" gradientUnits="userSpaceOnUse">
<stop stop-color="#BDF7A3"/>
<stop offset="1" stop-color="#009EE0"/>
</linearGradient>
<linearGradient id="paint33_linear_451_338" x1="952.769" y1="451.492" x2="938.102" y2="613.501" gradientUnits="userSpaceOnUse">
<stop stop-color="#E7357C"/>
<stop offset="1" stop-color="#5D0080"/>
</linearGradient>
<linearGradient id="paint34_linear_451_338" x1="953.513" y1="451.559" x2="938.846" y2="613.567" gradientUnits="userSpaceOnUse">
<stop stop-color="#E7357C"/>
<stop offset="1" stop-color="#5D0080"/>
</linearGradient>
<linearGradient id="paint35_linear_451_338" x1="851.931" y1="594.845" x2="859" y2="644.532" gradientUnits="userSpaceOnUse">
<stop stop-color="#FCC198"/>
<stop offset="0.2973" stop-color="#FCBD96"/>
<stop offset="0.5895" stop-color="#FCB18F"/>
<stop offset="0.8788" stop-color="#FC9E83"/>
<stop offset="1" stop-color="#FC937D"/>
</linearGradient>
<linearGradient id="paint36_linear_451_338" x1="846.176" y1="595.663" x2="853.245" y2="645.351" gradientUnits="userSpaceOnUse">
<stop stop-color="#FCC198"/>
<stop offset="0.2973" stop-color="#FCBD96"/>
<stop offset="0.5895" stop-color="#FCB18F"/>
<stop offset="0.8788" stop-color="#FC9E83"/>
<stop offset="1" stop-color="#FC937D"/>
</linearGradient>
<linearGradient id="paint37_linear_451_338" x1="840.881" y1="596.416" x2="847.949" y2="646.104" gradientUnits="userSpaceOnUse">
<stop stop-color="#FCC198"/>
<stop offset="0.2973" stop-color="#FCBD96"/>
<stop offset="0.5895" stop-color="#FCB18F"/>
<stop offset="0.8788" stop-color="#FC9E83"/>
<stop offset="1" stop-color="#FC937D"/>
</linearGradient>
<linearGradient id="paint38_linear_451_338" x1="1012.65" y1="570.17" x2="751.946" y2="927.082" gradientUnits="userSpaceOnUse">
<stop stop-color="#E7357C"/>
<stop offset="1" stop-color="#5D0080"/>
</linearGradient>
<linearGradient id="paint39_linear_451_338" x1="869.454" y1="598.711" x2="830.899" y2="772.617" gradientUnits="userSpaceOnUse">
<stop stop-color="#FCC198"/>
<stop offset="0.2973" stop-color="#FCBD96"/>
<stop offset="0.5895" stop-color="#FCB18F"/>
<stop offset="0.8788" stop-color="#FC9E83"/>
<stop offset="1" stop-color="#FC937D"/>
</linearGradient>
<linearGradient id="paint40_linear_451_338" x1="857.119" y1="610.654" x2="842.34" y2="648.99" gradientUnits="userSpaceOnUse">
<stop stop-color="#FCC198"/>
<stop offset="0.2137" stop-color="#FBBD97"/>
<stop offset="0.4237" stop-color="#F8B192"/>
<stop offset="0.6322" stop-color="#F39E8B"/>
<stop offset="0.8387" stop-color="#ED8280"/>
<stop offset="1" stop-color="#E66776"/>
</linearGradient>
<linearGradient id="paint41_linear_451_338" x1="856.014" y1="582.29" x2="917.144" y2="582.29" gradientUnits="userSpaceOnUse">
<stop stop-color="#047CFF"/>
<stop offset="0.3138" stop-color="#047FFF"/>
<stop offset="0.5143" stop-color="#0487FF"/>
<stop offset="0.683" stop-color="#0496FF"/>
<stop offset="0.8341" stop-color="#05ABFF"/>
<stop offset="0.9722" stop-color="#05C6FF"/>
<stop offset="1" stop-color="#05CCFF"/>
</linearGradient>
<linearGradient id="paint42_linear_451_338" x1="855.278" y1="582.29" x2="917.881" y2="582.29" gradientUnits="userSpaceOnUse">
<stop stop-color="#047CFF"/>
<stop offset="0.3138" stop-color="#047FFF"/>
<stop offset="0.5143" stop-color="#0487FF"/>
<stop offset="0.683" stop-color="#0496FF"/>
<stop offset="0.8341" stop-color="#05ABFF"/>
<stop offset="0.9722" stop-color="#05C6FF"/>
<stop offset="1" stop-color="#05CCFF"/>
</linearGradient>
<linearGradient id="paint43_linear_451_338" x1="785.263" y1="376.461" x2="818.059" y2="433.299" gradientUnits="userSpaceOnUse">
<stop stop-color="#BDF7A3"/>
<stop offset="1" stop-color="#009EE0"/>
</linearGradient>
<linearGradient id="paint44_linear_451_338" x1="546.429" y1="200.382" x2="539.805" y2="239.489" gradientUnits="userSpaceOnUse">
<stop stop-color="#BDF7A3"/>
<stop offset="1" stop-color="#009EE0"/>
</linearGradient>
<linearGradient id="paint45_linear_451_338" x1="506.251" y1="215.65" x2="530.872" y2="219.819" gradientUnits="userSpaceOnUse">
<stop stop-color="#BDF7A3"/>
<stop offset="1" stop-color="#009EE0"/>
</linearGradient>
<linearGradient id="paint46_linear_451_338" x1="509.622" y1="197.625" x2="558.089" y2="205.833" gradientUnits="userSpaceOnUse">
<stop stop-color="#BDF7A3"/>
<stop offset="1" stop-color="#009EE0"/>
</linearGradient>
<linearGradient id="paint47_linear_451_338" x1="834.528" y1="141.295" x2="800.501" y2="167.495" gradientUnits="userSpaceOnUse">
<stop stop-color="#FFE900"/>
<stop offset="0.1684" stop-color="#FFCB1B"/>
<stop offset="0.5369" stop-color="#FF7D60"/>
<stop offset="1" stop-color="#FF13BD"/>
</linearGradient>
<linearGradient id="paint48_linear_451_338" x1="858.586" y1="163.994" x2="822.05" y2="174.964" gradientUnits="userSpaceOnUse">
<stop stop-color="#FFE900"/>
<stop offset="0.1684" stop-color="#FFCB1B"/>
<stop offset="0.5369" stop-color="#FF7D60"/>
<stop offset="1" stop-color="#FF13BD"/>
</linearGradient>
<linearGradient id="paint49_linear_451_338" x1="801.109" y1="110.996" x2="793.134" y2="148.309" gradientUnits="userSpaceOnUse">
<stop stop-color="#FFE900"/>
<stop offset="0.1684" stop-color="#FFCB1B"/>
<stop offset="0.5369" stop-color="#FF7D60"/>
<stop offset="1" stop-color="#FF13BD"/>
</linearGradient>
<linearGradient id="paint50_linear_451_338" x1="890.323" y1="115.147" x2="808.145" y2="144.353" gradientUnits="userSpaceOnUse">
<stop stop-color="#BDF7A3"/>
<stop offset="1" stop-color="#009EE0"/>
</linearGradient>
<linearGradient id="paint51_linear_451_338" x1="828.073" y1="147.141" x2="796.874" y2="164.759" gradientUnits="userSpaceOnUse">
<stop stop-color="#FFE900"/>
<stop offset="0.1684" stop-color="#FFCB1B"/>
<stop offset="0.5369" stop-color="#FF7D60"/>
<stop offset="1" stop-color="#FF13BD"/>
</linearGradient>
<linearGradient id="paint52_linear_451_338" x1="847.783" y1="113.487" x2="831.65" y2="147.853" gradientUnits="userSpaceOnUse">
<stop stop-color="#0E216D"/>
<stop offset="0.094865" stop-color="#152171"/>
<stop offset="0.2312" stop-color="#28217D"/>
<stop offset="0.3926" stop-color="#472191"/>
<stop offset="0.5733" stop-color="#7221AD"/>
<stop offset="0.7699" stop-color="#AA22D0"/>
<stop offset="0.977" stop-color="#ED22FA"/>
<stop offset="1" stop-color="#F522FF"/>
</linearGradient>
<linearGradient id="paint53_linear_451_338" x1="848.911" y1="121.214" x2="834.634" y2="129.276" gradientUnits="userSpaceOnUse">
<stop stop-color="#FFE900"/>
<stop offset="0.1684" stop-color="#FFCB1B"/>
<stop offset="0.5369" stop-color="#FF7D60"/>
<stop offset="1" stop-color="#FF13BD"/>
</linearGradient>
<linearGradient id="paint54_linear_451_338" x1="606.899" y1="30.7479" x2="537.541" y2="11.3839" gradientUnits="userSpaceOnUse">
<stop stop-color="#E7357C"/>
<stop offset="1" stop-color="#5D0080"/>
</linearGradient>
<linearGradient id="paint55_linear_451_338" x1="553.036" y1="-18.1766" x2="567.267" y2="8.62283" gradientUnits="userSpaceOnUse">
<stop stop-color="#BDF7A3"/>
<stop offset="1" stop-color="#009EE0"/>
</linearGradient>
<linearGradient id="paint56_linear_451_338" x1="667.34" y1="-17.8046" x2="516.072" y2="12.0797" gradientUnits="userSpaceOnUse">
<stop stop-color="#FFE900"/>
<stop offset="1" stop-color="#FF13BD"/>
</linearGradient>
<linearGradient id="paint57_linear_451_338" x1="880.075" y1="236.653" x2="845.546" y2="299.853" gradientUnits="userSpaceOnUse">
<stop stop-color="#E7357C"/>
<stop offset="1" stop-color="#5D0080"/>
</linearGradient>
<linearGradient id="paint58_linear_451_338" x1="820.262" y1="278.09" x2="849.579" y2="270.278" gradientUnits="userSpaceOnUse">
<stop stop-color="#BDF7A3"/>
<stop offset="1" stop-color="#009EE0"/>
</linearGradient>
<linearGradient id="paint59_linear_451_338" x1="846.424" y1="166.805" x2="841.396" y2="320.934" gradientUnits="userSpaceOnUse">
<stop stop-color="#FFE900"/>
<stop offset="1" stop-color="#FF13BD"/>
</linearGradient>
<clipPath id="clip0_451_338">
<rect width="1248" height="812" fill="white"/>
</clipPath>
</defs>
</svg>
