<svg width="54" height="54" viewBox="0 0 54 54" fill="none" xmlns="http://www.w3.org/2000/svg">
<g id="Frame" clip-path="url(#clip0_282_985)">
<path id="Vector" d="M0 40.365V4.05C0 4.05 0.135 3.915 0.135 3.78C0.405 2.43 1.215 1.215 2.565 0.54C2.97 0.27 3.51 0.135 4.05 0H49.815C49.95 0 49.95 0.135 50.085 0.135C51.165 0.405 52.11 0.945 52.785 1.755C53.595 2.565 54 3.645 54 4.86C54 16.47 54 28.08 54 39.69C54 39.825 54 39.96 54 40.095C53.865 41.445 53.325 42.525 52.38 43.47C51.3 44.145 50.22 44.55 49.005 44.55C43.605 44.55 38.34 44.55 32.94 44.55H32.4C33.075 46.71 33.75 48.735 34.56 50.895H35.1C36.585 50.895 38.07 50.895 39.69 50.895C40.23 50.895 40.77 51.165 41.04 51.57C41.445 52.11 41.445 52.65 41.175 53.19C40.905 53.73 40.365 54 39.825 54C31.455 54 22.95 54 14.58 54C14.445 54 14.31 54 14.175 54C13.365 53.73 12.96 53.055 13.095 52.245C13.23 51.435 13.77 50.895 14.58 50.895C15.795 50.895 17.01 50.895 18.225 50.895H19.845C20.52 48.735 21.195 46.71 22.005 44.55H21.33H5.13C4.995 44.55 4.725 44.55 4.59 44.55C2.835 44.415 1.485 43.605 0.54 42.12C0.27 41.445 0.135 40.905 0 40.365ZM3.105 34.965H50.76V34.425V5.13C50.76 4.995 50.76 4.86 50.76 4.59C50.625 3.78 50.085 3.105 49.275 3.105C49.14 3.105 48.87 3.105 48.735 3.105C34.155 3.105 19.71 3.105 5.13 3.105C4.995 3.105 4.86 3.105 4.725 3.105C3.78 3.105 3.105 3.78 3.105 4.725C3.105 4.86 3.105 4.995 3.105 5.13V34.29V34.965ZM50.76 38.205H3.105C3.105 38.745 3.105 39.285 3.105 39.825C3.105 40.77 3.78 41.31 4.59 41.445C4.725 41.445 4.86 41.445 5.13 41.445C19.71 41.445 34.155 41.445 48.735 41.445C48.87 41.445 49.005 41.445 49.275 41.445C50.22 41.31 50.76 40.77 50.76 39.825C50.895 39.285 50.76 38.745 50.76 38.205ZM22.815 50.76H31.05C30.375 48.6 29.7 46.575 29.025 44.55H24.975C24.3 46.575 23.625 48.735 22.815 50.76Z" fill="#F0EFEF"/>
<path id="Vector_2" d="M38.07 19.0349C38.07 20.5199 38.07 22.1399 38.07 23.6249C38.07 24.2999 37.8 24.8399 37.26 25.1099C34.155 27.1349 31.05 29.1599 28.08 31.3199C27.405 31.7249 26.73 31.7249 26.055 31.3199C22.95 29.2949 19.845 27.1349 16.74 25.1099C16.2 24.7049 15.93 24.2999 15.93 23.6249C15.93 20.6549 15.93 17.5499 15.93 14.5799C15.93 13.7699 16.2 13.2299 16.875 12.8249C19.71 10.9349 22.41 9.17991 25.11 7.28991C25.38 7.15491 25.515 7.01991 25.785 6.88491C26.73 6.20991 27.135 6.20991 28.08 6.88491C30.645 8.50491 33.075 10.2599 35.64 11.8799C36.18 12.2849 36.72 12.5549 37.125 12.9599C37.8 13.3649 38.07 13.9049 38.07 14.5799C38.07 16.0649 38.07 17.5499 38.07 19.0349ZM27 9.98991C24.84 11.4749 22.545 12.9599 20.385 14.4449C22.68 15.9299 24.84 17.4149 27 18.8999C29.16 17.4149 31.32 15.9299 33.615 14.4449C31.32 12.8249 29.16 11.3399 27 9.98991ZM25.38 27.1349V21.4649C23.355 20.1149 21.195 18.6299 19.035 17.2799V22.9499C21.195 24.2999 23.22 25.7849 25.38 27.1349ZM28.62 27.1349C30.78 25.6499 32.805 24.2999 34.965 22.9499V17.2799C32.805 18.7649 30.78 20.1149 28.62 21.4649V27.1349Z" fill="#F0EFEF"/>
</g>
<defs>
<clipPath id="clip0_282_985">
<rect width="54" height="54" fill="white"/>
</clipPath>
</defs>
</svg>
