<svg width="36" height="26" viewBox="0 0 36 26" fill="none" xmlns="http://www.w3.org/2000/svg">
<g id="Frame" clip-path="url(#clip0_278_637)">
<path id="Vector" d="M22.7 1.59998C22.6 1.79998 22.6 2.09998 22.5 2.29998C20.4 9.69998 18.3 17.1 16.2 24.5C16 25.1 15.7 25.7 15 25.9C14.4 26.1 13.9 25.9 13.4 25.5C12.9 25.1 12.8 24.5 13 23.9C13.5 22.3 13.9 20.6 14.4 19C16.1 13.1 17.8 7.09998 19.5 1.19998C19.8 -2.49147e-05 21.1 -0.400025 22 0.199975C22.4 0.599975 22.7 1.09998 22.7 1.59998Z" fill="#F0EFEF"/>
<path id="Vector_2" d="M31.6 13C31.5 12.9 31.4 12.8 31.3 12.7C29.7 11 28 9.39998 26.4 7.69998C25.8 6.99998 25.7 6.19998 26.1 5.49998C26.6 4.69998 27.7 4.59998 28.5 5.19998C28.6 5.19998 28.6 5.29998 28.7 5.39998C30.8 7.49998 32.9 9.59998 35 11.8C35.5 12.3 35.7 12.8 35.5 13.5C35.4 13.8 35.3 14 35.1 14.2C33 16.4 30.8 18.5 28.7 20.7C28 21.4 27 21.4 26.4 20.7C25.8 20.1 25.8 19.1 26.4 18.4C28.1 16.7 29.7 15.1 31.4 13.4C31.4 13.2 31.5 13.1 31.6 13Z" fill="#F0EFEF"/>
<path id="Vector_3" d="M3.9 13.1C4 13.2 4.1 13.3 4.3 13.4C5.9 15 7.6 16.7 9.2 18.3C9.6 18.7 9.9 19.3 9.7 19.9C9.4 21.1 8 21.6 7.1 20.8C7 20.8 7 20.7 6.9 20.6C4.8 18.5 2.7 16.4 0.599998 14.2C-2.44379e-06 13.6 -0.100002 12.8 0.299998 12.2C0.399998 12.1 0.499998 12 0.599998 11.8C2.7 9.70002 4.9 7.50002 7 5.40002C7.4 4.90002 8 4.80002 8.6 5.00002C9.2 5.20002 9.6 5.70002 9.7 6.30002C9.8 6.70002 9.6 7.20002 9.4 7.50002C9.3 7.70002 9.1 7.80002 9 7.90002C7.4 9.50002 5.8 11.1 4.2 12.7C4.1 12.8 4 12.9 3.9 12.9C3.9 13 3.9 13 3.9 13.1Z" fill="#F0EFEF"/>
</g>
<defs>
<clipPath id="clip0_278_637">
<rect width="35.6" height="26" fill="white"/>
</clipPath>
</defs>
</svg>
