<svg width="54" height="54" viewBox="0 0 54 54" fill="none" xmlns="http://www.w3.org/2000/svg">
<g id="Frame" clip-path="url(#clip0_282_980)">
<path id="Vector" d="M46.7576 54H45.2329C45.1059 54 44.9788 53.873 44.9788 53.873C44.0894 53.6188 43.3271 53.2377 42.5647 52.6024C42.0565 52.0941 41.6753 51.5859 41.4212 50.8235H34.8141V44.4706V38.1177H28.4612V44.7247C28.5882 44.7247 28.7153 44.8518 28.8424 44.8518C30.7482 45.7412 31.8918 47.6471 31.6376 49.68C31.3835 51.713 29.9859 53.3647 27.8259 53.7459C27.6988 53.7459 27.6988 53.873 27.5718 53.873H26.0471C25.92 53.873 25.7929 53.7459 25.6659 53.7459C22.3624 52.9835 20.8376 49.0447 22.8706 46.2494C23.3788 45.4871 24.1412 44.9788 25.1576 44.5977C25.1576 42.3106 25.1576 40.1506 25.1576 37.9906H18.8047V50.6965H12.5788C12.5788 50.8235 12.4518 50.9506 12.4518 50.9506C11.8165 52.4753 10.6729 53.3647 9.02118 53.7459C8.89412 53.7459 8.89412 53.7459 8.89412 53.873H7.24235C7.11529 53.873 6.98824 53.7459 6.86118 53.7459C4.44706 53.2377 2.92235 50.9506 3.17647 48.5365C3.43059 46.6306 4.82824 44.9788 6.73412 44.4706C8.64 43.9624 10.6729 44.7247 11.8165 46.3765C12.0706 46.7577 12.1976 47.1388 12.4518 47.52H15.7553V37.9906H15.2471C13.8494 37.9906 12.4518 37.9906 11.0541 37.9906C10.2918 37.9906 9.65647 37.9906 9.02118 37.7365C4.44706 36.72 1.52471 33.9247 0.254118 29.4777C0.127059 28.9694 0 28.5883 0 28.08V25.793C0 25.6659 0.127059 25.6659 0.127059 25.5388C0.508235 22.6165 1.90588 20.3294 4.19294 18.4235C4.95529 17.9153 5.71765 17.4071 6.48 16.8988C6.60706 14.8659 7.49647 13.0871 9.02118 11.6894C10.6729 10.1647 12.4518 9.52943 14.6118 9.52943C18.2965 2.28707 26.3012 -1.39763 34.0518 0.38119C41.2941 2.03295 47.3929 8.51296 47.6471 16.8988C47.7741 16.8988 47.9012 17.0259 48.0282 17.0259C51.2047 18.6777 53.1106 21.3459 53.8729 24.7765C53.8729 25.0306 54 25.2847 54 25.5388V27.8259C53.8729 28.2071 53.8729 28.5882 53.7459 29.0965C52.6024 34.3059 47.9012 37.7365 42.8188 37.7365C41.4212 37.7365 40.0235 37.7365 38.4988 37.7365C38.3718 37.7365 38.1176 37.7365 37.9906 37.7365V47.2659H41.4212C41.5482 47.0118 41.5482 46.8847 41.6753 46.6306C42.5647 44.9788 44.3435 43.8353 46.5035 44.0894C49.0447 44.4706 50.4424 46.5035 50.5694 48.5365C50.6965 51.0777 48.9176 53.1106 46.7576 53.4918C46.8847 53.873 46.8847 53.873 46.7576 54ZM44.3435 19.1859C44.3435 18.8047 44.3435 18.4235 44.3435 18.0424C44.4706 17.28 44.3435 16.5177 44.3435 15.7553C43.9624 12.833 42.8188 10.2918 40.9129 8.13178C36.9741 3.55766 30.6212 2.03295 25.0306 4.19296C21.3459 5.71766 18.6776 8.25884 17.0259 11.9435C16.8988 12.3247 16.6447 12.7059 16.5176 13.2141C16.2635 13.2141 16.1365 13.0871 15.8824 13.0871C15.12 12.96 14.3576 12.833 13.4682 12.96C10.8 13.3412 9.14824 16.0094 9.52941 18.1694C9.65647 18.5506 9.52941 18.9318 9.65647 19.313C9.14824 19.5671 8.64 19.6941 8.13177 19.8212C5.08235 21.2188 3.30353 23.3788 3.17647 26.8094C3.04941 29.3506 4.06588 31.5106 6.09882 33.1624C7.62353 34.3059 9.40235 34.9412 11.4353 34.9412C20.3294 34.9412 29.2235 34.9412 38.2447 34.9412C39.7694 34.9412 41.2941 34.9412 42.9459 34.9412C44.4706 34.9412 45.8682 34.56 47.1388 33.7977C49.9341 32.1459 51.4588 28.9694 50.9506 25.793C50.4424 22.8706 48.6635 20.9647 45.9953 19.8212C45.36 19.5671 44.8518 19.313 44.3435 19.1859ZM8.00471 47.6471C7.11529 47.6471 6.48 48.4094 6.48 49.1718C6.48 50.0612 7.24235 50.6965 8.13177 50.6965C9.02118 50.6965 9.65647 49.9341 9.65647 49.0447C9.65647 48.4094 8.89412 47.6471 8.00471 47.6471ZM28.5882 49.1718C28.5882 48.2824 27.8259 47.6471 26.9365 47.6471C26.0471 47.6471 25.4118 48.4094 25.4118 49.2988C25.4118 50.1882 26.1741 50.8235 27.0635 50.8235C27.8259 50.8235 28.5882 50.0612 28.5882 49.1718ZM47.6471 49.1718C47.6471 48.2824 46.8847 47.6471 45.9953 47.6471C45.1059 47.6471 44.4706 48.4094 44.4706 49.2988C44.4706 50.1882 45.2329 50.8235 46.1224 50.8235C46.8847 50.8235 47.6471 50.0612 47.6471 49.1718Z" fill="#F0EFEF"/>
<path id="Vector_2" d="M39.2612 25.7928C36.3388 21.4728 32.2729 19.0587 27.0635 19.0587C21.8541 19.0587 17.7882 21.4728 14.8659 25.7928C13.9765 25.2846 13.0871 24.6493 12.1976 24.1411C15.6282 18.9317 20.4565 16.0093 26.6824 15.8823C33.4165 15.6281 39.0071 19.3128 41.9294 24.2681C41.04 24.7764 40.1506 25.2846 39.2612 25.7928Z" fill="#F0EFEF"/>
<path id="Vector_3" d="M36.4659 27.4446C35.5765 27.9529 34.6871 28.5882 33.7976 29.0964C32.1459 26.6823 29.9859 25.2846 27.0635 25.2846C24.1412 25.2846 21.9812 26.5552 20.3294 29.0964C19.44 28.5882 18.5506 27.9529 17.6612 27.4446C19.9482 24.014 23.1247 22.1082 27.1906 22.1082C31.1294 22.2352 34.3059 24.014 36.4659 27.4446Z" fill="#F0EFEF"/>
<path id="Vector_4" d="M22.9977 30.7482C24.0141 29.2235 25.2847 28.4612 27.0635 28.4612C28.8424 28.4612 30.24 29.2235 31.1294 30.7482C30.24 31.2565 29.3506 31.8918 28.4612 32.4C27.4447 31.3835 26.4282 31.5106 25.6659 32.4C25.2847 32.1459 24.7765 31.8918 24.3953 31.6377C23.8871 31.3835 23.3788 31.1294 22.9977 30.7482Z" fill="#F0EFEF"/>
</g>
<defs>
<clipPath id="clip0_282_980">
<rect width="54" height="54" fill="white"/>
</clipPath>
</defs>
</svg>
