<svg width="30" height="24" viewBox="0 0 30 24" fill="none" xmlns="http://www.w3.org/2000/svg">
<g id="Frame" clip-path="url(#clip0_278_589)">
<path id="Vector" d="M29.1 0.6V23.3C29 23.5 28.9 23.6 28.7 23.8C28.5 24 28.3 24 28.1 24C19.1 24 10 24 1 24H0.9C0.5 24 0.3 23.8 0.2 23.5C0 23.3 0 23.1 0 22.9C0 15.6 0 8.3 0 1C0 1 0 0.9 0 0.8C0 0.5 0.2 0.2 0.4 0.1C0.5 0.1 0.6 0 0.6 0H28.5C28.8 0.1 29 0.3 29.1 0.6ZM10.3 3.5H4.6C4.5 3.5 4.4 3.5 4.3 3.5C3.9 3.5 3.6 3.8 3.5 4.2C3.5 4.3 3.5 4.4 3.5 4.5C3.5 6.7 3.5 8.8 3.5 11C3.5 11.1 3.5 11.1 3.5 11.2C3.5 11.7 3.9 12 4.4 12.1C4.5 12.1 4.5 12.1 4.6 12.1H16.1C16.2 12.1 16.3 12.1 16.3 12.1C16.7 12.1 17 11.8 17.1 11.4C17.1 11.3 17.1 11.2 17.1 11C17.1 8.9 17.1 6.7 17.1 4.6C17.1 4.5 17.1 4.4 17.1 4.3C17.1 3.8 16.7 3.5 16.3 3.5C16.2 3.5 16.1 3.5 16 3.5H10.3ZM8.6 13.7C7.2 13.7 5.8 13.7 4.4 13.7C3.9 13.7 3.4 14 3.4 14.7C3.4 16.3 3.4 18 3.4 19.6C3.4 20.2 3.8 20.6 4.4 20.6C7.2 20.6 9.9 20.6 12.7 20.6C13.3 20.6 13.7 20.1 13.7 19.6C13.7 18 13.7 16.3 13.7 14.7C13.7 14.6 13.7 14.5 13.7 14.4C13.6 14 13.3 13.7 12.8 13.7C11.4 13.7 10 13.7 8.6 13.7ZM20.5 13.7C19.1 13.7 17.8 13.7 16.4 13.7C15.8 13.7 15.4 14.1 15.4 14.7C15.4 16.3 15.4 17.9 15.4 19.5C15.4 20.1 15.8 20.5 16.4 20.5C19.1 20.5 21.9 20.5 24.6 20.5C25.3 20.5 25.6 20 25.6 19.5C25.6 17.9 25.6 16.3 25.6 14.7C25.6 14.1 25.2 13.7 24.6 13.7C23.3 13.7 21.9 13.7 20.5 13.7ZM22.2 8.6H24.6C24.7 8.6 24.8 8.6 24.8 8.6C25.3 8.6 25.6 8.2 25.6 7.8C25.6 7.4 25.3 7 24.8 6.9C24.7 6.9 24.6 6.9 24.5 6.9C22.9 6.9 21.3 6.9 19.7 6.9C19.6 6.9 19.5 6.9 19.5 6.9C19.1 6.9 18.8 7.2 18.7 7.6C18.6 7.9 18.8 8.3 19.1 8.5C19.3 8.6 19.5 8.7 19.7 8.7C20.6 8.6 21.4 8.6 22.2 8.6ZM22.2 12C23 12 23.8 12 24.6 12C24.7 12 24.8 12 24.8 12C25.3 12 25.6 11.6 25.6 11.2C25.6 10.8 25.2 10.4 24.8 10.3C24.7 10.3 24.7 10.3 24.6 10.3C23 10.3 21.4 10.3 19.8 10.3C19.7 10.3 19.6 10.3 19.6 10.3C19.2 10.3 18.9 10.6 18.8 11C18.7 11.3 18.8 11.7 19.1 11.9C19.3 12 19.5 12.1 19.7 12.1C20.6 12 21.4 12 22.2 12ZM22.2 5.2H24.6C24.7 5.2 24.8 5.2 24.8 5.2C25.3 5.2 25.6 4.8 25.6 4.4C25.6 4 25.3 3.6 24.8 3.5C24.7 3.5 24.6 3.5 24.5 3.5C22.9 3.5 21.3 3.5 19.7 3.5C19.6 3.5 19.6 3.5 19.5 3.5C19.1 3.5 18.8 3.8 18.7 4.2C18.6 4.5 18.8 4.9 19.1 5.1C19.3 5.2 19.5 5.2 19.7 5.2C20.6 5.2 21.4 5.2 22.2 5.2Z" fill="#F0EFEF"/>
<path id="Vector_2" d="M15.4 5.20001H5.20001V10.3H15.4V5.20001Z" fill="#F0EFEF"/>
<path id="Vector_3" d="M12 15.4V18.8H5.20001V15.4C5.40001 15.4 11.4 15.4 12 15.4Z" fill="#F0EFEF"/>
<path id="Vector_4" d="M17.1 15.4H23.9V18.8C23.7 18.9 17.9 18.9 17.1 18.8V15.4Z" fill="#F0EFEF"/>
</g>
<defs>
<clipPath id="clip0_278_589">
<rect width="29.1" height="24" fill="white"/>
</clipPath>
</defs>
</svg>
