<svg width="56" height="56" viewBox="0 0 56 56" fill="none" xmlns="http://www.w3.org/2000/svg">
<g id="Frame" clip-path="url(#clip0_282_994)">
<path id="Vector" d="M20.2607 0C20.5124 0.125843 20.764 0.125843 21.0157 0.251685C24.4135 1.13258 26.427 3.27191 27.3079 6.66966C27.4337 7.17303 27.4337 7.6764 27.4337 8.17978C27.4337 10.1933 27.4337 12.2067 27.4337 14.3461V14.9753C27.8112 14.9753 28.1888 14.9753 28.5663 14.9753C29.573 14.8494 30.3281 15.7303 30.3281 16.4854C30.3281 16.7371 30.3281 16.9888 30.4539 17.2404C30.8315 18.373 32.0899 18.8764 33.2225 18.4989C33.4742 18.373 33.7258 18.2472 33.9775 18.2472C34.7326 18.1213 35.3618 18.373 35.7393 19.0022C36.1169 19.6315 36.4944 20.2607 36.8719 20.8899C37.5011 21.8966 38.0045 22.9034 38.6337 23.9101C39.1371 24.791 38.8854 25.7978 38.1303 26.427C36.7461 27.3079 36.7461 29.0697 38.1303 30.0764C39.0112 30.7056 39.2629 31.5865 38.6337 32.4674C37.7528 33.9775 36.8719 35.6135 35.991 37.1236C35.3618 38.1303 34.6067 38.382 33.6 37.8787C32.4674 37.3753 31.209 37.7528 30.7056 38.8854C30.5798 39.2629 30.4539 39.6405 30.4539 39.8921C30.3281 40.773 29.573 41.4023 28.818 41.4023C28.5663 41.4023 28.3146 41.4023 28.0629 41.4023H27.5595V42.0315C27.5595 44.0449 27.5595 46.0584 27.5595 48.0719C27.5595 51.973 24.5393 55.6225 20.6382 56.1258C16.3595 56.7551 12.3326 53.9865 11.4517 49.9596C11.4517 49.8337 11.3258 49.7079 11.3258 49.4562C8.43146 48.827 6.16629 47.3169 4.65618 44.6742C3.27191 42.0315 3.14607 39.2629 4.27865 36.4944C1.51011 34.2292 0 31.4607 0 28.0629C0 24.6652 1.38427 21.8966 4.02697 19.7573C2.89438 16.9888 2.89438 14.2202 4.40449 11.5775C5.78876 8.93483 8.05393 7.42472 11.0742 6.79551C11.3258 5.91461 11.4517 5.15955 11.9551 4.40449C13.2135 2.01348 15.227 0.629214 17.8697 0.125843C17.9955 0.125843 18.1213 0 18.1213 0L20.2607 0ZM7.04719 18.1213C8.17977 17.8697 9.31236 17.618 10.4449 17.618C11.3258 17.618 12.0809 18.373 12.0809 19.2539C12.0809 20.1348 11.4517 20.8899 10.4449 20.8899C10.0674 20.8899 9.56404 20.8899 9.18652 21.0157C5.03371 21.7708 2.51685 25.9236 3.64944 29.9506C4.15281 31.7124 5.28539 33.0966 6.79551 34.1034C6.79551 34.1034 6.92135 34.1034 6.92135 34.2292C8.05393 34.7326 8.17978 35.991 7.55056 36.8719C6.66966 38.1303 6.41798 39.5146 6.66966 41.0247C7.17303 44.4225 10.4449 46.6876 13.8427 45.9326C14.5978 45.8067 15.3528 45.4292 15.982 45.0517C16.6112 44.6742 17.2404 44.6742 17.8697 45.0517C18.8764 45.6809 18.8764 47.0652 17.8697 47.8202C17.2404 48.1978 16.6112 48.5753 15.982 48.827C15.4787 49.0787 14.9753 49.2045 14.4719 49.3303V49.4562C15.1011 51.218 16.3595 52.3506 18.1213 52.7281C20.009 53.1056 21.6449 52.4764 22.9034 51.0921C23.6584 50.2112 24.036 49.0787 24.036 47.8202C24.036 45.8067 24.036 43.7933 24.036 41.6539V41.2764C23.9101 41.2764 23.7843 41.2764 23.6584 41.2764C23.4067 41.2764 23.1551 41.2764 22.7775 41.2764C21.8966 41.2764 21.1416 40.5214 21.1416 39.7663C21.1416 39.3888 21.0157 39.0112 20.8899 38.7596C20.3865 37.7528 19.1281 37.2494 17.9955 37.7528C16.9888 38.2562 16.1079 38.0045 15.6045 36.9978C14.7236 35.4876 13.8427 33.8517 12.9618 32.3416C12.836 32.0899 12.7101 31.8382 12.7101 31.5865C12.5843 30.8315 12.9618 30.3281 13.591 29.9506C14.9753 29.0697 14.9753 27.3079 13.591 26.427C12.7101 25.9236 12.4584 24.9169 13.0876 23.9101C13.8427 22.6517 14.4719 21.3933 15.227 20.2607C15.4787 19.8831 15.6045 19.5056 15.8562 19.1281C16.2337 18.4989 16.8629 18.2472 17.618 18.373C17.8697 18.373 18.1213 18.4989 18.2472 18.6247C18.7506 18.8764 19.2539 18.8764 19.6315 18.7506C20.5124 18.4989 21.0157 17.9955 21.1416 16.9888C21.1416 16.8629 21.1416 16.6112 21.1416 16.4854C21.2674 15.6045 21.8966 14.9753 22.7775 14.9753C23.1551 14.9753 23.6584 15.1011 24.036 14.9753V14.3461C24.036 12.4584 24.036 10.5708 24.036 8.68315C24.036 8.17978 24.036 7.80225 23.9101 7.29888C23.4067 4.78202 21.1416 3.14607 18.7506 3.39775C16.1079 3.64944 14.2202 5.66292 14.0944 8.30562C14.0944 9.4382 13.4652 10.0674 12.3326 10.0674C11.7034 9.94157 10.8225 10.1933 10.0674 10.5708C7.80225 11.7034 6.66966 13.4652 6.54382 15.982C6.54382 16.7371 6.66966 17.4921 7.04719 18.1213ZM27.182 37.8787C27.182 37.7528 27.3079 37.7528 27.3079 37.7528C28.0629 35.4876 30.5798 33.8517 33.0966 34.2292C33.2225 34.2292 33.4742 34.2292 33.6 34.2292C34.1034 33.3483 34.6067 32.5933 34.9843 31.8382C33.0966 29.3213 33.0966 26.9303 34.9843 24.4135C34.4809 23.5326 33.9775 22.7775 33.6 21.8966C32.2157 22.1483 30.9573 22.0225 29.6989 21.2674C28.4404 20.5124 27.6854 19.5056 27.182 18.2472H24.2876C24.2876 18.373 24.2876 18.373 24.1618 18.373C23.4067 20.6382 21.0157 22.2742 18.373 21.8966C18.2472 21.8966 17.9955 21.8966 17.8697 21.8966C17.3663 22.7775 16.8629 23.5326 16.4854 24.2876C18.373 26.8045 18.373 29.1955 16.4854 31.7124C16.9888 32.5933 17.4921 33.3483 17.8697 34.2292C19.2539 33.9775 20.5124 34.1034 21.7708 34.8584C23.0292 35.6135 23.7843 36.6202 24.2876 37.8787C24.4135 37.8787 24.5393 37.8787 24.6652 37.8787C25.4202 37.8787 26.3011 37.8787 27.182 37.8787Z" fill="#F0EFEF"/>
<path id="Vector_2" d="M56 28.4405C56 28.5663 55.8742 28.5663 55.8742 28.6922C55.4967 29.3214 54.9933 29.6989 54.3641 29.6989C52.854 29.6989 51.4697 29.6989 49.9596 29.6989C47.4427 29.6989 44.8 29.6989 42.2832 29.6989C41.5281 29.6989 40.8989 29.3214 40.6472 28.5663C40.2697 27.5596 40.8989 26.427 42.0315 26.427C42.1573 26.427 42.2832 26.427 42.409 26.427C46.1843 26.427 50.0854 26.427 53.8607 26.427C54.8675 26.427 55.6225 26.6787 56 27.6854V28.4405Z" fill="#F0EFEF"/>
<path id="Vector_3" d="M44.0449 13.2134C44.0449 12.2067 44.0449 11.3258 44.0449 10.4449C44.0449 9.68983 44.4225 9.18646 45.0517 8.93477C46.0584 8.4314 47.3168 9.18646 47.3168 10.4449C47.3168 11.5775 47.3168 12.8359 47.3168 13.9685C47.3168 14.2202 47.3168 14.5977 47.3168 14.8494C47.3168 15.7303 46.5618 16.6112 45.6809 16.4853C43.6674 16.4853 41.5281 16.4853 39.5146 16.4853C38.6337 16.4853 37.6269 16.4853 36.746 16.4853C35.991 16.4853 35.2359 15.8561 35.1101 15.1011C34.9842 14.346 35.4876 13.591 36.2427 13.3393C36.4944 13.2134 36.746 13.2134 36.9977 13.2134C39.2629 13.2134 41.5281 13.2134 43.6674 13.2134H44.0449Z" fill="#F0EFEF"/>
<path id="Vector_4" d="M44.045 42.7866H43.4158C41.1506 42.7866 39.0113 42.7866 36.7461 42.7866C35.991 42.7866 35.3618 42.409 35.1101 41.654C34.7326 40.6472 35.4877 39.6405 36.4944 39.5146C36.6203 39.5146 36.6203 39.5146 36.7461 39.5146C39.6405 39.5146 42.6607 39.5146 45.5551 39.5146C46.3101 39.5146 46.9394 40.018 47.191 40.6472C47.191 40.7731 47.191 41.0248 47.191 41.1506C47.191 42.5349 47.191 44.045 47.191 45.4293C47.191 46.436 46.436 47.0652 45.5551 47.0652C44.6742 47.0652 43.9191 46.3102 43.9191 45.4293C44.045 44.6742 44.045 43.7933 44.045 42.7866Z" fill="#F0EFEF"/>
<path id="Vector_5" d="M48.0719 19.7573C48.9528 18.4989 49.9595 17.3663 50.8404 16.1078C51.2179 15.6045 51.5955 15.3528 52.2247 15.3528C53.4831 15.3528 54.2382 16.6112 53.7348 17.7438C53.609 17.8696 53.609 17.9955 53.4831 18.1213C52.4764 19.5056 51.4696 20.8899 50.4629 22.1483C50.0854 22.6517 49.582 22.9033 48.9528 22.9033C46.6876 22.9033 44.5483 22.9033 42.2831 22.9033C41.5281 22.9033 40.8988 22.5258 40.6472 21.7708C40.2696 20.764 41.0247 19.6314 42.1573 19.6314C43.164 19.6314 44.0449 19.6314 45.0517 19.6314H48.0719V19.7573Z" fill="#F0EFEF"/>
<path id="Vector_6" d="M48.0719 36.2426H44.9258C43.9191 36.2426 43.0382 36.2426 42.0315 36.2426C41.2764 36.2426 40.5213 35.6134 40.3955 34.8583C40.2696 34.1033 40.773 33.3482 41.5281 33.0965C41.6539 32.9707 41.9056 32.9707 42.1573 32.9707C44.4225 32.9707 46.5618 32.9707 48.827 32.9707C49.4562 32.9707 49.8337 33.2224 50.2112 33.7258C51.3438 35.11 52.3506 36.6201 53.4831 38.0044C54.2382 39.0112 53.8607 40.2696 52.7281 40.6471C52.0989 40.8988 51.3438 40.6471 50.8404 40.0179C50.2112 39.137 49.4562 38.2561 48.827 37.3752C48.5753 36.8718 48.3236 36.6201 48.0719 36.2426Z" fill="#F0EFEF"/>
<path id="Vector_7" d="M25.6719 32.9709C22.9034 32.9709 20.764 30.7057 20.764 27.9372C20.764 25.2945 23.0292 23.0293 25.7977 23.0293C28.4404 23.0293 30.7056 25.2945 30.7056 27.9372C30.5798 30.7057 28.3146 32.9709 25.6719 32.9709ZM27.3079 28.063C27.3079 27.1821 26.5528 26.4271 25.6719 26.4271C24.791 26.4271 24.0359 27.1821 24.0359 28.063C24.0359 28.9439 24.791 29.699 25.6719 29.699C26.5528 29.699 27.3079 28.9439 27.3079 28.063Z" fill="#F0EFEF"/>
</g>
<defs>
<clipPath id="clip0_282_994">
<rect width="56" height="56" fill="white"/>
</clipPath>
</defs>
</svg>
