<svg width="32" height="32" viewBox="0 0 32 32" fill="none" xmlns="http://www.w3.org/2000/svg">
<g id="Frame" clip-path="url(#clip0_278_667)">
<path id="Vector" d="M30.6 0C30.7 0 30.7 0.1 30.8 0.1C31.1 0.3 31.3 0.5 31.3 0.9C31.3 2.1 31.3 3.4 31.3 4.6C31.3 5.1 30.9 5.5 30.4 5.5C29.2 5.5 27.9 5.5 26.7 5.5C26.2 5.5 25.8 5.1 25.8 4.6C25.8 4.3 25.8 4 25.8 3.7C25.6 3.6 22.5 3.6 22.1 3.7C25.4 6 27.2 9.1 27.6 13C29.2 13.7 29.6 15.1 29.4 16.2C29.1 17.4 28.1 18.3 26.8 18.3C25.5 18.4 24.4 17.5 24.1 16.4C23.9 15.7 23.9 15 24.3 14.4C24.6 13.8 25.1 13.3 25.8 13C25.6 9.2 22.7 5 18.3 3.9C17.2 5.9 14.4 5.9 13.4 3.9C9.29999 4.8 6.09999 8.8 5.79999 13C6.39999 13.4 6.99999 14 7.29999 14.8C7.49999 15.4 7.49999 16 7.19999 16.7C6.79999 17.8 5.69999 18.5 4.39999 18.4C3.19999 18.3 2.09999 17.4 1.89999 16.2C1.69999 15 2.19999 13.6 3.69999 13C3.69999 12.9 3.69999 12.8 3.79999 12.7C3.89999 11.4 4.29999 10.1 4.79999 8.9C5.39999 7.4 6.39999 6.1 7.59999 5C7.99999 4.6 8.49999 4.3 8.89999 3.9C8.99999 3.8 9.09999 3.8 9.19999 3.7C8.99999 3.7 5.99999 3.6 5.49999 3.7C5.49999 4 5.49999 4.3 5.49999 4.6C5.49999 5 5.19999 5.4 4.79999 5.5C4.69999 5.5 4.59999 5.5 4.49999 5.5C3.29999 5.5 2.19999 5.5 0.999994 5.5C0.499994 5.5 0.199994 5.3 -6.10203e-06 4.9C-6.10203e-06 4.9 -6.10203e-06 4.9 -0.100006 4.8V0.7C0.0999939 0.4 0.399994 0.1 0.699994 0H4.89999C4.89999 0 4.89999 0.1 4.99999 0.1C5.29999 0.3 5.49999 0.5 5.49999 0.9C5.49999 1.1 5.49999 1.3 5.49999 1.4C5.49999 1.5 5.49999 1.6 5.49999 1.8H13C13 1.7 13.1 1.7 13.1 1.7C13.5 0.8 14.1 0.3 15.1 0.1C15.1 0.1 15.2 0.1 15.2 0H16.1C16.2 0 16.2 0.1 16.3 0.1C17.2 0.3 17.8 0.8 18.2 1.7C18.2 1.8 18.3 1.8 18.3 1.9H25.8C25.8 1.6 25.8 1.3 25.8 1C25.8 0.6 26 0.3 26.3 0.1L26.4 0L30.6 0ZM3.59999 1.9H1.89999V3.7H3.69999V1.9H3.59999ZM29.4 1.8H27.6V3.6H29.4V1.8ZM16.6 2.7C16.6 2.2 16.2 1.8 15.7 1.8C15.2 1.8 14.8 2.2 14.8 2.7C14.8 3.2 15.2 3.6 15.7 3.6C16.1 3.7 16.6 3.2 16.6 2.7ZM5.59999 15.7C5.59999 15.2 5.19999 14.8 4.69999 14.8C4.19999 14.8 3.79999 15.2 3.79999 15.7C3.79999 16.2 4.19999 16.6 4.69999 16.6C5.09999 16.6 5.59999 16.1 5.59999 15.7ZM27.6 15.7C27.6 15.2 27.2 14.8 26.7 14.8C26.2 14.8 25.8 15.2 25.8 15.7C25.8 16.2 26.2 16.6 26.7 16.6C27.1 16.6 27.6 16.1 27.6 15.7Z" fill="#F0EFEF"/>
<path id="Vector_2" d="M20.3 26.7C20.8 27.1 21.2 27.6 21.5 28.1C21.9 28.8 22.1 29.5 22.1 30.3C22.1 30.8 21.7 31.3 21.1 31.3C17.5 31.3 13.8 31.3 10.2 31.3C9.69999 31.3 9.19999 30.9 9.19999 30.3C9.19999 29 9.69999 27.9 10.6 27C10.7 26.9 10.8 26.8 10.9 26.7C10.9 26.7 10.9 26.7 10.9 26.6C10.9 26.3 10.8 26 10.7 25.6C10.4 24.5 9.99999 23.4 9.49999 22.3C8.99999 21.4 8.39999 20.7 7.79999 20C7.69999 19.9 7.49999 19.7 7.49999 19.5C7.29999 19.2 7.39999 18.8 7.59999 18.6C7.99999 17.9 8.49999 17.3 8.89999 16.6C10.8 13.7 12.8 10.8 14.7 7.90001C14.8 7.80001 14.8 7.70001 14.9 7.60001C15.3 7.20001 15.9 7.10001 16.3 7.60001C16.4 7.70001 16.4 7.70001 16.5 7.80001C18.9 11.3 21.2 14.9 23.6 18.4C23.6 18.4 23.6 18.5 23.7 18.5C24.1 19 24 19.4 23.6 19.9C23.1 20.4 22.7 21 22.3 21.5C21.5 22.7 20.9 24 20.6 25.4C20.5 26 20.4 26.3 20.3 26.7ZM16.6 11.4V16.7C18.2 17.4 18.6 18.8 18.4 19.9C18.1 21.1 17.1 22 15.9 22.1C14.7 22.2 13.6 21.4 13.2 20.3C13 19.7 12.9 19.1 13.2 18.4C13.5 17.6 14.1 17 14.9 16.7C15 15.7 14.9 11.7 14.9 11.4C13.2 14 11.4 16.6 9.69999 19.2C9.79999 19.4 9.89999 19.5 9.99999 19.6C11.4 21.3 12.3 23.2 12.8 25.3C12.8 25.5 12.9 25.6 12.9 25.8C13.3 25.8 13.6 25.7 13.9 25.7C15.5 25.7 17.1 25.6 18.8 25.8C19.3 23.3 20.3 21.1 22 19.2C20.1 16.6 18.3 14 16.6 11.4ZM11.2 29.4H20C20 29.3 19.9 29.2 19.9 29.2C19.9 29.1 19.8 29.1 19.8 29C19.2 28.1 18.4 27.6 17.3 27.6C16.2 27.6 15.1 27.6 14.1 27.6C13.9 27.6 13.6 27.6 13.4 27.6C12.4 27.8 11.7 28.4 11.2 29.4ZM15.6 18.4C15.1 18.4 14.7 18.8 14.7 19.3C14.7 19.8 15.1 20.2 15.6 20.2C16.1 20.2 16.5 19.8 16.5 19.3C16.6 18.8 16.1 18.4 15.6 18.4Z" fill="#F0EFEF"/>
</g>
<defs>
<clipPath id="clip0_278_667">
<rect width="31.3" height="31.3" fill="white"/>
</clipPath>
</defs>
</svg>
