<svg width="19" height="32" viewBox="0 0 19 32" fill="none" xmlns="http://www.w3.org/2000/svg">
<g id="Frame" clip-path="url(#clip0_278_649)">
<path id="Vector" d="M16.7 0C16.8 0 16.9 0.1 17 0.1C17.8 0.4 18.2 1 18.3 1.8C18.3 1.9 18.3 2 18.3 2.1C18.3 11.3 18.3 20.4 18.3 29.6C18.3 30.2 18.2 30.8 17.7 31.3C17.3 31.7 16.9 31.9 16.4 31.9C11.6 31.9 6.89997 31.9 2.09997 31.9C1.09997 31.9 0.199971 31.1 0.0999714 30.1C0.0999714 30 0.0999714 29.8 0.0999714 29.7C0.0999714 20.6 0.0999714 11.4 0.0999714 2.3C-2.85655e-05 1.6 0.0999715 1 0.599971 0.6C0.799971 0.4 1.19997 0.2 1.39997 0.1C1.49997 0 1.49997 0 1.59997 0H16.7ZM16.6 4.3H1.59997V27.6H16.6V4.3ZM9.09997 28.9C8.49997 28.9 7.89997 28.9 7.39997 28.9C6.89997 28.9 6.49997 29.2 6.49997 29.7C6.49997 30.2 6.79997 30.5 7.29997 30.6C7.39997 30.6 7.39997 30.6 7.49997 30.6C8.59997 30.6 9.59997 30.6 10.7 30.6C10.8 30.6 11 30.6 11.1 30.6C11.4 30.5 11.7 30.3 11.7 30C11.8 29.4 11.4 29 10.9 29C10.3 28.9 9.69997 28.9 9.09997 28.9ZM9.19997 1.8C8.69997 1.8 8.29997 1.8 7.79997 1.8C7.49997 1.8 7.19997 1.8 6.99997 1.8C6.79997 1.8 6.69997 1.9 6.69997 2.1C6.69997 2.3 6.79997 2.4 6.99997 2.5C7.09997 2.5 7.19997 2.5 7.19997 2.5H11.2C11.3 2.5 11.4 2.5 11.4 2.5C11.6 2.5 11.7 2.3 11.7 2.1C11.7 1.9 11.6 1.8 11.4 1.8C11.3 1.8 11.2 1.8 11.2 1.8H9.19997Z" fill="#F0EFEF"/>
<path id="Vector_2" d="M10.8 13.4H7.5V16.7H10.8V13.4Z" fill="#F0EFEF"/>
<path id="Vector_3" d="M10.8 19.2H7.5V22.5H10.8V19.2Z" fill="#F0EFEF"/>
<path id="Vector_4" d="M10.8 7.59998H7.5V10.9H10.8V7.59998Z" fill="#F0EFEF"/>
<path id="Vector_5" d="M15.6 7.59998H12.3V10.9H15.6V7.59998Z" fill="#F0EFEF"/>
<path id="Vector_6" d="M6.00001 13.4H2.70001V16.7H6.00001V13.4Z" fill="#F0EFEF"/>
<path id="Vector_7" d="M15.6 13.4H12.3V16.7H15.6V13.4Z" fill="#F0EFEF"/>
<path id="Vector_8" d="M6.00001 19.2H2.70001V22.5H6.00001V19.2Z" fill="#F0EFEF"/>
<path id="Vector_9" d="M15.6 19.2H12.3V22.5H15.6V19.2Z" fill="#F0EFEF"/>
</g>
<defs>
<clipPath id="clip0_278_649">
<rect width="18.3" height="31.9" fill="white"/>
</clipPath>
</defs>
</svg>
