<svg width="32" height="32" viewBox="0 0 32 32" fill="none" xmlns="http://www.w3.org/2000/svg">
<g id="Frame" clip-path="url(#clip0_278_611)">
<path id="Vector" d="M19.9 24.9C20.6 26.4 21.2 27.8 21.9 29.2C22.5 29.2 23.1 29.2 23.7 29.2C23.9 29.2 24.1 29.2 24.2 29.3C24.8 29.4 25.1 29.9 25.1 30.5C25.1 31.1 24.7 31.6 24.1 31.7C23.9 31.7 23.8 31.8 23.6 31.8C18.4 31.8 13.2 31.8 8 31.8C7.5 31.8 7 31.6 6.7 31.1C6.2 30.3 6.8 29.3 7.8 29.2C8.3 29.2 8.8 29.2 9.3 29.2C9.4 29.2 9.5 29.2 9.7 29.2C10.4 27.8 11 26.4 11.7 24.9C11.6 24.9 11.4 24.9 11.3 24.9C9.2 24.9 7.1 24.9 4.9 24.9C3.9 24.9 3 24.7 2.2 24.2C0.8 23.3 0 22 0 20.2C0 17 0 13.9 0 10.7C0 8.7 0 6.8 0 4.8C0 3.8 0.3 2.9 0.8 2.1C1.6 0.9 2.8 0.2 4.2 0C4.5 0 4.7 0 4.9 0C12.2 0 19.5 0 26.7 0C28.1 0 29.3 0.5 30.3 1.5C31.1 2.2 31.5 3.2 31.6 4.3C31.6 4.7 31.7 5.1 31.7 5.4C31.7 10.2 31.7 15.1 31.7 19.9C31.7 20.7 31.6 21.4 31.3 22.1C30.5 23.8 29.1 24.7 27.2 24.9C27 24.9 26.8 24.9 26.6 24.9C24.5 24.9 22.4 24.9 20.3 24.9H19.9ZM2.6 17.7H29.1V17.3C29.1 13.3 29.1 9.2 29.1 5.2C29.1 5 29.1 4.8 29.1 4.7C29.1 4.3 28.9 3.9 28.7 3.6C28.2 3 27.6 2.7 26.8 2.7C19.5 2.7 12.2 2.7 5 2.7H4.9C4.5 2.6 4.2 2.6 4 2.8C3.1 3.2 2.6 3.9 2.6 4.9C2.6 9 2.6 13.2 2.6 17.3V17.7ZM29.1 20.2H2.7C2.6 21 3.1 21.7 3.9 21.9C4.3 22 4.7 22 5.2 22C10.1 22 15.1 22 20 22C22.2 22 24.4 22 26.7 22C27.2 22 27.6 22 28.1 21.8C28.7 21.6 29.1 21 29.1 20.2ZM12.8 29.2H19C18.3 27.8 17.7 26.3 17 24.9H14.8C14.1 26.3 13.4 27.8 12.8 29.2Z" fill="#F0EFEF"/>
<path id="Vector_2" d="M17.8 5.90002C18.7 5.90002 19.4 6.80002 19 7.70002C19 7.80002 18.9 7.90002 18.8 8.00002C17.6 10.1 16.4 12.2 15.2 14.3C15.1 14.5 15 14.7 14.8 14.8C14.5 15.2 14.1 15.3 13.6 15.1C12.6 14.8 12.2 13.9 12.7 13C14 10.8 15.2 8.70002 16.5 6.50002C16.9 6.10002 17.3 5.90002 17.8 5.90002Z" fill="#F0EFEF"/>
<path id="Vector_3" d="M9.2 10.6C9.3 10.7 9.4 10.8 9.5 10.9C10 11.4 10.5 11.9 10.9 12.3C11.2 12.6 11.4 13 11.3 13.5C11.2 14.1 10.6 14.6 10 14.5C9.6 14.5 9.2 14.3 8.9 14C8.2 13.3 7.5 12.6 6.8 11.9C6.2 11.3 6 10.4 6.5 9.70002C6.6 9.60002 6.7 9.50002 6.8 9.40002C7.6 8.60002 8.3 7.90002 9.1 7.10002C9.4 6.80002 9.8 6.60002 10.3 6.70002C11.3 6.90002 11.7 8.10002 11 8.90002C10.7 9.30002 10.3 9.60002 10 9.90002C9.7 10.1 9.5 10.4 9.2 10.6Z" fill="#F0EFEF"/>
<path id="Vector_4" d="M22.5 10.6C22.4 10.5 22.3 10.4 22.3 10.3C21.8 9.80002 21.3 9.30002 20.8 8.80002C20.4 8.40002 20.3 8.00002 20.5 7.40002C20.7 6.90002 21 6.60002 21.6 6.50002C22 6.40002 22.4 6.50002 22.7 6.80002C23.5 7.60002 24.3 8.40002 25.1 9.20002C25.7 9.90002 25.7 10.9 25.1 11.6C24.3 12.4 23.5 13.2 22.7 14C22 14.7 20.6 14.4 20.5 13.3C20.4 12.8 20.6 12.5 20.9 12.1C21.4 11.6 21.9 11.1 22.4 10.6C22.4 10.8 22.5 10.7 22.5 10.6Z" fill="#F0EFEF"/>
</g>
<defs>
<clipPath id="clip0_278_611">
<rect width="31.8" height="31.8" fill="white"/>
</clipPath>
</defs>
</svg>
