<svg width="95" height="96" viewBox="0 0 95 96" fill="none" xmlns="http://www.w3.org/2000/svg">
<g id="Frame" clip-path="url(#clip0_278_552)">
<g id="Group">
<path id="Vector" d="M32.4831 96C32.0872 95.8751 31.6667 95.7501 31.2708 95.6501C27.0898 94.5754 24.1706 91.2513 23.5768 86.9024C23.4531 86.0276 23.3047 85.1779 23.5521 84.3031C24.0221 82.6035 25.3828 81.5038 27.1146 81.3788C27.4114 81.3539 27.7331 81.3289 28.0299 81.2289C29.4154 80.854 30.2318 79.6543 30.1081 78.2047C29.9844 76.855 28.8216 75.7553 27.3867 75.7553C24.9622 75.7553 22.8594 76.5801 21.0534 78.2047C19.9401 79.2294 19.0742 80.4291 18.5547 81.8537C18.4805 82.0537 18.3815 82.2536 18.3073 82.4286C13.013 83.0534 7.91666 79.2794 6.8776 73.9808C6.58072 72.4312 6.48176 70.8816 7.05077 69.357C8.08984 66.5577 10.0937 64.8831 13.0625 64.4583C13.4831 64.4083 13.9284 64.3833 14.3489 64.3083C15.7344 64.1333 16.7487 62.9087 16.6992 61.509C16.6497 60.0594 15.6107 58.9097 14.2253 58.8347C13.1862 58.7847 12.1224 58.8347 11.0833 58.8097C8.93098 58.7597 6.85286 58.3598 4.97265 57.1851C2.05338 55.3856 0.470044 52.6863 0.0989503 49.3122C-0.272143 45.8381 0.667961 42.7389 3.1914 40.2646C5.04687 38.415 7.34765 37.5153 9.9453 37.3403C11.207 37.2653 12.4687 37.3153 13.7552 37.2903C15.1654 37.2653 16.1797 36.5655 16.5755 35.4158C17.1198 33.7912 16.1549 31.7168 13.9036 31.6668C12.0976 31.6418 10.5143 31.017 9.17838 29.8173C7.694 28.4676 6.85286 26.7931 6.72916 24.7436C6.43228 19.0951 10.7122 14.2713 15.9323 13.6715C16.4023 13.6215 16.8476 13.5715 17.3177 13.5465C17.6146 13.5215 17.9362 13.5465 18.2825 13.5465C18.4062 13.8714 18.5299 14.1464 18.6536 14.4213C20.1133 17.9704 23.5273 20.2698 27.263 20.3198C29.0195 20.3447 30.1081 18.9201 30.1575 17.7454C30.2318 16.1958 29.2422 14.9961 27.6836 14.7712C27.3867 14.7212 27.0651 14.6712 26.7682 14.6212C24.8385 14.2713 23.5521 12.7967 23.4531 10.7972C23.4036 9.62254 23.5768 8.49783 23.9974 7.39812C25.3581 3.89903 27.7083 1.3247 31.3698 0.349953C37.6289 -1.29962 43.6654 2.89929 44.6055 9.02269C44.7292 9.79749 44.7786 10.5723 44.7786 11.3471C44.8034 17.7454 44.8034 24.1438 44.7786 30.5671C44.7786 31.3169 44.6797 32.0667 44.4818 32.7665C43.7643 35.3158 41.4635 36.8654 38.7669 36.7155C36.1198 36.5655 34.0664 34.666 33.6458 31.9917C33.5963 31.6168 33.5469 31.2419 33.4974 30.867C33.3489 29.2924 32.1614 28.2177 30.6523 28.2677C29.2174 28.3177 28.0547 29.4924 28.0299 31.017C27.9805 35.4158 30.0091 38.69 33.72 40.8144C37.1094 42.7639 40.6471 42.8889 44.1849 41.1143C44.3581 41.0394 44.5065 40.9644 44.7292 40.8644C44.7292 45.6382 44.7292 50.3369 44.7292 55.1107C44.457 54.9857 44.2344 54.9107 44.0117 54.7858C37.7773 51.6116 30.0833 55.4356 28.401 61.9339C28.1289 62.9337 28.0547 64.0334 28.0547 65.0831C28.0547 66.5577 29.2174 67.6574 30.6523 67.7074C32.1367 67.7574 33.3242 66.7077 33.4974 65.2081C33.5716 64.5082 33.6458 63.7834 33.8685 63.0836C34.5859 60.7092 36.862 59.1846 39.3359 59.3096C42.0078 59.4346 44.0612 61.1341 44.5807 63.6335C44.6797 64.1583 44.7539 64.6832 44.7539 65.2081C44.7539 71.8563 44.8034 78.5046 44.7539 85.1779C44.7292 88.577 43.4922 91.5012 40.7956 93.7006C39.4596 94.7754 37.9505 95.4252 36.293 95.7751C36.095 95.8251 35.8971 95.9001 35.6992 95.975C34.5859 96 33.5221 96 32.4831 96Z" fill="url(#paint0_linear_278_552)"/>
<path id="Vector_2" d="M95 61.309C94.8763 61.7839 94.7526 62.2588 94.6042 62.7337C93.6641 66.0078 90.6953 68.4072 87.3307 68.8321C83.1992 69.332 79.5625 67.0825 78.1276 63.4335C78.0781 63.2835 77.9792 63.1586 77.8802 62.9586C76.7175 62.9586 75.5547 62.9586 74.3672 62.9586C73.4766 62.9586 72.586 62.9586 71.6706 62.9586C70.6563 62.9586 69.8151 62.6087 69.0977 61.8839C67.6628 60.4093 66.2031 58.9846 64.793 57.51C64.3972 57.0851 63.9766 56.9352 63.4076 56.9352C59.3998 56.9602 55.3672 56.9352 51.3594 56.9352C51.0378 56.9352 50.6914 56.9352 50.2956 56.9352C50.2956 55.0107 50.2956 53.1862 50.2956 51.2867C50.543 51.2617 50.7656 51.2117 51.013 51.2117C55.6393 51.2117 60.2904 51.2117 64.9167 51.2117C66.0052 51.2117 66.8711 51.5866 67.638 52.3614C69.0482 53.811 70.4831 55.2106 71.8932 56.6852C72.2891 57.1101 72.7097 57.2601 73.2787 57.2601C74.7878 57.2351 76.2969 57.2601 77.8555 57.2601C78.0039 56.9852 78.1276 56.7602 78.2266 56.5103C79.8347 52.8612 83.4714 50.9617 86.8854 51.2867C90.8932 51.6616 93.9115 54.3608 94.7774 58.2098C94.8268 58.3848 94.9011 58.5348 94.9753 58.7097C95 59.5595 95 60.4343 95 61.309Z" fill="url(#paint1_linear_278_552)"/>
<path id="Vector_3" d="M95 37.3153C94.8763 37.6902 94.7526 38.0651 94.6536 38.44C93.6393 41.8641 91.3138 43.8636 87.8997 44.6134C84.1888 45.4132 79.9089 43.6387 78.1523 39.3148C78.1029 39.1648 78.0286 39.0398 77.9049 38.8149C76.668 38.8149 75.4063 38.8899 74.1445 38.7899C72.9818 38.6899 72.1159 39.0398 71.3242 39.9396C70.1862 41.2393 68.875 42.414 67.6875 43.6636C66.9453 44.4634 66.0794 44.8383 64.9661 44.8133C60.3646 44.7884 55.763 44.7884 51.1615 44.7884C50.8893 44.7884 50.6172 44.7634 50.3203 44.7384C50.3203 42.8888 50.3203 41.0893 50.3203 39.1898C54.9466 39.1898 59.5729 39.1898 64.1745 39.1898C65.7578 37.5902 67.3164 36.0656 68.8008 34.491C69.7161 33.5163 70.7305 33.0414 72.0664 33.1164C73.6992 33.1914 75.332 33.1414 76.9896 33.1414C77.2865 33.1414 77.6081 33.1414 77.806 33.1414C78.3503 32.1916 78.7708 31.2669 79.3893 30.4921C81.6901 27.5428 84.7826 26.5931 88.2956 27.3929C91.7839 28.1927 93.9857 30.4921 94.8268 34.0412C94.8763 34.2411 94.9505 34.441 95.0247 34.641C95 35.5658 95 36.4405 95 37.3153Z" fill="url(#paint2_linear_278_552)"/>
<path id="Vector_4" d="M67.2422 22.8192C67.1185 23.0191 66.9453 23.344 66.7227 23.569C65.0651 25.2685 63.4075 26.9181 61.75 28.6176C60.9336 29.4424 60.0182 29.8423 58.8555 29.8173C56.332 29.7923 53.7838 29.8173 51.2604 29.8173C50.9883 29.8173 50.7161 29.8173 50.444 29.8173C50.2213 29.1175 50.1719 25.9433 50.345 24.1938C50.6419 24.1688 50.9635 24.1438 51.3099 24.1438C53.4128 24.1438 55.5156 24.1438 57.6185 24.1438C57.9896 24.1438 58.3359 24.0938 58.6328 23.7939C60.2409 22.1443 61.8737 20.5198 63.5065 18.8702C62.3932 16.5458 62.2695 14.1964 63.1849 11.797C63.9271 9.84753 65.2135 8.29794 66.9948 7.22322C70.4336 5.17375 74.8867 5.82358 77.6823 8.79781C80.5026 11.772 80.9479 16.2709 78.7461 19.67C76.2969 23.394 72.0911 24.6187 67.2422 22.8192Z" fill="url(#paint3_linear_278_552)"/>
<path id="Vector_5" d="M63.4818 77.255C62.1458 75.9053 60.7604 74.6556 59.5482 73.256C58.6576 72.2563 57.7174 71.8814 56.4063 71.9563C54.724 72.0813 53.0169 71.9813 51.3099 71.9813C51.013 71.9813 50.6914 71.9813 50.3203 71.9813C50.3203 70.1068 50.3203 68.2823 50.3203 66.3828C50.5677 66.3578 50.7904 66.3328 51.0378 66.3328C53.6602 66.3328 56.2826 66.3578 58.9297 66.3078C60.043 66.2828 60.9583 66.6577 61.7253 67.4825C63.3333 69.1571 64.9909 70.8066 66.6237 72.4562C66.8711 72.7061 67.0443 72.9811 67.2917 73.281C70.013 72.0313 72.6602 72.0563 75.2578 73.281C77.0143 74.1058 78.276 75.4304 79.1172 77.155C80.9232 80.879 79.9831 85.5278 76.8906 88.0522C74.1198 90.3266 69.444 90.8764 66.1289 88.3271C63.3581 86.1776 61.3294 81.7038 63.4818 77.255Z" fill="url(#paint4_linear_278_552)"/>
</g>
</g>
<defs>
<linearGradient id="paint0_linear_278_552" x1="22.4091" y1="-0.0108643" x2="22.4091" y2="96" gradientUnits="userSpaceOnUse">
<stop stop-color="#E8FAFF"/>
<stop offset="0.55" stop-color="#57C8E7"/>
<stop offset="1" stop-color="#3E5FAA"/>
</linearGradient>
<linearGradient id="paint1_linear_278_552" x1="72.6478" y1="51.2117" x2="72.6478" y2="68.9013" gradientUnits="userSpaceOnUse">
<stop stop-color="#E8FAFF"/>
<stop offset="0.55" stop-color="#57C8E7"/>
<stop offset="1" stop-color="#3E5FAA"/>
</linearGradient>
<linearGradient id="paint2_linear_278_552" x1="72.6725" y1="27.1216" x2="72.6725" y2="44.8145" gradientUnits="userSpaceOnUse">
<stop stop-color="#E8FAFF"/>
<stop offset="0.55" stop-color="#57C8E7"/>
<stop offset="1" stop-color="#3E5FAA"/>
</linearGradient>
<linearGradient id="paint3_linear_278_552" x1="65.1904" y1="6.03479" x2="65.1904" y2="29.8184" gradientUnits="userSpaceOnUse">
<stop stop-color="#E8FAFF"/>
<stop offset="0.55" stop-color="#57C8E7"/>
<stop offset="1" stop-color="#3E5FAA"/>
</linearGradient>
<linearGradient id="paint4_linear_278_552" x1="65.1753" y1="66.3066" x2="65.1753" y2="90.0116" gradientUnits="userSpaceOnUse">
<stop stop-color="#E8FAFF"/>
<stop offset="0.55" stop-color="#57C8E7"/>
<stop offset="1" stop-color="#3E5FAA"/>
</linearGradient>
<clipPath id="clip0_278_552">
<rect width="95" height="96" fill="white"/>
</clipPath>
</defs>
</svg>
