<svg width="51" height="51" viewBox="0 0 51 51" fill="none" xmlns="http://www.w3.org/2000/svg">
<g id="Frame" clip-path="url(#clip0_282_988)">
<path id="Vector" d="M42.3913 33.7827C36.7826 36.6522 31.0435 39.3914 25.4348 42.2609C19.8261 39.3914 14.087 36.6522 8.47827 33.7827V14.7392C14.087 12.0001 19.6957 9.13049 25.4348 6.39136C31.0435 9.13049 36.7826 12.0001 42.3913 14.7392V33.7827ZM36.3913 16.5653C32.7391 14.7392 29.087 12.9131 25.5652 11.2174C21.9131 13.0435 18.3913 14.7392 14.7391 16.5653C18.3913 18.3914 22.0435 20.2174 25.5652 21.9131C29.087 20.087 32.6087 18.3914 36.3913 16.5653ZM12.7826 31.174C16.3044 32.8696 19.8261 34.6957 23.3478 36.3914V25.5653C19.8261 23.8696 16.3044 22.174 12.7826 20.3479V31.174ZM38.2174 20.4783C34.6957 22.174 31.1739 24.0001 27.6522 25.6957V36.5218C31.1739 34.6957 34.6957 33.0001 38.2174 31.3044V20.4783Z" fill="#F0EFEF"/>
<path id="Vector_2" d="M4.30435 12.7826H0V0.130435C0.391304 0 11.6087 0 12.6522 0V4.30435H4.30435V6.52174V8.6087C4.30435 9.26087 4.30435 10.0435 4.30435 10.6957C4.30435 11.3478 4.30435 12.1304 4.30435 12.7826Z" fill="#F0EFEF"/>
<path id="Vector_3" d="M46.6957 12.7826V4.30435H38.2174V0H50.8696C51 0.391304 51 11.2174 50.8696 12.6522C50.6087 12.7826 47.4783 12.7826 46.6957 12.7826Z" fill="#F0EFEF"/>
<path id="Vector_4" d="M12.6522 46.6955V50.9999H0.130435C0 50.6086 0 38.8695 0 38.2173H4.17391V46.6955H12.6522Z" fill="#F0EFEF"/>
<path id="Vector_5" d="M46.6957 46.6955V38.2173C48.1304 38.2173 49.5652 38.2173 51 38.2173V50.9999H38.3478V46.826C39 46.826 39.6522 46.826 40.4348 46.826C41.087 46.826 41.8696 46.826 42.5218 46.826H44.6087H46.6957V46.6955Z" fill="#F0EFEF"/>
</g>
<defs>
<clipPath id="clip0_282_988">
<rect width="51" height="51" fill="white"/>
</clipPath>
</defs>
</svg>
