<svg width="24" height="25" viewBox="0 0 24 25" fill="none" xmlns="http://www.w3.org/2000/svg">
<g id="material-symbols:dashboard-customize-rounded">
<path id="Vector" d="M4 11.623C3.71667 11.623 3.47933 11.527 3.288 11.335C3.09667 11.143 3.00067 10.9057 3 10.623V4.62305C3 4.33971 3.096 4.10238 3.288 3.91105C3.48 3.71971 3.71733 3.62371 4 3.62305H10C10.2833 3.62305 10.521 3.71905 10.713 3.91105C10.905 4.10305 11.0007 4.34038 11 4.62305V10.623C11 10.9064 10.904 11.144 10.712 11.336C10.52 11.528 10.2827 11.6237 10 11.623H4ZM14 11.623C13.7167 11.623 13.4793 11.527 13.288 11.335C13.0967 11.143 13.0007 10.9057 13 10.623V4.62305C13 4.33971 13.096 4.10238 13.288 3.91105C13.48 3.71971 13.7173 3.62371 14 3.62305H20C20.2833 3.62305 20.521 3.71905 20.713 3.91105C20.905 4.10305 21.0007 4.34038 21 4.62305V10.623C21 10.9064 20.904 11.144 20.712 11.336C20.52 11.528 20.2827 11.6237 20 11.623H14ZM4 21.623C3.71667 21.623 3.47933 21.527 3.288 21.335C3.09667 21.143 3.00067 20.9057 3 20.623V14.623C3 14.3397 3.096 14.1024 3.288 13.911C3.48 13.7197 3.71733 13.6237 4 13.623H10C10.2833 13.623 10.521 13.719 10.713 13.911C10.905 14.103 11.0007 14.3404 11 14.623V20.623C11 20.9064 10.904 21.144 10.712 21.336C10.52 21.528 10.2827 21.6237 10 21.623H4ZM17 21.623C16.7167 21.623 16.4793 21.527 16.288 21.335C16.0967 21.143 16.0007 20.9057 16 20.623V18.623H13.975C13.6917 18.623 13.4583 18.527 13.275 18.335C13.0917 18.143 13 17.9057 13 17.623C13 17.3397 13.096 17.1024 13.288 16.911C13.48 16.7197 13.7173 16.6237 14 16.623H16V14.598C16 14.3147 16.096 14.0814 16.288 13.898C16.48 13.7147 16.7173 13.623 17 13.623C17.2833 13.623 17.521 13.719 17.713 13.911C17.905 14.103 18.0007 14.3404 18 14.623V16.623H20.025C20.3083 16.623 20.5417 16.719 20.725 16.911C20.9083 17.103 21 17.3404 21 17.623C21 17.9064 20.904 18.144 20.712 18.336C20.52 18.528 20.2827 18.6237 20 18.623H18V20.648C18 20.9314 17.904 21.1647 17.712 21.348C17.52 21.5314 17.2827 21.623 17 21.623Z" fill="white"/>
</g>
</svg>
