<svg width="32" height="32" viewBox="0 0 32 32" fill="none" xmlns="http://www.w3.org/2000/svg">
<g id="ic:round-link">
<path id="Vector" d="M22.667 9.3335H18.667C17.9337 9.3335 17.3337 9.9335 17.3337 10.6668C17.3337 11.4002 17.9337 12.0002 18.667 12.0002H22.667C24.867 12.0002 26.667 13.8002 26.667 16.0002C26.667 18.2002 24.867 20.0002 22.667 20.0002H18.667C17.9337 20.0002 17.3337 20.6002 17.3337 21.3335C17.3337 22.0668 17.9337 22.6668 18.667 22.6668H22.667C26.347 22.6668 29.3337 19.6802 29.3337 16.0002C29.3337 12.3202 26.347 9.3335 22.667 9.3335ZM10.667 16.0002C10.667 16.7335 11.267 17.3335 12.0003 17.3335H20.0003C20.7337 17.3335 21.3337 16.7335 21.3337 16.0002C21.3337 15.2668 20.7337 14.6668 20.0003 14.6668H12.0003C11.267 14.6668 10.667 15.2668 10.667 16.0002ZM13.3337 20.0002H9.33366C7.13366 20.0002 5.33366 18.2002 5.33366 16.0002C5.33366 13.8002 7.13366 12.0002 9.33366 12.0002H13.3337C14.067 12.0002 14.667 11.4002 14.667 10.6668C14.667 9.9335 14.067 9.3335 13.3337 9.3335H9.33366C5.65366 9.3335 2.66699 12.3202 2.66699 16.0002C2.66699 19.6802 5.65366 22.6668 9.33366 22.6668H13.3337C14.067 22.6668 14.667 22.0668 14.667 21.3335C14.667 20.6002 14.067 20.0002 13.3337 20.0002Z" fill="#8A8A8E"/>
</g>
</svg>
