<svg width="99" height="100" viewBox="0 0 99 100" fill="none" xmlns="http://www.w3.org/2000/svg">
<g id="machine" clip-path="url(#clip0_278_515)">
<g id="Group">
<path id="Vector" d="M24.6191 34.1549V30.1056C23.5714 29.5775 22.6984 28.8732 21.6508 28.3451C20.9524 27.8169 20.0794 27.4648 19.381 26.9366C17.8095 25.8803 17.2857 24.1197 18.1587 22.3592C18.508 21.831 18.8572 21.3028 19.0318 20.7746C21.127 17.2535 23.0476 13.7324 25.1429 10.2113C25.4921 9.6831 25.8413 9.15493 26.1905 8.80282C27.4127 7.74648 28.8095 7.57042 30.2064 8.45071C31.6032 9.15493 33 10.0352 34.3968 10.9155C34.746 11.0915 35.0953 11.2676 35.2699 11.4437C36.4921 10.7394 37.5397 10.2113 38.7619 9.50704C38.7619 9.33099 38.7619 8.97887 38.7619 8.62676C38.7619 7.04225 38.7619 5.28169 38.7619 3.69718C38.7619 1.76056 40.6826 0 42.4286 0C47.1429 0 51.8572 0 56.3968 0C58.4921 0 60.0635 1.93662 60.0635 3.69718C60.0635 5.6338 60.0635 7.57042 60.0635 9.33099C60.0635 9.33099 60.0635 9.33099 60.0635 9.50704C61.2857 10.2113 62.3334 10.9155 63.5556 11.4437C65.3016 10.5634 66.873 9.50704 68.6191 8.45071C70.0159 7.57042 71.4127 7.74648 72.8095 8.80282C73.3333 9.15493 73.6826 9.6831 73.8572 10.2113C75.7778 13.5563 77.6984 16.9014 79.6191 20.2465C79.9683 20.7746 80.1429 21.3028 80.4921 21.831C81.7143 23.5916 81.1905 26.0563 79.0952 27.2887C77.873 27.993 76.6508 28.6972 75.4286 29.4014C75.0794 29.5775 74.7302 29.9296 74.381 30.1056C74.381 30.2817 74.381 30.2817 74.381 30.4577C74.381 31.6901 74.381 32.9225 74.381 34.1549C74.9048 34.507 75.254 34.6831 75.7778 35.0352C77 35.7394 78.2222 36.4437 79.4445 37.1479C81.3651 38.2042 81.8889 40.3169 80.8413 42.0775C78.5714 46.1268 76.127 50.3521 73.6826 54.4014C72.6349 56.162 70.7143 56.6901 68.7937 55.6338C67.0476 54.7535 65.4762 53.6972 63.7302 52.6408C62.5079 53.3451 61.2857 54.0493 60.0635 54.7535C60.0635 56.6901 60.0635 58.6268 60.0635 60.7394C60.0635 62.3239 59.0159 63.7324 57.4445 64.0845C57.0953 64.2606 56.746 64.2606 56.3968 64.2606C51.6826 64.2606 47.1429 64.2606 42.4286 64.2606C40.6826 64.2606 38.5873 62.6761 38.7619 60.5634C38.9365 58.6268 38.7619 56.6901 38.7619 54.7535C37.5397 54.0493 36.3175 53.3451 35.0953 52.6408C33.873 53.3451 32.6508 54.0493 31.4286 54.7535C31.0794 54.9296 30.5556 55.2817 30.2064 55.4577C28.1111 56.6901 26.1905 56.162 24.9683 54.0493C23.5714 51.7606 22.1746 49.2958 20.7778 47.007C19.9048 45.4225 19.0318 43.838 17.9841 42.2535C16.7619 40.3169 17.4603 37.8521 19.381 36.9718C21.3016 36.0916 22.873 35.0352 24.6191 34.1549ZM49.5873 17.7817C41.7302 17.9577 35.4445 24.1197 35.4445 32.0423C35.4445 40.1409 41.9048 46.3028 49.4127 46.3028C57.4445 46.3028 63.5556 39.9648 63.5556 32.0423C63.7302 24.4718 57.6191 17.9577 49.5873 17.7817Z" fill="url(#paint0_linear_278_515)"/>
<path id="Vector_2" d="M20.7778 75C20.254 73.7676 19.5556 72.7113 19.0317 71.4789H9.25397C8.73016 72.5352 8.03175 73.7676 7.50794 75C8.38095 76.7606 9.25397 78.5211 10.127 80.2817C10.6508 81.162 10.8254 82.0423 10.4762 83.0986C10.127 84.5071 9.07937 85.5634 7.68254 85.7394C6.11111 85.9155 4.88889 85.3873 4.01587 84.1549C3.84127 83.6268 3.66667 83.0986 3.49206 82.7465C2.44444 80.8099 1.57143 78.6972 0.52381 76.7606C-0.174603 75.5282 -0.174603 74.2958 0.52381 73.0634C1.57143 70.7747 2.79365 68.662 3.84127 66.3733C4.53968 64.9648 5.7619 64.0845 7.33333 64.2606C8.38095 64.2606 9.42857 64.2606 10.6508 64.2606C10.6508 63.9085 10.6508 63.5564 10.6508 63.2042C10.6508 60.0352 10.6508 57.0423 10.6508 53.8732C10.6508 52.2887 11.1746 51.2324 12.3968 50.3521C13.9683 49.2958 15.5397 48.2394 17.1111 47.1831C18.3333 49.2958 19.381 51.2324 20.6032 53.3451C19.5556 54.0493 18.6825 54.7535 17.6349 55.4578V64.2606C18.6825 64.2606 19.7302 64.2606 20.7778 64.2606C22.3492 64.2606 23.5714 64.9648 24.2698 66.3733C25.3175 68.662 26.5397 70.9507 27.5873 73.0634C28.1111 74.2958 28.2857 75.3521 27.5873 76.5845C26.3651 78.8732 25.3175 81.162 24.0952 83.6268C22.873 86.0916 19.9048 86.4437 18.1587 84.331C17.1111 83.0986 17.1111 81.8662 17.6349 80.4578C18.3333 79.0493 19.0317 77.4648 19.7302 76.0563C20.4286 75.7042 20.6032 75.3521 20.7778 75Z" fill="url(#paint1_linear_278_515)"/>
<path id="Vector_3" d="M81.3651 64.2606V55.4578C80.3175 54.7535 79.4445 54.0493 78.3968 53.3451C79.6191 51.2324 80.8413 49.2958 81.8889 47.1831C83.6349 48.4155 85.381 49.4718 87.127 50.8803C88 51.5845 88.3492 52.6409 88.3492 53.6972C88.3492 56.8662 88.3492 59.8592 88.3492 63.0282V64.2606C89.5714 64.2606 90.6191 64.2606 91.6667 64.2606C93.4127 64.2606 94.4603 64.9648 95.3334 66.5493C96.381 68.838 97.6032 70.9507 98.6508 73.2394C99.1746 74.4718 99.3492 75.5282 98.6508 76.7606C97.4286 79.0493 96.381 81.338 95.1588 83.8028C93.9365 86.0916 90.9683 86.6197 89.3968 84.6831C88.3492 83.4507 88.1746 82.0423 88.873 80.6338C89.5715 79.2254 90.2699 77.6409 90.9683 76.2324C91.1429 75.8803 91.3175 75.5282 91.4921 75.1761C90.9683 73.9437 90.2699 72.8873 89.7461 71.6549H79.9683C79.4445 72.8873 78.746 73.9437 78.2222 75.1761C79.0953 76.9366 79.9683 78.6972 80.8413 80.4578C81.3651 81.338 81.5397 82.2183 81.1905 83.2747C80.8413 84.6831 79.6191 85.7394 78.2222 85.9155C76.6508 86.0916 75.4286 85.3873 74.5556 83.9789C73.8572 82.5704 73.1587 81.162 72.4603 79.7535C71.9365 78.8732 71.5873 77.8169 71.0635 76.9366C70.5397 75.8803 70.5397 74.6479 71.0635 73.5916C72.2857 71.3028 73.3334 69.0141 74.5556 66.5493C75.254 65.1409 76.3016 64.4366 77.873 64.4366C79.0953 64.2606 80.1429 64.2606 81.3651 64.2606Z" fill="url(#paint2_linear_278_515)"/>
<path id="Vector_4" d="M45.9207 67.7817H52.9048V68.8381C52.9048 70.5986 52.9048 72.5353 52.9048 74.2958C52.9048 76.7606 53.7778 78.8733 55.873 80.4578C57.9683 82.0423 59.3651 84.155 59.8889 86.7958C60.9365 92.0775 57.9683 97.5353 52.7302 99.1198C46.7937 101.056 40.3333 97.1831 39.1111 91.0212C38.9365 90.3169 38.9365 89.6127 38.9365 88.9085C38.9365 86.9719 40.3334 85.3874 42.254 85.3874C44.1746 85.3874 45.746 86.7958 45.9207 88.7324C45.9207 89.9648 46.2699 90.8451 47.3175 91.7254C48.7143 92.9578 50.8095 92.7817 52.0318 91.3733C53.254 89.9648 53.254 87.8522 52.0318 86.4437C51.8572 86.2677 51.6826 86.0916 51.508 85.9155C47.8413 82.9226 46.0953 79.0493 45.9207 74.2958C45.9207 72.3592 45.9207 70.2465 45.9207 67.7817Z" fill="url(#paint3_linear_278_515)"/>
</g>
</g>
<defs>
<linearGradient id="paint0_linear_278_515" x1="49.3739" y1="0" x2="49.3739" y2="64.2606" gradientUnits="userSpaceOnUse">
<stop stop-color="#E8FAFF"/>
<stop offset="0.55" stop-color="#57C8E7"/>
<stop offset="1" stop-color="#3E5FAA"/>
</linearGradient>
<linearGradient id="paint1_linear_278_515" x1="14.024" y1="47.1831" x2="14.024" y2="85.7725" gradientUnits="userSpaceOnUse">
<stop stop-color="#E8FAFF"/>
<stop offset="0.55" stop-color="#57C8E7"/>
<stop offset="1" stop-color="#3E5FAA"/>
</linearGradient>
<linearGradient id="paint2_linear_278_515" x1="84.8911" y1="47.1831" x2="84.8911" y2="85.9421" gradientUnits="userSpaceOnUse">
<stop stop-color="#E8FAFF"/>
<stop offset="0.55" stop-color="#57C8E7"/>
<stop offset="1" stop-color="#3E5FAA"/>
</linearGradient>
<linearGradient id="paint3_linear_278_515" x1="49.5172" y1="67.7817" x2="49.5172" y2="99.6216" gradientUnits="userSpaceOnUse">
<stop stop-color="#E8FAFF"/>
<stop offset="0.55" stop-color="#57C8E7"/>
<stop offset="1" stop-color="#3E5FAA"/>
</linearGradient>
<clipPath id="clip0_278_515">
<rect width="99" height="100" fill="white"/>
</clipPath>
</defs>
</svg>
