<svg width="19" height="25" viewBox="0 0 19 25" fill="none" xmlns="http://www.w3.org/2000/svg">
<g id="Frame" clip-path="url(#clip0_1_185)">
<path id="Vector" d="M9.36586 15.623C7.17785 15.623 5.40566 13.833 5.40566 11.623C5.40566 9.41305 7.17785 7.62305 9.36586 7.62305C11.5539 7.62305 13.326 9.41305 13.326 11.623C13.326 13.833 11.5539 15.623 9.36586 15.623ZM9.36586 17.623C6.1977 17.623 3.36617 19.713 2.49492 22.703C2.26721 23.503 2.71273 24.333 3.49487 24.563C4.27701 24.793 5.10865 24.343 5.33636 23.553C5.85119 21.823 7.50457 20.623 9.36586 20.623C11.2271 20.623 12.8805 21.823 13.3855 23.543C13.5736 24.193 14.1676 24.623 14.8111 24.623C14.9497 24.623 15.0883 24.603 15.2269 24.563C16.019 24.333 16.4645 23.493 16.2368 22.703C15.3655 19.713 12.5439 17.623 9.36586 17.623ZM18.0585 15.603L17.5239 15.243C18.0189 14.113 18.2763 12.883 18.2763 11.623C18.2763 10.353 18.009 9.13305 17.5338 8.03305L18.0585 7.69305C18.7416 7.24305 18.9396 6.31305 18.4941 5.61305C18.0486 4.91305 17.1179 4.72305 16.4348 5.17305L15.9002 5.52305C14.5933 4.09305 12.831 3.09305 10.8509 2.75305V2.12305C10.8509 1.29305 10.1876 0.623047 9.36586 0.623047C8.54412 0.623047 7.88078 1.29305 7.88078 2.12305V2.75305C5.90069 3.09305 4.1384 4.09305 2.83154 5.52305L2.29691 5.18305C1.61378 4.73305 0.693037 4.92305 0.247515 5.61305C-0.198006 6.30305 -0.00989714 7.23305 0.683136 7.69305L1.20786 8.03305C0.722738 9.13305 0.455425 10.353 0.455425 11.623C0.455425 12.863 0.702937 14.073 1.18806 15.193L0.702937 15.493C0.0099038 15.933 -0.207907 16.853 0.227714 17.553C0.663335 18.253 1.57418 18.473 2.27711 18.033L3.94039 16.993C4.27701 16.783 4.52452 16.433 4.60373 16.043C4.69283 15.643 4.61363 15.233 4.39582 14.893C3.76219 13.933 3.42557 12.793 3.42557 11.623C3.42557 8.31305 6.0888 5.62305 9.36586 5.62305C12.6429 5.62305 15.3061 8.31305 15.3061 11.623C15.3061 12.803 14.9695 13.943 14.3359 14.913C13.8904 15.603 14.0785 16.533 14.7616 16.993L16.4348 18.103C16.6823 18.273 16.9694 18.353 17.2466 18.353C17.7318 18.353 18.207 18.113 18.4842 17.683C18.9396 16.983 18.7515 16.053 18.0585 15.603Z" fill="white"/>
</g>
<defs>
<clipPath id="clip0_1_185">
<rect width="18.7317" height="24" fill="white" transform="translate(0 0.623047)"/>
</clipPath>
</defs>
</svg>
