<svg width="40" height="40" viewBox="0 0 40 40" fill="none" xmlns="http://www.w3.org/2000/svg">
<path d="M39.0962 17.0399C38.9819 17.7259 38.8904 18.4348 38.7304 19.1209C38.2501 21.4534 37.2211 23.5115 35.7118 25.3638C33.2421 28.3823 30.0406 30.1889 26.1988 30.7148C21.7853 31.3094 17.8292 30.1203 14.4219 27.2618C14.3305 27.1932 14.239 27.1246 14.1704 27.056C13.8045 27.4219 13.4386 27.7878 13.0727 28.1536C13.2328 28.4509 13.4386 28.7253 13.553 29.0455C13.9188 30.0517 13.6216 30.8978 12.8898 31.6524C10.6716 33.8706 8.47631 36.0659 6.25814 38.284C5.91512 38.6271 5.59497 38.9472 5.25196 39.2674C4.26864 40.2049 2.96518 40.2507 1.959 39.3588C1.45591 38.9243 0.998553 38.4441 0.586933 37.941C-0.0991001 37.1178 -0.0762324 35.9287 0.564065 35.0826C0.701272 34.9225 0.838478 34.7624 0.998553 34.6023C3.42254 32.1784 5.84652 29.8001 8.22477 27.3533C9.16234 26.3928 10.4658 25.8897 11.8836 27.0102C12.2266 26.6444 12.5925 26.2556 12.9355 25.8897C12.4553 25.2266 11.9065 24.5177 11.4263 23.7859C10.2371 21.9107 9.52823 19.8526 9.27668 17.6345C9.00227 15.0961 9.29955 12.6493 10.2829 10.2939C11.289 7.84706 12.8212 5.78896 14.9022 4.16535C16.7773 2.67895 18.904 1.7185 21.2594 1.23828C21.9226 1.10107 22.5857 1.05534 23.2489 0.963867C23.8663 0.963867 24.4609 0.963867 25.0783 0.963867C25.4442 1.0096 25.8329 1.07821 26.1988 1.12394C28.0282 1.37549 29.7662 1.94718 31.3898 2.86189C33.4479 4.00528 35.1401 5.56029 36.4665 7.48118C37.6327 9.15053 38.4102 11.0028 38.799 13.0152C38.9133 13.6783 39.0048 14.3415 39.0962 15.0047C39.0962 15.6678 39.0962 16.3539 39.0962 17.0399ZM37.4726 16.3539C37.7242 9.47067 32.4875 2.9991 24.781 2.58748C17.7606 2.19873 10.9689 7.66412 10.786 15.7136C10.6259 22.3681 15.8626 29.0912 23.9349 29.2742C30.5666 29.4342 37.1525 24.289 37.4726 16.3539ZM3.55974 38.4441C3.78842 38.3069 4.0171 38.2383 4.1543 38.0782C6.71549 35.5399 9.25382 32.9787 11.7921 30.4404C12.2038 30.0288 12.2038 29.6172 11.7921 29.1827C11.5406 28.9083 11.2662 28.6339 10.9918 28.3823C10.3972 27.8106 10.0313 27.8106 9.45963 28.4052C7.85888 30.0059 6.25814 31.6067 4.65739 33.2074C3.78842 34.0764 2.89658 34.9682 2.0276 35.8372C1.54738 36.3174 1.54738 36.7062 2.0276 37.1864C2.32488 37.5065 2.62216 37.8038 2.94231 38.1011C3.10239 38.2383 3.33106 38.3298 3.55974 38.4441Z" fill="white"/>
<path d="M32.5346 7.64091C37.0624 12.0773 37.0853 19.7151 32.5117 24.22C32.1687 23.8542 31.8257 23.4883 31.4369 23.0995C33.335 21.1329 34.364 18.7318 34.364 15.919C34.364 13.1292 33.3578 10.7281 31.4141 8.73857C31.7799 8.37268 32.1458 8.02967 32.5346 7.64091Z" fill="white"/>
</svg>
