<svg width="27" height="25" viewBox="0 0 27 25" fill="none" xmlns="http://www.w3.org/2000/svg">
<g id="Frame" clip-path="url(#clip0_1_181)">
<g id="Group">
<path id="Vector" d="M26.909 15.623C26.909 14.798 26.2363 14.123 25.4141 14.123H22.4242V17.123H25.4141C26.2363 17.123 26.909 16.448 26.909 15.623ZM25.4141 20.123H22.4242V23.123H25.4141C26.2363 23.123 26.909 22.448 26.909 21.623C26.909 20.798 26.2363 20.123 25.4141 20.123ZM13.4545 15.623H10.4646V21.623H13.4545C13.4545 23.273 14.8 24.623 16.4444 24.623H20.9292V12.623H16.4444C14.8 12.623 13.4545 13.973 13.4545 15.623Z" fill="white"/>
<path id="Vector_2" d="M2.9899 14.123C2.9899 12.473 4.33535 11.123 5.9798 11.123H8.22222C11.1075 11.123 13.4545 8.76805 13.4545 5.87305C13.4545 2.97805 11.1075 0.623047 8.22222 0.623047H2.9899C2.16768 0.623047 1.49495 1.29805 1.49495 2.12305C1.49495 2.94805 2.16768 3.62305 2.9899 3.62305H8.22222C9.46303 3.62305 10.4646 4.62805 10.4646 5.87305C10.4646 7.11805 9.46303 8.12305 8.22222 8.12305H5.9798C2.67596 8.12305 0 10.808 0 14.123C0 17.438 2.67596 20.123 5.9798 20.123H8.9697V17.123H5.9798C4.33535 17.123 2.9899 15.773 2.9899 14.123Z" fill="white"/>
</g>
</g>
<defs>
<clipPath id="clip0_1_181">
<rect width="26.9091" height="24" fill="white" transform="translate(0 0.623047)"/>
</clipPath>
</defs>
</svg>
