<svg width="24" height="25" viewBox="0 0 24 25" fill="none" xmlns="http://www.w3.org/2000/svg">
<g id="streamline:ai-technology-spark-solid" clip-path="url(#clip0_1_179)">
<path id="Vector" fill-rule="evenodd" clip-rule="evenodd" d="M12.9035 16.6191C13.8971 16.0432 14.7656 15.2744 15.4578 14.358C15.2337 14.0121 15.0751 13.628 14.9898 13.2248L14.9572 13.074C14.8629 12.6437 14.6427 12.2512 14.3246 11.9465C14.0065 11.6418 13.6049 11.4387 13.1709 11.3631C9.61889 10.746 9.61889 5.64769 13.1709 5.02883C13.5902 4.95602 13.9796 4.76406 14.2927 4.47588C14.6058 4.1877 14.8293 3.81548 14.9366 3.40369C14.1014 2.49351 13.0792 1.77464 11.9403 1.29631C10.8013 0.817982 9.57237 0.5915 8.33771 0.63238C7.10305 0.673261 5.89181 0.980537 4.78697 1.53316C3.68213 2.08578 2.7098 2.87069 1.93658 3.83412C1.16336 4.79755 0.607528 5.91673 0.30716 7.115C0.00679091 8.31327 -0.0310169 9.5623 0.196326 10.7765C0.423669 11.9908 0.910791 13.1415 1.62432 14.15C2.33785 15.1584 3.26093 16.0007 4.33032 16.6191V18.6231C4.33032 19.0778 4.51093 19.5138 4.83242 19.8353C5.15392 20.1568 5.58995 20.3374 6.04461 20.3374H11.1875C11.6421 20.3374 12.0782 20.1568 12.3996 19.8353C12.7211 19.5138 12.9018 19.0778 12.9018 18.6231L12.9035 16.6191ZM4.33204 23.3374C4.33204 22.9964 4.4675 22.6694 4.70861 22.4283C4.94973 22.1871 5.27676 22.0517 5.61775 22.0517H11.6178C11.9587 22.0517 12.2858 22.1871 12.5269 22.4283C12.768 22.6694 12.9035 22.9964 12.9035 23.3374C12.9035 23.6784 12.768 24.0054 12.5269 24.2465C12.2858 24.4877 11.9587 24.6231 11.6178 24.6231H5.61775C5.27676 24.6231 4.94973 24.4877 4.70861 24.2465C4.4675 24.0054 4.33204 23.6784 4.33204 23.3374ZM16.812 3.56654C17.1257 2.1334 19.1658 2.12483 19.4915 3.55454L19.5069 3.62312L19.5378 3.75683C19.7218 4.54039 20.132 5.25258 20.7175 5.80486C21.303 6.35713 22.0379 6.72514 22.8309 6.86312C24.3258 7.12369 24.3258 9.26997 22.8309 9.53055C22.0334 9.66934 21.2948 10.0407 20.7076 10.5979C20.1205 11.1551 19.7111 11.8734 19.5309 12.6625L19.4915 12.8374C19.1658 14.2688 17.124 14.2603 16.8086 12.8254L16.776 12.6763C16.6032 11.8845 16.1985 11.1621 15.6135 10.6013C15.0286 10.0404 14.2898 9.66647 13.4915 9.52712C11.9983 9.26826 11.9983 7.1254 13.4915 6.86483C14.287 6.72648 15.0236 6.35519 15.608 5.79795C16.1924 5.24072 16.5983 4.52261 16.7743 3.73454L16.8 3.62312L16.812 3.56654Z" fill="white"/>
</g>
<defs>
<clipPath id="clip0_1_179">
<rect width="24" height="24" fill="white" transform="translate(0 0.623047)"/>
</clipPath>
</defs>
</svg>
