<svg width="154" height="52" viewBox="0 0 154 52" fill="none" xmlns="http://www.w3.org/2000/svg">
<g id="xis rt">
<path id="Vector" d="M23.4441 32.2114L22.8666 33.0195L18.478 27.1315L19.0555 26.4387L19.2865 26.0924L19.9794 25.2842L27.7171 15.2398H36.4942L24.368 31.0568L23.675 31.865L23.4441 32.2114Z" fill="#59C9E6"/>
<path id="Vector_2" d="M36.8406 51.2612H27.6016L19.7484 40.8704L19.171 40.0623L18.94 39.7159L18.3625 38.9077L22.8666 33.0196H22.9821L23.444 33.7124L23.675 34.0587L24.3679 34.8669L36.8406 51.2612Z" fill="#59C9E6"/>
<path id="Vector_3" d="M23.444 33.7124L23.675 34.0587L19.171 40.0623L18.94 39.7159L18.3625 38.9077L22.8666 33.0196H22.9821L23.444 33.7124Z" fill="#4EAEC8"/>
<path id="Vector_4" d="M23.4441 32.2114L22.8666 33.0196L18.478 27.1315L19.0555 26.4388L19.2865 26.0924L23.675 31.8651L23.4441 32.2114Z" fill="#4EAEC8"/>
<path id="Vector_5" d="M9.47003 38.9077H18.3626L9.00812 51.2611H0L9.47003 38.9077Z" fill="#4061A9"/>
<path id="Vector_6" d="M22.8666 33.0195L18.3625 38.9077L13.974 33.135L0.346436 15.2398H9.46994L22.8666 33.0195Z" fill="#4061A9"/>
<path id="Vector_7" d="M46.888 15.2398H40.4207V51.2611H46.888V15.2398Z" fill="#EAE9E8"/>
<path id="Vector_8" d="M43.6542 0C42.3839 0 41.3445 0.346359 40.536 1.15453C39.7276 1.9627 39.2656 3.00175 39.2656 4.15628C39.2656 5.31082 39.7276 6.34994 40.536 7.15811C41.3445 7.96628 42.3839 8.31264 43.6542 8.31264C44.9246 8.31264 45.9639 7.85079 46.7723 7.04261C47.5808 6.23444 47.9272 5.19539 47.9272 4.04086C47.9272 2.88633 47.4653 1.84725 46.6569 1.15453C45.964 0.346359 44.9246 0 43.6542 0Z" fill="#EAE9E8"/>
<path id="Vector_9" d="M76.4528 33.2505C75.1824 32.5578 73.6811 32.0959 72.0643 31.6341C70.4474 31.2877 68.8306 30.9414 67.2138 30.7105C65.5969 30.4796 64.0956 30.1332 62.8252 29.7869C61.5549 29.4405 60.4 28.9787 59.5916 28.286C58.7832 27.5933 58.3212 26.6696 58.3212 25.5151C58.3212 24.1297 59.0142 22.9751 60.4 22.0515C61.7859 21.1279 63.8647 20.666 66.7519 20.666C68.4842 20.666 70.2165 20.897 71.9488 21.2433C73.6811 21.5897 75.4134 22.3979 77.0302 23.437L79.802 18.357C78.3006 17.3179 76.3373 16.5097 73.9121 16.0479C71.4868 15.4707 69.1771 15.2398 66.8673 15.2398C63.8646 15.2398 61.2084 15.7016 59.0141 16.5098C56.8199 17.3179 55.0876 18.5879 53.8172 20.2043C52.6623 21.8206 51.9693 23.6679 51.9693 25.746C51.9693 27.8242 52.3158 29.4405 53.1242 30.5951C53.9326 31.865 54.9721 32.7887 56.3579 33.4814C57.7438 34.1741 59.1296 34.7513 60.7465 35.0977C62.3633 35.4441 63.9801 35.7905 65.597 36.0214C67.2138 36.2523 68.7151 36.5986 69.9855 36.8295C71.2559 37.1758 72.4107 37.6377 73.2192 38.2149C74.0276 38.7922 74.374 39.7158 74.374 40.7549C74.374 42.2558 73.6811 43.4103 72.4107 44.3339C71.1404 45.1421 68.9461 45.604 65.9434 45.604C63.6337 45.604 61.3239 45.2576 59.1296 44.5649C56.9353 43.8721 54.9721 42.9485 53.4707 42.0249L50.8145 47.1048C52.3158 48.2594 54.3946 49.183 57.0508 49.9912C59.7071 50.7993 62.4788 51.1457 65.4814 51.1457C68.7151 51.1457 71.3714 50.6839 73.6811 49.8758C75.9909 49.0676 77.7232 47.7976 78.9936 46.2967C80.2639 44.7958 80.8413 42.9485 80.8413 40.7549C80.8413 38.7922 80.3794 37.1759 79.571 36.0214C78.7626 34.7514 77.7232 33.8277 76.4528 33.2505Z" fill="#EAE9E8"/>
<path id="Vector_10" d="M89.0411 42.6022C87.8863 42.6022 86.8468 42.9485 86.0384 43.7567C85.23 44.5649 84.7681 45.604 84.7681 46.874C84.7681 48.1439 85.23 49.183 86.0384 49.9912C86.8468 50.7994 87.8863 51.2612 89.0411 51.2612C90.196 51.2612 91.1199 50.7994 91.9283 49.9912C92.7368 49.183 93.1987 48.1439 93.1987 46.874C93.1987 45.604 92.7368 44.5649 91.9283 43.7567C91.1199 43.064 90.196 42.6022 89.0411 42.6022Z" fill="#EAE9E8"/>
<g id="Group">
<path id="Vector_11" d="M106.249 16.3944L106.711 21.0125C108.79 17.4334 112.139 15.5862 116.989 15.5862C120.569 15.5862 123.457 16.6252 125.651 18.5879L122.302 24.9379C120.569 23.5524 118.491 22.8597 116.181 22.8597C113.525 22.8597 111.215 23.6679 109.483 25.2842C107.635 26.9005 106.826 29.3251 106.826 32.3269V51.2612H99.5505V16.3944H106.249Z" fill="#EAE9E8"/>
<path id="Vector_12" d="M141.819 6.34991V16.5098H151.982V22.8597H141.704V39.485C141.704 43.2949 143.32 45.2576 146.67 45.2576C148.055 45.2576 149.557 44.9113 151.174 44.1031L153.252 50.3375C150.943 51.3766 148.517 51.8384 146.208 51.8384C142.397 51.9539 139.394 50.9148 137.43 48.8367C135.467 46.7585 134.312 43.6413 134.312 39.485V22.8597H127.614V16.5098H134.312V7.1581L141.819 6.34991Z" fill="#EAE9E8"/>
</g>
</g>
</svg>
